<svg xmlns="http://www.w3.org/2000/svg" viewBox="0 0 123.53 83.47"><defs><style>.cls-1{fill:#1d1d1b;}</style></defs><title>Ресурс 7np</title><g id="Слой_2" data-name="Слой 2"><g id="Шар_61" data-name="Шар 61"><g id="knopka"><path class="cls-1" d="M44.88,16.3,33.49,27.69a1.41,1.41,0,0,0,0,2L44.88,41.06Z"/><path class="cls-1" d="M55.46,12.08a1.41,1.41,0,0,1,1.4,1.4v8.15a1.4,1.4,0,0,0,1.4,1.4h7a1.41,1.41,0,0,0,1.4-1.4V13.48a1.41,1.41,0,0,1,1.4-1.4h6.36L62.76.41a1.41,1.41,0,0,0-2,0L49.1,12.08Z"/><path class="cls-1" d="M90,27.69,78.65,16.3V41.06L90,29.67A1.41,1.41,0,0,0,90,27.69Z"/><path class="cls-1" d="M68.07,45.51a1.41,1.41,0,0,1-1.4-1.4V36a1.4,1.4,0,0,0-1.4-1.4h-7a1.4,1.4,0,0,0-1.4,1.4v8.15a1.41,1.41,0,0,1-1.4,1.4H49.33L60.77,57a1.41,1.41,0,0,0,2,0L74.2,45.51Z"/><path class="cls-1" d="M13,70.35h-3a1.11,1.11,0,0,0-1.11,1.11v4.2H4.15v-4.2A1.11,1.11,0,0,0,3,70.35H0v2.46H1.21V83.27H4.15V78.05H8.84v5.22h2.94V72.81H13Z"/><path class="cls-1" d="M20.07,70.16a6.66,6.66,0,1,0,6.68,6.66A6.68,6.68,0,0,0,20.07,70.16Zm0,10.66a4,4,0,1,1,3.89-4A4,4,0,0,1,20.07,80.81Z"/><path class="cls-1" d="M75.65,70.16a6.66,6.66,0,1,0,6.68,6.66A6.68,6.68,0,0,0,75.65,70.16Zm0,10.66a4,4,0,1,1,3.89-4A4,4,0,0,1,75.65,80.81Z"/><path class="cls-1" d="M35.93,76.27A3.36,3.36,0,0,0,37,73.79a3.54,3.54,0,0,0-3.54-3.44H27.11v2.46h1.09V83.27H33.5a3.93,3.93,0,0,0,2.44-7Zm-1.12-2.15a1.31,1.31,0,0,1-1.32,1.3H31.14v-2.6H33.5A1.31,1.31,0,0,1,34.81,74.12ZM33.5,80.89H31.14V77.82H33.5a1.54,1.54,0,0,1,0,3.09Z"/><path class="cls-1" d="M49.32,80.81,45.49,70.35H42.77L38.9,80.81H38v2.46h2a1.11,1.11,0,0,0,1-.74l.6-1.72.23-.69h4.26l.26.69L47,82.55a1.11,1.11,0,0,0,1,.73h2V80.81Zm-6.6-3.13,1.22-3.53,1.29,3.53Z"/><path class="cls-1" d="M122.83,80.81,119,70.35h-2.72l-3.87,10.46h-1v2.46h2a1.09,1.09,0,0,0,1-.73l.6-1.73.23-.69h4.26l.26.69.64,1.74a1.1,1.1,0,0,0,1,.72h2V80.81Zm-6.6-3.13,1.22-3.53,1.29,3.53Z"/><path class="cls-1" d="M67.6,80.81V71.46a1.11,1.11,0,0,0-1.11-1.11H56v2.46h1.3V83.27h2.93V72.81h4.47v9.35a1.11,1.11,0,0,0,1.11,1.11h3V80.81Z"/><path class="cls-1" d="M100.65,70.35h-3a1.1,1.1,0,0,0-1.1,1.1v9.36H93.23V70.35H90.3V80.81H87V71.46a1.11,1.11,0,0,0-1.11-1.11h-3v2.46h1.21v9.37a1.09,1.09,0,0,0,1.09,1.09H98.32a1.12,1.12,0,0,0,1.12-1.12V72.81h1.21Z"/><path class="cls-1" d="M110,70.35h-7.67a1.09,1.09,0,0,0-1.09,1.09v2.34h2.65v-1h1.55V83.27h2.94V72.81H110v1h2.65V71.46a1.11,1.11,0,0,0-1.11-1.11Z"/></g></g></g></svg>