<svg xmlns="http://www.w3.org/2000/svg" viewBox="0 0 193.36 30.68"><defs><style>.cls-1{fill:#6e6e6e;}.cls-2{fill:#fff;}.cls-3{fill:#1d1d1b;}</style></defs><title>Ресурс 3pd</title><g id="Слой_2" data-name="Слой 2"><g id="Шар_61" data-name="Шар 61"><g id="knopka"><path class="cls-1" d="M3.43,27.56H58V10.22c0-1.17-.76-2.09-2.65-2.65l-11.47-4,0,5.24L29.3,3.59V8.78L15.7,3.54l0,5.24H8.55V1.84L6.79,1.74C6.74.93,6.57.2,5.61,0S4.21.72,4.19,1.84l-1.56,0v6.9H0V24C.33,26.07,1.38,27.35,3.43,27.56Z"/><g id="Text"><g id="plant"><path class="cls-2" d="M9.49,25.56A4.15,4.15,0,0,1,6,23.93H5.83Q6,25.44,6,25.77v4.91H3.46V13.36h2q.09.34.35,1.6H6a4,4,0,0,1,3.55-1.82A4.11,4.11,0,0,1,13,14.77a7.37,7.37,0,0,1,1.24,4.56A7.38,7.38,0,0,1,13,23.92,4.15,4.15,0,0,1,9.49,25.56ZM8.87,15.22a2.62,2.62,0,0,0-2.2.89A4.64,4.64,0,0,0,6,19v.38a5.64,5.64,0,0,0,.69,3.17,2.55,2.55,0,0,0,2.25,1,2.28,2.28,0,0,0,2-1.08,5.63,5.63,0,0,0,.71-3.09,5.44,5.44,0,0,0-.7-3.05A2.34,2.34,0,0,0,8.87,15.22Z"/><rect class="cls-2" x="17.17" y="8.48" width="2.53" height="16.86"/><path class="cls-2" d="M30.75,25.35l-.51-1.67h-.09a4.89,4.89,0,0,1-1.73,1.49,5.44,5.44,0,0,1-2.24.4,3.76,3.76,0,0,1-2.74-1,3.58,3.58,0,0,1-1-2.7,3.18,3.18,0,0,1,1.37-2.8,7.82,7.82,0,0,1,4.16-1L30.05,18v-.64a2.44,2.44,0,0,0-.53-1.72,2.16,2.16,0,0,0-1.65-.57,5.67,5.67,0,0,0-1.75.27A13.14,13.14,0,0,0,24.5,16l-.82-1.82a8.73,8.73,0,0,1,2.12-.78A9.67,9.67,0,0,1,28,13.14a5.11,5.11,0,0,1,3.42,1,3.92,3.92,0,0,1,1.16,3.13v8.07ZM27,23.61a3.11,3.11,0,0,0,2.21-.77A2.82,2.82,0,0,0,30,20.67v-1l-1.53.06a5.19,5.19,0,0,0-2.6.6,1.83,1.83,0,0,0-.81,1.64,1.61,1.61,0,0,0,.47,1.24A2,2,0,0,0,27,23.61Z"/><path class="cls-2" d="M46.54,25.35H44V18a3.24,3.24,0,0,0-.55-2.07,2.13,2.13,0,0,0-1.76-.68,2.78,2.78,0,0,0-2.34,1,5.3,5.3,0,0,0-.74,3.2v6H36.08v-12h2l.35,1.57h.13a3.52,3.52,0,0,1,1.53-1.32,5.08,5.08,0,0,1,2.19-.47q4.28,0,4.28,4.39Z"/><path class="cls-2" d="M54.48,23.51a6.1,6.1,0,0,0,1.85-.29v1.92a5.11,5.11,0,0,1-1.08.31,7.4,7.4,0,0,1-1.37.12q-3.59,0-3.59-3.81V15.29H48.67V14.16l1.74-.93.86-2.54h1.56v2.67h3.39v1.93H52.83v6.42a1.81,1.81,0,0,0,.46,1.36A1.66,1.66,0,0,0,54.48,23.51Z"/></g><g id="demand"><path class="cls-3" d="M65.07,25.86a4.13,4.13,0,0,1-3.47-1.63,7.35,7.35,0,0,1-1.25-4.56,7.37,7.37,0,0,1,1.26-4.59,4.17,4.17,0,0,1,3.5-1.64,4.09,4.09,0,0,1,3.57,1.75h.13a15.41,15.41,0,0,1-.18-2V8.78h2.54V25.65h-2l-.44-1.57h-.12A4,4,0,0,1,65.07,25.86Zm.68-2.06A2.74,2.74,0,0,0,68,22.92a4.68,4.68,0,0,0,.73-2.87V19.7A5.41,5.41,0,0,0,68,16.48a2.7,2.7,0,0,0-2.29-1,2.32,2.32,0,0,0-2.05,1.09,5.62,5.62,0,0,0-.72,3.11,5.48,5.48,0,0,0,.7,3A2.35,2.35,0,0,0,65.74,23.8Z"/><path class="cls-3" d="M80,25.86a5.73,5.73,0,0,1-4.34-1.63,6.22,6.22,0,0,1-1.56-4.49,6.83,6.83,0,0,1,1.45-4.62,5,5,0,0,1,4-1.68,4.88,4.88,0,0,1,3.72,1.44,5.54,5.54,0,0,1,1.36,4v1.38H76.67a4,4,0,0,0,.94,2.68,3.24,3.24,0,0,0,2.48.94,9.09,9.09,0,0,0,2-.2A10.27,10.27,0,0,0,84,23v2.07a7.71,7.71,0,0,1-1.87.63A11.39,11.39,0,0,1,80,25.86ZM79.5,15.37a2.53,2.53,0,0,0-1.93.77,3.69,3.69,0,0,0-.86,2.24h5.4a3.34,3.34,0,0,0-.71-2.25A2.42,2.42,0,0,0,79.5,15.37Z"/><path class="cls-3" d="M97.48,25.65H94.94V18.26a3.37,3.37,0,0,0-.52-2.05,1.9,1.9,0,0,0-1.61-.68,2.45,2.45,0,0,0-2.14,1A5.67,5.67,0,0,0,90,19.68v6H87.46v-12h2l.35,1.57h.13a3.3,3.3,0,0,1,1.44-1.32,4.59,4.59,0,0,1,2.07-.47q2.74,0,3.63,1.89h.17a3.64,3.64,0,0,1,1.48-1.39,4.68,4.68,0,0,1,2.19-.5,4,4,0,0,1,3.1,1.08,4.82,4.82,0,0,1,1,3.31v7.81h-2.53V18.26a3.35,3.35,0,0,0-.52-2.05,1.91,1.91,0,0,0-1.62-.68,2.5,2.5,0,0,0-2.16.93,4.81,4.81,0,0,0-.68,2.85Z"/><path class="cls-3" d="M115.94,25.65,115.44,24h-.09a4.89,4.89,0,0,1-1.73,1.49,5.44,5.44,0,0,1-2.24.4,3.76,3.76,0,0,1-2.74-1,3.58,3.58,0,0,1-1-2.7,3.18,3.18,0,0,1,1.37-2.8,7.82,7.82,0,0,1,4.16-1l2.05-.06v-.64a2.44,2.44,0,0,0-.53-1.72,2.16,2.16,0,0,0-1.65-.57,5.67,5.67,0,0,0-1.75.27,13.14,13.14,0,0,0-1.61.64l-.82-1.82a8.73,8.73,0,0,1,2.12-.78,9.67,9.67,0,0,1,2.17-.27,5.11,5.11,0,0,1,3.42,1,3.92,3.92,0,0,1,1.16,3.13v8.07Zm-3.76-1.73a3.11,3.11,0,0,0,2.21-.77,2.82,2.82,0,0,0,.83-2.17v-1L113.7,20a5.19,5.19,0,0,0-2.6.6,1.83,1.83,0,0,0-.81,1.64,1.61,1.61,0,0,0,.47,1.24A2,2,0,0,0,112.18,23.91Z"/><path class="cls-3" d="M131.74,25.65H129.2V18.28a3.24,3.24,0,0,0-.55-2.07,2.13,2.13,0,0,0-1.76-.68,2.78,2.78,0,0,0-2.34,1,5.3,5.3,0,0,0-.74,3.2v6h-2.53v-12h2l.35,1.57h.13a3.52,3.52,0,0,1,1.53-1.32,5.08,5.08,0,0,1,2.19-.47q4.28,0,4.28,4.39Z"/><path class="cls-3" d="M139.26,25.86a4.13,4.13,0,0,1-3.47-1.63,7.35,7.35,0,0,1-1.25-4.56,7.38,7.38,0,0,1,1.26-4.59,4.17,4.17,0,0,1,3.5-1.64,4.09,4.09,0,0,1,3.57,1.75H143a15.33,15.33,0,0,1-.18-2V8.78h2.54V25.65h-2l-.44-1.57h-.12A4,4,0,0,1,139.26,25.86Zm.68-2.06a2.74,2.74,0,0,0,2.27-.88,4.68,4.68,0,0,0,.73-2.87V19.7a5.41,5.41,0,0,0-.73-3.22,2.7,2.7,0,0,0-2.29-1,2.32,2.32,0,0,0-2.05,1.09,5.62,5.62,0,0,0-.72,3.11,5.48,5.48,0,0,0,.7,3A2.35,2.35,0,0,0,139.94,23.8Z"/><path class="cls-3" d="M148.9,24.8q0-1.06.86-1.06t.88,1.06q0,1.06-.88,1.06T148.9,24.8Z"/><path class="cls-3" d="M159,25.86a5,5,0,0,1-3.92-1.59,6.45,6.45,0,0,1-1.42-4.44,6.56,6.56,0,0,1,1.47-4.56,5.16,5.16,0,0,1,4-1.63,8,8,0,0,1,2.9.53l-.29,1a8.46,8.46,0,0,0-2.63-.51A4,4,0,0,0,155.9,16a5.9,5.9,0,0,0-1.11,3.85,5.72,5.72,0,0,0,1.11,3.73,3.78,3.78,0,0,0,3.1,1.35,7.55,7.55,0,0,0,3-.57v1A6.65,6.65,0,0,1,159,25.86Z"/><path class="cls-3" d="M174.48,19.74a6.71,6.71,0,0,1-1.39,4.5,4.77,4.77,0,0,1-3.83,1.62,4.93,4.93,0,0,1-2.71-.75,4.78,4.78,0,0,1-1.8-2.15,7.87,7.87,0,0,1-.62-3.23,6.67,6.67,0,0,1,1.39-4.49,4.76,4.76,0,0,1,3.81-1.61,4.67,4.67,0,0,1,3.78,1.63A6.74,6.74,0,0,1,174.48,19.74Zm-9.22,0a6,6,0,0,0,1.06,3.79,4,4,0,0,0,6,0,6,6,0,0,0,1.06-3.79A5.93,5.93,0,0,0,172.29,16a3.62,3.62,0,0,0-3-1.34,3.57,3.57,0,0,0-3,1.34A6,6,0,0,0,165.25,19.74Z"/><path class="cls-3" d="M192.31,25.65V17.92a3.87,3.87,0,0,0-.67-2.51,2.52,2.52,0,0,0-2-.79,3.32,3.32,0,0,0-2.66,1,4.73,4.73,0,0,0-.86,3.13v6.9H185V17.59q0-3-2.71-3a3.18,3.18,0,0,0-2.68,1.08,5.65,5.65,0,0,0-.84,3.45v6.5h-1.06V13.87h.88l.23,1.62h.06a3.37,3.37,0,0,1,1.38-1.36,4.07,4.07,0,0,1,2-.48q2.76,0,3.55,2.09h0a4,4,0,0,1,1.53-1.55,4.38,4.38,0,0,1,2.19-.54,3.73,3.73,0,0,1,2.87,1,4.7,4.7,0,0,1,1,3.27v7.71Z"/></g></g></g></g></g></svg>