<svg xmlns="http://www.w3.org/2000/svg" viewBox="0 0 76.78 89.53"><defs><style>.cls-1{fill:#adadad;}.cls-2{fill:#343434;}</style></defs><title>Ресурс 11sov</title><g id="Слой_2" data-name="Слой 2"><g id="Шар_61" data-name="Шар 61"><g id="knopka"><path class="cls-1" d="M43.54,9.07l-1.57,3s1,2.22,3,.34-.83-3.63-1.42-3.39"/><path class="cls-1" d="M35.54,10.73l1.82,2.48s-3.23.45-1.82-2.48"/><path class="cls-1" d="M54.67,38.7c-3.86-.08-4.93,4.6-4.93,4.6h-4l-.49-1.23H39.81l-1-3.78A18.55,18.55,0,0,0,54,21.78C55.65,8.48,48,4,47.44,3.39S50.07-.3,49.49,0s-4.43,2.71-4.43,2.71c-8.95-1.4-10.51,4-10.51,4-.53.21-3.08.62-3.08.62,4.89.94,8.33,8.46,8.33,8.46.45-4.76,6.28-11.13,6.28-11.13,6.65,4.11,2.75,11.08,1.6,12.64s-4.47,3.37-8.5,2.87-5.5-4.64-5.5-4.64a5.89,5.89,0,0,1,.41,3c-6.24.08-11.54,7.8-11.54,7.8,1.64.57,3.33-1.48,3.33-1.48H28.6c-1.89,3.57-6.94,3-6.94,3L20.51,30c6.73.74,11.13-5.09,11.13-5.09h1.72c-4.6,7.39-13.46,6.61-13.46,6.61l-1,3.28c11.78.45,17.61-9.89,17.61-9.89h1.87c-6.75,12.4-20,11.45-20,11.45l-.45,2.55c14.9.62,22.46-11.41,22.46-11.41-.78,7.92-10.22,12.07-10.22,12.07h2L32.54,42H30.89v1.36H19c-1.65.89,0,1.57,0,1.57l1.2,0v3.46a.88.88,0,0,0,1.62.09V47.28c1-1.11,1.77,0,1.77,0v1.23c.74,1.15,1.72.08,1.72.08V44.94H49.9c1.48,5.42,4.52,4.76,4.52,4.76,3.37.25,4.43-4.68,4.43-5.5S58.52,38.78,54.67,38.7Zm-20,3.37-.27-3h2.07l1.21,3Zm19.71,6c-2.6,0-2.72-3-2.72-3h1.6s.92-1,0-1.69h-1.6v-.12s.62-2.8,2.86-2.56,2.56,2.43,2.59,3.17S57,48,54.36,48Z"/><path class="cls-2" d="M11.09,56.18a6.06,6.06,0,0,0-2.89-.61c-2.89,0-4.76,2.21-4.76,6.5,0,3.5,1.7,7,5.75,7a3.64,3.64,0,0,0,2.45-.8,9.57,9.57,0,0,0,1.84-2.4,1.27,1.27,0,0,1,.68.46,8.41,8.41,0,0,1-1.94,3.37,11.51,11.51,0,0,1-3.66.58C3.16,70.26,0,67.49,0,62.32a7.2,7.2,0,0,1,3.93-6.63,10.37,10.37,0,0,1,4.93-1c1.94,0,3.79.36,4.88.41a32.06,32.06,0,0,0-.39,4c-.1.12-.83.19-.85.07C12.26,57.49,12,56.71,11.09,56.18Z"/><path class="cls-2" d="M26.12,64.82a4.9,4.9,0,0,1-2.23,4.37,6.36,6.36,0,0,1-3.16.92c-3.64,0-5.17-2.45-5.17-5.22a4.77,4.77,0,0,1,2.16-4.1,6.27,6.27,0,0,1,3.35-1A4.75,4.75,0,0,1,26.12,64.82ZM19.59,61c-.63.44-1,1.34-1,3.18,0,3.18,1.14,4.93,2.69,4.93a1.46,1.46,0,0,0,1-.34c.58-.53.85-1.55.85-3.25,0-2.89-1-4.76-2.67-4.76A1.48,1.48,0,0,0,19.59,61Z"/><path class="cls-2" d="M28.42,68.92a.57.57,0,0,0,.46-.63c0-.85,0-2.4,0-3.54s0-2.55,0-3a.61.61,0,0,0-.24-.51,3.94,3.94,0,0,0-1.07-.34.85.85,0,0,1,0-.73c1.67-.07,4-.17,5.61-.17s3.57.36,3.57,2.31a2.3,2.3,0,0,1-1.84,2.09.06.06,0,0,0,0,.1c1.43.29,2.45,1,2.45,2.33a2.92,2.92,0,0,1-2.26,2.72,9.05,9.05,0,0,1-3.33.46c-.95,0-3.08-.1-4.25-.1-.15-.1-.12-.68,0-.78A7.15,7.15,0,0,0,28.42,68.92Zm5.85-6.07c0-1.38-1-2-2.55-2a.16.16,0,0,0-.15.15c0,.36,0,2.23,0,3.18a.09.09,0,0,0,.07.1h1.12a1.55,1.55,0,0,0,1-.24A1.36,1.36,0,0,0,34.27,62.85Zm-2.6,2.28c-.12,0-.12.07-.12.1,0,1.09,0,2.11,0,2.89a.84.84,0,0,0,.32.7,2,2,0,0,0,.92.29,1.64,1.64,0,0,0,1.72-1.87C34.54,65.89,33.59,65.14,31.67,65.14Z"/><path class="cls-2" d="M43.61,70.11A4.21,4.21,0,0,1,40,68.44a5.34,5.34,0,0,1-1-3.35,5,5,0,0,1,2.45-4.25,7.49,7.49,0,0,1,3.45-1,4.75,4.75,0,0,1,2,.34,1.64,1.64,0,0,1,.83.68.9.9,0,0,1,0,.44,3.18,3.18,0,0,1-1,1.29c-.07,0-.27,0-.32,0-.51-.53-1.46-1.67-2.67-1.67S41.65,62.17,41.65,64a5,5,0,0,0,.8,2.86,3.17,3.17,0,0,0,2.67,1.26,3.89,3.89,0,0,0,2.65-1s.12.07.15.15a1.62,1.62,0,0,1-.17.85A5.35,5.35,0,0,1,43.61,70.11Z"/><path class="cls-2" d="M49.56,69c.49-.15.58-.46.61-1,0-1,0-2,0-3.3,0-1,0-2.5,0-3s-.15-.58-.53-.68a3.19,3.19,0,0,0-.73-.17,1.38,1.38,0,0,1,.07-.78c.32,0,1.14.07,2.5.07,1.6,0,2.4-.07,2.6-.07a1.14,1.14,0,0,1,0,.8,4.34,4.34,0,0,0-.68.15c-.32.07-.51.22-.53.68l0,1.84c.53,0,1.58-.07,2-.07,1.77,0,3.4.85,3.4,3a3.19,3.19,0,0,1-1.75,2.89,7.82,7.82,0,0,1-3.52.61c-1.33,0-2.74,0-4.17,0a1.41,1.41,0,0,1,0-.78C49,69.07,49.29,69,49.56,69Zm3.3-.61c0,.39.61.78,1,.78.8,0,1.6-.75,1.6-2.26s-.87-2.57-2.69-2.57C52.81,65.31,52.81,67.42,52.86,68.36Z"/><path class="cls-2" d="M60.31,68.95a.58.58,0,0,0,.53-.63c0-.32,0-2.21,0-3.57s0-2.74,0-3.06a.67.67,0,0,0-.53-.7,3.5,3.5,0,0,0-.73-.15,1.36,1.36,0,0,1,.07-.78c.32,0,1.14.07,2.5.07,1.6,0,2.43-.07,2.62-.07a1.22,1.22,0,0,1,0,.78c-.24,0-.41.07-.7.15a.63.63,0,0,0-.53.68l0,2.79c1,0,1.53-.19,1.8-.58a9.9,9.9,0,0,0,1-1.72c1-2.18,1.77-2.35,2.43-2.33a1.2,1.2,0,0,1,.95.41,6,6,0,0,1-.46,2c0,.07-.17.12-.22.1A2.81,2.81,0,0,0,67.91,62c-.34,0-.61.1-1,1A6.29,6.29,0,0,1,66,64.43a2.6,2.6,0,0,1,1.17.9c.61.9,1.14,1.82,1.82,2.74a2,2,0,0,0,1.87,1c.1.1.07.7,0,.75a16.48,16.48,0,0,1-2.57.12,1.9,1.9,0,0,1-1.77-.87,30,30,0,0,1-1.72-2.91c-.36-.68-.73-1-1.17-1,0,.92,0,2.38,0,3.08a.64.64,0,0,0,.56.68c.24.07.41.1.73.17a1.2,1.2,0,0,1-.07.78l-2.69-.07c-.87,0-2.35.07-2.55.07a1.31,1.31,0,0,1,0-.8A5.4,5.4,0,0,0,60.31,68.95Z"/><path class="cls-2" d="M76.65,69.89c-.49,0-1.33-.07-2.77-.07-1.24,0-2.16.07-2.69.07a1.29,1.29,0,0,1,0-.8,4.29,4.29,0,0,0,.95-.19c.32-.12.39-.34.41-.92s0-2.11,0-3.33c0-.85,0-1.8,0-2.23a.85.85,0,0,0-.19-.58,2.34,2.34,0,0,0-1-.56,1,1,0,0,1,.07-.7,15.26,15.26,0,0,0,3.91-.8c0,1,0,2.77,0,4.17s0,2.89,0,4c0,.63.15.83.46.95a5.56,5.56,0,0,0,.95.19A1.15,1.15,0,0,1,76.65,69.89ZM74.68,58a2.88,2.88,0,0,1-1.58.12,1.45,1.45,0,0,1-.75-1,1.73,1.73,0,0,1,.15-1,2.79,2.79,0,0,1,1.6-.51,1.41,1.41,0,0,1,1,.29,1.51,1.51,0,0,1,.22.83A1.87,1.87,0,0,1,74.68,58Z"/><path class="cls-2" d="M10.49,89.53A4.21,4.21,0,0,1,6.9,87.85a5.34,5.34,0,0,1-1-3.35,5,5,0,0,1,2.45-4.25,7.49,7.49,0,0,1,3.45-1,4.75,4.75,0,0,1,2,.34,1.64,1.64,0,0,1,.83.68.91.91,0,0,1,0,.44,3.19,3.19,0,0,1-1,1.29c-.07,0-.27,0-.32,0-.51-.53-1.46-1.67-2.67-1.67s-2.06,1.29-2.06,3.08a5,5,0,0,0,.8,2.86A3.17,3.17,0,0,0,12,87.51a3.89,3.89,0,0,0,2.65-1s.12.07.15.15a1.62,1.62,0,0,1-.17.85A5.35,5.35,0,0,1,10.49,89.53Z"/><path class="cls-2" d="M18.19,88.36c.51-.1.66-.34.7-1.14.07-1.65,0-3.69,0-6.48,0,0-.07-.19-.15-.19a5.28,5.28,0,0,0-.87,0,1,1,0,0,0-.8.53,17.72,17.72,0,0,0-.85,1.77,1.23,1.23,0,0,1-.8-.19c.12-.73.32-2.45.36-3.25a.64.64,0,0,1,.19-.07,4.38,4.38,0,0,0,1.63.22h5.49a8.11,8.11,0,0,0,2.06-.19.36.36,0,0,1,.15.12,20.2,20.2,0,0,0-.49,3.33,1.38,1.38,0,0,1-.83,0,11,11,0,0,0-.44-1.77.75.75,0,0,0-.68-.49,9.08,9.08,0,0,0-1.14,0,.21.21,0,0,0-.12.17c0,2.52,0,5.8,0,6.82a.8.8,0,0,0,.53.78c.32.07.7.12,1.21.19a1.32,1.32,0,0,1-.1.8c-1,0-2.31-.07-3.28-.07s-2,.07-2.89.07a1.14,1.14,0,0,1,0-.8C17.63,88.46,17.94,88.41,18.19,88.36Z"/><path class="cls-2" d="M31.27,81.64a2.06,2.06,0,0,0-1.72-.8,1.82,1.82,0,0,0-1.12.29,7.55,7.55,0,0,0-.87,1.55c-.1.1-.85-.27-.83-.44a5,5,0,0,1,.53-1.53,8.2,8.2,0,0,1,3.59-1.48,3.14,3.14,0,0,1,2.72,1.41,4.29,4.29,0,0,1,.61,2.45c0,1.16-.07,2.84-.07,3.81,0,.49.17.95.75.95a2.43,2.43,0,0,0,.83-.12,2.78,2.78,0,0,1-.12.9,3.72,3.72,0,0,1-2.43.9,1.38,1.38,0,0,1-1.41-.7l-.15-.46s-.07,0-.1,0a6.57,6.57,0,0,1-2.77,1.21,2.09,2.09,0,0,1-1.41-.58,3.22,3.22,0,0,1-.92-2.33,4.47,4.47,0,0,1,.41-1.43c.75-.41,3.71-1.12,4.61-1.53a.43.43,0,0,0,.19-.27,2.65,2.65,0,0,0,0-.44A2.33,2.33,0,0,0,31.27,81.64Zm.24,2.79a17.55,17.55,0,0,0-2.33.9,2,2,0,0,0-.22.8,1.62,1.62,0,0,0,1.63,1.72,1.44,1.44,0,0,0,.78-.22.54.54,0,0,0,.19-.49c0-.68,0-2.18,0-2.6C31.61,84.53,31.53,84.43,31.51,84.43Z"/><path class="cls-2" d="M37.36,88.34a.57.57,0,0,0,.46-.63c0-.85,0-2.4,0-3.54s0-2.55,0-3a.61.61,0,0,0-.24-.51,3.94,3.94,0,0,0-1.07-.34.85.85,0,0,1,0-.73c1.67-.07,4-.17,5.61-.17s3.57.36,3.57,2.31a2.3,2.3,0,0,1-1.84,2.09.06.06,0,0,0,0,.1c1.43.29,2.45,1,2.45,2.33A2.92,2.92,0,0,1,44,88.95a9.05,9.05,0,0,1-3.33.46c-.95,0-3.08-.1-4.25-.1-.15-.1-.12-.68,0-.78A7.15,7.15,0,0,0,37.36,88.34Zm5.85-6.07c0-1.38-1-2-2.55-2a.16.16,0,0,0-.15.15c0,.36,0,2.23,0,3.18a.09.09,0,0,0,.07.1h1.12a1.55,1.55,0,0,0,1-.24A1.36,1.36,0,0,0,43.21,82.27Zm-2.6,2.28c-.12,0-.12.07-.12.1,0,1.09,0,2.11,0,2.89a.84.84,0,0,0,.32.7,2,2,0,0,0,.92.29,1.64,1.64,0,0,0,1.72-1.87C43.48,85.3,42.53,84.55,40.61,84.55Z"/><path class="cls-2" d="M48.3,88.36a.58.58,0,0,0,.53-.63c0-.32,0-2.21,0-3.57s0-2.74,0-3.06a.67.67,0,0,0-.53-.7,3.5,3.5,0,0,0-.73-.15,1.36,1.36,0,0,1,.07-.78c.32,0,1.14.07,2.5.07,1.6,0,2.43-.07,2.62-.07a1.22,1.22,0,0,1,0,.78c-.24,0-.41.07-.7.15a.63.63,0,0,0-.53.68l0,2.79c1,0,1.53-.19,1.8-.58a9.9,9.9,0,0,0,1-1.72c1-2.18,1.77-2.35,2.43-2.33a1.2,1.2,0,0,1,.95.41,6,6,0,0,1-.46,2c0,.07-.17.12-.22.1a2.8,2.8,0,0,0-1.12-.32c-.34,0-.61.1-1,1A6.29,6.29,0,0,1,54,83.85a2.6,2.6,0,0,1,1.17.9c.61.9,1.14,1.82,1.82,2.74a2,2,0,0,0,1.87,1c.1.1.07.7,0,.75a16.49,16.49,0,0,1-2.57.12,1.9,1.9,0,0,1-1.77-.87,30,30,0,0,1-1.72-2.91c-.36-.68-.73-1-1.17-1,0,.92,0,2.38,0,3.08a.64.64,0,0,0,.56.68c.24.07.41.1.73.17a1.2,1.2,0,0,1-.07.78l-2.69-.07c-.87,0-2.35.07-2.55.07a1.31,1.31,0,0,1,0-.8A5.39,5.39,0,0,0,48.3,88.36Z"/><path class="cls-2" d="M59.86,88.36c.58-.17.58-.51.58-1.29,0-1,0-2.16,0-3.25s0-1.89,0-2.72a.67.67,0,0,0-.53-.7,3.5,3.5,0,0,0-.73-.15,1.36,1.36,0,0,1,.07-.78c.32,0,1.14.07,2.5.07,1.6,0,2.43-.07,2.62-.07a1.22,1.22,0,0,1,0,.78c-.24,0-.41.07-.7.15s-.51.27-.53.75c0,.87,0,2.94,0,4.22,0,.1.1.12.12.07a48,48,0,0,0,3.33-3.81.67.67,0,0,0,.12-.39c0-.49-.1-.68-.46-.8a5.69,5.69,0,0,0-.66-.15,1.56,1.56,0,0,1,0-.83c.53,0,1.21.07,2.5.07s2.06,0,2.57-.07a1.49,1.49,0,0,1,0,.8,6.94,6.94,0,0,0-.9.22.66.66,0,0,0-.39.66c0,1.21,0,5,0,6.31,0,.46.12.7.46.83a6.6,6.6,0,0,0,1,.22,1.53,1.53,0,0,1-.1.8c-.61,0-1.7-.07-2.74-.07s-1.89,0-2.33.07a1.73,1.73,0,0,1,0-.7c.78-.32,1-.44,1-.85,0-1.12,0-3.08,0-4.66,0-.1-.1-.17-.15-.1-.66.78-2.69,3-3.37,3.86a.86.86,0,0,0-.12.44c0,.8.1.95.51,1.07l.78.17a1.44,1.44,0,0,1-.1.78c-.36,0-1.51-.07-2.69-.07-.87,0-2,.07-2.5.07a1.79,1.79,0,0,1,0-.8A5.2,5.2,0,0,0,59.86,88.36Z"/></g></g></g></svg>