<svg xmlns="http://www.w3.org/2000/svg" viewBox="0 0 189.22 23.65"><defs><style>.cls-1{fill:#6e6e6e;}</style></defs><title>Ресурс 2uriafarm</title><g id="Слой_2" data-name="Слой 2"><g id="Шар_61" data-name="Шар 61"><g id="knopka"><rect class="cls-1" x="99.28" y="10.86" width="3.43" height="3.39" transform="translate(88.31 113.54) rotate(-89.93)"/><path class="cls-1" d="M13.7,12.78H10V10.85h3.7Zm2.92-8.13s-2.86-.3-3,3.41h6.66V9.49H10V4.38s0-2.91,3.65-2.89c2.86,0,6.72,0,8.2,0A4.92,4.92,0,0,0,18.36,0H5.3C2.38,0,0,2.66,0,5.95V17.71A6.73,6.73,0,0,0,.13,19H7S9.89,19.3,10,15.6H3.33V14.14H13.65v5.12s0,2.93-3.65,2.91H1.81A4.93,4.93,0,0,0,5.3,23.65H18.36c2.92,0,5.29-2.66,5.29-5.94V5.95a5.91,5.91,0,0,0-.14-1.3Z"/><path class="cls-1" d="M54.32,14.09V9.57c0-4-1.61-5.09-5.13-5.09H42.94c-3.88,0-5.25,1.16-5.25,5.09v.58H34.28V4.65H30.87V19h3.41V13h3.41v1.09c0,3.47,1.43,4.9,5.26,4.9h6.25c4,0,5.13-1.33,5.13-4.9m-3.39-.37c0,1.94-.49,2.41-2.67,2.41h-4.5c-2.06,0-2.66-.52-2.66-2.4V9.91c0-2,.6-2.57,2.73-2.57H48.2c2,0,2.73.48,2.73,2.56Z"/><path class="cls-1" d="M71.36,9.67c0-3.61-1.41-5-5-5H56.68V19h3.39V14.75h6.34c3.5,0,4.93-1.45,5-5.09m-3.4,0c0,1.55-.48,2.23-2.22,2.23H60.07V7.5h5.67c1.78,0,2.22.77,2.22,2.17"/><rect class="cls-1" x="73.31" y="4.65" width="3.4" height="3.43"/><rect class="cls-1" x="73.3" y="9.83" width="3.39" height="9.16"/><path class="cls-1" d="M95.54,19V4.65H84.75c-3,0-5.06,1-5.06,5A4.4,4.4,0,0,0,82.83,14l-4.16,5h4.43l3.4-4.56h5.65V19Zm-3.4-7.25h-7c-1.44,0-2.05-.67-2.05-2.19s.43-2.19,2-2.19h7.1Z"/><path class="cls-1" d="M115.88,14.86H112.4c-2.17,0-2.66-.47-2.66-2.43V11.17c0-2.08.69-2.55,2.72-2.55h3.42Zm12.94-2.09V10.82c0-4-1.66-5.06-5.18-5.06h-4.36V4.63h-3.4V5.76h-4.4c-3.53,0-5.15,1.06-5.15,5.09v2c0,3.57,1.18,4.89,5.15,4.89h4.4V19h3.4V17.7h4.36c4,0,5.18-1.37,5.18-4.94m-3.4-.35c0,1.94-.47,2.44-2.64,2.44h-3.51V8.62h3.44c2,0,2.7.47,2.7,2.55Z"/><path class="cls-1" d="M149.19,19,141.7,4.65h-5L129.13,19h4l1.85-3.62h8.42L145.2,19ZM142,12.66h-5.67l2.81-5.33h.17Z"/><path class="cls-1" d="M164.93,9.67c0-3.61-1.41-5-5-5h-9.67V19h3.39V14.75H160c3.51,0,4.93-1.45,5-5.09m-3.4,0c0,1.55-.49,2.23-2.21,2.23h-5.68V7.5h5.68c1.78,0,2.21.77,2.21,2.17"/><polygon class="cls-1" points="185.83 18.99 185.83 7.49 185.37 7.49 180.5 18.99 175.66 18.99 170.79 7.49 170.34 7.5 170.34 18.99 166.93 18.99 166.93 4.65 173.27 4.65 177.98 16.13 178.18 16.13 182.9 4.65 189.22 4.65 189.22 18.99 185.83 18.99"/></g></g></g></svg>