<svg xmlns="http://www.w3.org/2000/svg" viewBox="0 0 82.99 102.52"><defs><style>.cls-1{fill:#4b4b4b;}</style></defs><title>Ресурс 9her</title><g id="Слой_2" data-name="Слой 2"><g id="Шар_61" data-name="Шар 61"><g id="knopka"><path class="cls-1" d="M82.4,82.66c1-4.11.66-12.07-.71-13.21V80.11c-2-2.37-3.49-4.29-5.2-6-1.55-1.51-2.29-4.11-4.73-4.48V82.13l.7.15c1.78-2.83-.54-6.48,1-9.7Z"/><path class="cls-1" d="M65.71,92.34l8.9,10,.75-.3c0-3.88,0-7.76,0-11.64,0-.35-.71-.68-1.34-1.25V99.78L64.13,88.65v13.44C66.27,99.22,64.53,95.82,65.71,92.34Z"/><path class="cls-1" d="M13,74.85l-.62-5.33-.91.16c0,3.87,0,7.75,0,11.62,0,.36.71.71,1.42,1.37A10.54,10.54,0,0,0,13,81.23c-.81-5.29-.81-5.31,4.31-5.27,3.52,0,4.12-.67,3.67,4a6.92,6.92,0,0,0,.72,2.42l.72-.29c.4-7.35,0-11.72-1.46-12.62v5.36Z"/><path class="cls-1" d="M8.91,82.41l.43-.64L2.79,75.45,7.68,70.2,7,69.5,1.44,75.42C.82,69.85.82,69.85,0,69.93V82.25l1,.08.29-6.49C4.6,77.54,5.58,81.43,8.91,82.41Z"/><path class="cls-1" d="M37.43,90.22l.1-.62c-.28-.17-.54-.46-.84-.5a8.41,8.41,0,0,0-7.87,4.14,6.57,6.57,0,0,0,.67,7.07c1.6,1.79,5.83,2.75,8.27,1.87,2.22-.8,2.79-4.23.72-6.29a10.62,10.62,0,0,1-.05,2.89c-.28.88-.81,2.1-1.52,2.34-3.11,1.08-6.61-.85-7.2-3.71a5.69,5.69,0,0,1,4.94-7C35.56,90.28,36.5,90.28,37.43,90.22Z"/><path class="cls-1" d="M32.56,82.1c-4.86-1.25-4.77-1.28-5-2.26-1.1-4.25,2.38-3.75,4.65-4.69L28,74.91c-2-5.6,2.45-4.19,5.29-4.49l-.39-.68H26.44V82.1Z"/><path class="cls-1" d="M19.57,102.33c2.27-.46,4.35.4,6.52-.61-1.87-1.57-4.65,1.26-5.45-2-1-4.1,2-4.09,4.66-4.72l-4.22-.32c-2.09-5.77,2.59-4,5.13-4.53l-.3-.6H19.57Z"/><path class="cls-1" d="M47.46,81.67c1.18,1,2.69,1,4.09-.3,1.22-1.13,1.88-2.48.76-4-.62-.86-1.57-1.5-2.16-2.38s-1.29-2-1.06-2.69,1.53-1.16,2.42-1.62a11.84,11.84,0,0,1,2.19-.53c-2.69-1.3-4.19-.33-5.4,1.14-1.34,1.62-.67,3.08.54,4.56a36.84,36.84,0,0,1,2.54,4Z"/><path class="cls-1" d="M43.27,102.12l.73-.06c.82-3.43.36-11.58-.73-12.59Z"/><path class="cls-1" d="M29.9,42.33c-8.62,1-14.56-1.43-17.42-6.84a13.72,13.72,0,0,1,1.84-15.08C18.4,16,23.16,16,28.55,18.95,27.37,13.81,28,9.36,30.88,5.32c5.27-7.47,17.52-7,21.74.9,1.68,3.13,1.56,5.42-.63,11.13,7.63-1.3,14,.53,17.63,7.81,2.22,4.4,1,10.75-2.36,14.29-4.1,4.3-8.78,4.11-13.86,1.4,0,2.78.41,5.41-.07,7.85-1.76,8.81-10.62,13.45-18.46,9.9-6.37-2.88-8.45-8.35-5.65-14.81C29.38,43.39,29.58,43,29.9,42.33ZM44.68,21.92c-2.18-1-4.38-1.62-6.11-2.87A6.61,6.61,0,0,1,36,12.14a5.9,5.9,0,0,1,4.3-4.71c3-.93,6.38,1.15,6.17,4A3,3,0,0,1,45,13.53c-.46.22-1.44-.53-2.14-.92s-1.14-.76-1.71-1.15c-.38.83-1.12,1.68-1.07,2.48.17,2.39,3.43,3.94,5.86,2.95A6.46,6.46,0,0,0,48.26,7a9.06,9.06,0,0,0-14,.67C31,12.17,31.26,17.07,35,22c4,5.21,5.39,5.25,9.51.28A1.24,1.24,0,0,0,44.68,21.92ZM36.63,38c1.51.37,2.63.55,3.69.91a7.83,7.83,0,0,1,5.53,8,5.9,5.9,0,0,1-4,5.24A4.59,4.59,0,0,1,36.44,51a6.44,6.44,0,0,1-1.05-3.63c0-.45,1.3-1.51,1.57-1.38a13.25,13.25,0,0,1,2.49,2,3.78,3.78,0,0,0,.44.29c1.86-.92,2.29-1.72,1.73-3.17a4.63,4.63,0,0,0-5.1-2.56c-3.88.91-5.83,6.23-3.48,9.54a9.14,9.14,0,0,0,13.29,1.2c5.49-5.39,3.73-15.93-3.31-19.27a3.16,3.16,0,0,0-2.71.2A31.92,31.92,0,0,0,36.63,38ZM32.47,25.89c-.34,4.44-2.21,7.64-6.62,8.85a6.16,6.16,0,0,1-6.95-3.3c-1.18-2.54-.7-5.1,1.31-6.5,1.45-1,3.14-1.43,4.26.26s-.32,2.51-1.73,3.11c-.19.08-.28.42-.46.71a2.3,2.3,0,0,0,3.4,1.47,4.47,4.47,0,0,0,2.41-5.14A6.32,6.32,0,0,0,17.66,22.8a9.17,9.17,0,0,0,.85,13.53c4.11,3.28,9,3.21,13.89-.2,5.86-4.08,6-5.65.63-10.17C33,25.91,32.86,25.93,32.47,25.89ZM59.56,31c-.85-2.25-2.27-2.64-3.89-1.61a4.11,4.11,0,0,0-2,5.07c.89,2.75,3.1,3.9,5.68,4.27s4.44-1.14,5.78-3.2a9.1,9.1,0,0,0-2.92-12.89c-4.13-2.57-9.06-2.15-13.27,1.12-5.52,4.29-5.56,5.34-.37,9.86.11.1.33.07.15,0,1-2.09,1.59-4.28,2.84-6A6.68,6.68,0,0,1,58.75,25a5.8,5.8,0,0,1,4.61,4.72c.69,3-1.55,6.06-4.27,5.76a2.71,2.71,0,0,1-2-1.34c-.19-.61.41-1.57.85-2.26C58.2,31.49,58.84,31.36,59.56,31Z"/><path class="cls-1" d="M55.14,76a6.91,6.91,0,0,1,7.32-6.9c3.85.08,6.53,2.68,6.53,6.34a7.31,7.31,0,0,1-7.36,7.3A6.48,6.48,0,0,1,55.14,76Zm7,5.52a5.51,5.51,0,0,0,5.37-5.8,5.17,5.17,0,0,0-5.57-5.46c-3.26.1-5.37,2.38-5.32,5.76S58.81,81.55,62.12,81.51Z"/><path class="cls-1" d="M61.08,95.42a7.13,7.13,0,0,1-6.93,7.1,6.49,6.49,0,0,1-6.87-6.68A7,7,0,0,1,54.46,89C58.6,89,61.11,91.42,61.08,95.42ZM54,101.34c3.32.05,5.56-2.24,5.63-5.77a5,5,0,0,0-5.19-5.53,5.47,5.47,0,0,0-5.71,5.73A5.3,5.3,0,0,0,54,101.34Z"/><path class="cls-1" d="M82.4,82.66,73.5,72.58c-1.57,3.22.75,6.86-1,9.7l-.7-.15V69.68c2.44.37,3.18,3,4.73,4.48,1.7,1.66,3.15,3.58,5.2,6V69.45C83.06,70.59,83.43,78.55,82.4,82.66Z"/><path class="cls-1" d="M7.82,102.14V89.7c2.78-.93,5.75-.55,6.58,1.28,1.09,2.4.27,4.34-2.29,5.81L17,101.49c-1.65.71-1.59.65-3.87-1.83a27.85,27.85,0,0,0-3.48-2.77L9,97.43,8.71,102Zm.84-5.86c3.58,0,5-1.24,4.81-3.5s-1.81-3.06-3.35-2.42C7.25,91.52,9.47,94.17,8.65,96.28Z"/><path class="cls-1" d="M65.71,92.34c-1.18,3.48.57,6.89-1.57,9.75V88.65L74,99.78V89.11c.63.57,1.34.9,1.34,1.25.08,3.88,0,7.76,0,11.64l-.75.3Z"/><path class="cls-1" d="M37.62,82.21C36,81.74,36,81.75,36.2,76.67c.07-2.22,0-4.45,0-6.75,3-1,5.89-.64,6.81,1.12,1.33,2.55,0,4.39-2.64,6.37l5.18,4.7c-2.49.55-2.82-1.66-4-2.62s-2.09-2.49-4.26-1.8Zm-.49-5.81c3.5.07,5.18-1.15,5.07-3.28S40.74,70,39,70.48C35.58,71.47,38.17,74.33,37.13,76.4Z"/><path class="cls-1" d="M13,74.85h8V69.48c1.45.9,1.86,5.27,1.46,12.62l-.72.29A6.92,6.92,0,0,1,21,80c.46-4.69-.15-4-3.67-4-5.12,0-5.11,0-4.31,5.27a10.54,10.54,0,0,1-.08,1.42c-.71-.66-1.41-1-1.42-1.37-.08-3.87,0-7.75,0-11.62l.91-.16Z"/><path class="cls-1" d="M8.91,82.41c-3.33-1-4.31-4.87-7.6-6.57L1,82.32l-1-.08V69.93c.82-.08.82-.08,1.44,5.48L7,69.5l.72.7L2.79,75.45l6.55,6.32Z"/><path class="cls-1" d="M37.43,90.22c-.93.06-1.87.07-2.79.2a5.69,5.69,0,0,0-4.94,7c.58,2.86,4.09,4.79,7.2,3.71.71-.25,1.24-1.46,1.52-2.34a10.62,10.62,0,0,0,.05-2.89c2.07,2.06,1.51,5.49-.72,6.29-2.44.88-6.68-.08-8.27-1.87a6.57,6.57,0,0,1-.67-7.07,8.41,8.41,0,0,1,7.87-4.14c.3,0,.56.33.84.5Z"/><path class="cls-1" d="M32.56,82.1H26.44V69.73H32.9l.39.68C30.45,70.72,26,69.3,28,74.91l4.19.24c-2.27.94-5.75.44-4.65,4.69C27.79,80.82,27.7,80.84,32.56,82.1Z"/><path class="cls-1" d="M19.57,102.33V89.58h6.34l.3.6c-2.54.57-7.22-1.25-5.13,4.53l4.22.32c-2.62.63-5.68.61-4.66,4.72.8,3.24,3.58.4,5.45,2C23.92,102.73,21.84,101.87,19.57,102.33Z"/><path class="cls-1" d="M47.46,81.67l3.92-1.82a36.84,36.84,0,0,0-2.54-4c-1.21-1.48-1.88-2.94-.54-4.56,1.22-1.47,2.72-2.44,5.4-1.14a11.84,11.84,0,0,0-2.19.53c-.89.46-2.19.89-2.42,1.62s.52,1.88,1.06,2.69,1.54,1.51,2.16,2.38c1.12,1.55.46,2.9-.76,4C50.15,82.66,48.65,82.68,47.46,81.67Z"/><path class="cls-1" d="M43.27,102.12V89.47c1.09,1,1.55,9.16.73,12.59Z"/><circle class="cls-1" cx="58.96" cy="12.49" r="2.24"/><circle class="cls-1" cx="58.3" cy="46.76" r="2.24"/><circle class="cls-1" cx="23.27" cy="12.49" r="2.24"/><circle class="cls-1" cx="23.27" cy="46.76" r="2.24"/></g></g></g></svg>