<svg xmlns="http://www.w3.org/2000/svg" viewBox="0 0 62.46 62.66"><defs><style>.cls-1{fill:#1d1d1b;}</style></defs><title>Ресурс 24yarem4a</title><g id="Слой_2" data-name="Слой 2"><g id="Шар_61" data-name="Шар 61"><g id="knopka"><path class="cls-1" d="M62.46,49.8c0,3.11-1.48,3.74-5.39,3.74H4.14C1,53.54,0,53.17,0,49.8V5C0,1,.21,0,4.14,0H57.08c5.23,0,5.38,1.09,5.38,5ZM57.27,8.6c0-3.25-.13-4.15-4.49-4.15H8.65c-3.28,0-3.45.84-3.45,4.15V46c0,2.81.82,3.11,3.45,3.11H52.78c3.26,0,4.49-.52,4.49-3.11Z"/><path class="cls-1" d="M34.3,29.23c-4.16,2.92-9.34,12.61-13,13.37a6.8,6.8,0,0,1-3.57-.26V39a4.57,4.57,0,0,0,3.76-1.82l6.16-8c-2.15-.37-4.34-.55-5.72-2.15S19,23.2,19,20.67a9.34,9.34,0,0,1,2.82-7c1.87-1.81,4.84-2.2,7.89-2.2H43.45V42.6H38V29.23Zm3.68-13H30.51c-1.59,0-3.53-.21-4.63.58a3.32,3.32,0,0,0-1.64,3.06,4.21,4.21,0,0,0,1.28,3.45c1,.9,3.49,1,5.08,1H38Z"/><path class="cls-1" d="M3,59.69l-1.11,2H.48l1.26-2.1A1.55,1.55,0,0,1,.86,59a1.68,1.68,0,0,1-.35-1.09A1.71,1.71,0,0,1,1,56.62a1.9,1.9,0,0,1,1.37-.49H5v5.52H3.83v-2Zm.87-2.52H2.57a.89.89,0,0,0-.61.2.75.75,0,0,0,0,1.08.89.89,0,0,0,.61.2H3.83Z"/><path class="cls-1" d="M6.9,61.65H5.7V56.13H8.32a1.87,1.87,0,0,1,1.37.5,1.85,1.85,0,0,1,0,2.55,1.86,1.86,0,0,1-1.37.5H6.9Zm0-3H8.16a.86.86,0,0,0,.59-.2.75.75,0,0,0,0-1.08.86.86,0,0,0-.59-.2H6.9Z"/><path class="cls-1" d="M14.48,60.61v1h-4V56.13h4v1H11.71v1.17h2.71v1H11.71v1.25Z"/><path class="cls-1" d="M21.06,56.13v5.52h-1.2V57.78l-1.58,3.87h-.52l-1.58-3.87v3.87H15V56.13h1.67L18,59.46l1.36-3.33Z"/><path class="cls-1" d="M22.8,56.13v1.55a.89.89,0,0,0,1,1,2.82,2.82,0,0,0,1.07-.18V56.13h1.19v5.52H24.89V59.53a4.18,4.18,0,0,1-1.21.18,2.09,2.09,0,0,1-1.55-.53,2,2,0,0,1-.53-1.5V56.13Z"/><path class="cls-1" d="M29.84,56.13,32,61.65H30.63l-.35-.94h-2.4l-.35.94H26.18l2.17-5.52Zm-1.62,3.55H30l-.87-2.37Z"/><path class="cls-1" d="M37.13,56.13v5.52h-1.2V59.33H33.28v2.32H32.09V56.13h1.19V58.3h2.64V56.13Z"/><path class="cls-1" d="M43.75,60.61V56.13h1.2v4.48h.51v2.05h-1.2v-1H37.81V56.13H39v4.48h1.78V56.13H42v4.48Z"/><path class="cls-1" d="M49.55,57.95l-2.67,3.7H45.73V56.13h1.19v3.56l2.59-3.56h1.23v5.52H49.55Z"/><path class="cls-1" d="M56.46,56.13v5.52h-1.2V59.33H52.62v2.32H51.43V56.13h1.19V58.3h2.64V56.13Z"/><path class="cls-1" d="M60.2,56.13l2.16,5.52H61l-.35-.94h-2.4l-.35.94H56.55l2.17-5.52Zm-1.62,3.55h1.75l-.87-2.37Z"/></g></g></g></svg>