<svg xmlns="http://www.w3.org/2000/svg" xmlns:xlink="http://www.w3.org/1999/xlink" viewBox="0 0 71.03 85.13"><defs><style>.cls-1{fill:url(#radial-gradient);}.cls-2{fill:#646464;}.cls-3{isolation:isolate;}.cls-4{fill:#5f5f5f;}.cls-5{clip-path:url(#clip-path);}.cls-6{clip-path:url(#clip-path-2);}.cls-7{clip-path:url(#clip-path-3);}.cls-8{clip-path:url(#clip-path-4);}.cls-9{clip-path:url(#clip-path-5);}.cls-10{clip-path:url(#clip-path-6);}.cls-11{clip-path:url(#clip-path-7);}.cls-12{fill:#202020;}.cls-13{fill:url(#linear-gradient);}.cls-14{mask:url(#mask);}.cls-15{fill:silver;opacity:0.7;}.cls-15,.cls-18{mix-blend-mode:screen;}.cls-16{fill:#bdbdbd;}.cls-16,.cls-19{mix-blend-mode:multiply;}.cls-17,.cls-18{opacity:0.93;}.cls-17{fill:url(#linear-gradient-2);}.cls-18{fill:#c7c7c7;}.cls-19{fill:gray;}</style><radialGradient id="radial-gradient" cx="86.04" cy="2173.52" r="44.81" gradientTransform="translate(-36.37 -1518.82) scale(0.7 0.7)" gradientUnits="userSpaceOnUse"><stop offset="0" stop-color="#fff"/><stop offset="1"/></radialGradient><clipPath id="clip-path"><path class="cls-2" d="M17,55.88l.48.24A4.33,4.33,0,0,1,13,60.29H4.1l-.48-.13h9.1A4.27,4.27,0,0,0,17,55.88Z"/></clipPath><clipPath id="clip-path-2"><path class="cls-2" d="M32.61,36.2l.48.24a4.27,4.27,0,0,1-4.27,4.27l-.48-.24a4.27,4.27,0,0,0,4.27-4.27Z"/></clipPath><clipPath id="clip-path-3"><path class="cls-2" d="M52.12.45l.48.24A4.26,4.26,0,0,1,55,4.51l-.48-.24A4.27,4.27,0,0,0,52.12.45Z"/></clipPath><clipPath id="clip-path-4"><path class="cls-2" d="M48.77,24.18l-.48-.24a4.3,4.3,0,0,0,1.92.46l.48.24A4.28,4.28,0,0,1,48.77,24.18Z"/></clipPath><clipPath id="clip-path-5"><path class="cls-2" d="M60.53,16.3l.48.24a4.24,4.24,0,0,1,1.11.8,4.28,4.28,0,0,1,1.25,3l-.48-.24a4.28,4.28,0,0,0-2.36-3.82Z"/></clipPath><clipPath id="clip-path-6"><path class="cls-2" d="M57.19,46.5l-.48-.24a4.28,4.28,0,0,0,1.91.45l.48.24A4.26,4.26,0,0,1,57.19,46.5Z"/></clipPath><clipPath id="clip-path-7"><path class="cls-2" d="M68.13,38.62l.48.24a4.25,4.25,0,0,1,1.1.79,4.32,4.32,0,0,1,1.25,3l-.48-.24a4.31,4.31,0,0,0-1.25-3A4.26,4.26,0,0,0,68.13,38.62Z"/></clipPath><linearGradient id="linear-gradient" x1="37.05" y1="60.4" x2="37.05" gradientUnits="userSpaceOnUse"><stop offset="0" stop-color="#363636"/><stop offset="0.12" stop-color="#5f5f5f"/><stop offset="0.33" stop-color="#898989"/><stop offset="0.68" stop-color="#666"/><stop offset="1" stop-color="#979797"/></linearGradient><mask id="mask" x="24.1" y="0" width="38.8" height="30.62" maskUnits="userSpaceOnUse"><path class="cls-1" d="M62.82,30.54H54.44V24.32H50.22A4.17,4.17,0,0,1,46,20.12V8.47H32.55V30.54H24.17V4.27A4.19,4.19,0,0,1,28.37.08H50.23a4.2,4.2,0,0,1,4.19,4.2V15.93h4.22a4.19,4.19,0,0,1,4.19,4.2V30.54Z"/></mask><linearGradient id="linear-gradient-2" x1="33.03" y1="60.39" x2="33.03" y2="28.28" gradientUnits="userSpaceOnUse"><stop offset="0" stop-color="#4b4b4b"/><stop offset="0.01" stop-color="#575757"/><stop offset="0.03" stop-color="#757575"/><stop offset="0.05" stop-color="#8d8d8d"/><stop offset="0.07" stop-color="#9e9e9e"/><stop offset="0.1" stop-color="#a8a8a8"/><stop offset="0.13" stop-color="#ababab"/><stop offset="0.31" stop-color="#d5d5d5"/><stop offset="0.49" stop-color="#b2b2b2"/><stop offset="0.73" stop-color="#616161"/><stop offset="1" stop-color="#373737"/></linearGradient></defs><title>Ресурс 10geos</title><g class="cls-3"><g id="Слой_2" data-name="Слой 2"><g id="Шар_61" data-name="Шар 61"><g id="knopka"><path class="cls-4" d="M58.27,8.48h0a2.11,2.11,0,0,1,1.5.62h0a2.11,2.11,0,0,1,.62,1.49h0a2.11,2.11,0,0,1-2.11,2.11h0a2.11,2.11,0,0,1-2.11-2.11h0a2.1,2.1,0,0,1,.62-1.49h0a2.11,2.11,0,0,1,1.5-.62Zm-.57,2.8v-1h.45V9.91H56.86v.33h.45v1Zm1.14-.64c-.09-.23-.22-.53-.32-.73H58v1.37h.36v-.83c.08.17.21.54.27.73H59c.07-.19.21-.54.3-.73v.83h.36V9.91h-.47c-.09.19-.22.5-.31.73ZM58.27,9h0a1.6,1.6,0,0,0-1.13.47h0a1.6,1.6,0,0,0-.47,1.13h0a1.6,1.6,0,0,0,1.6,1.6h0a1.6,1.6,0,0,0,1.6-1.6h0a1.59,1.59,0,0,0-.47-1.13h0A1.6,1.6,0,0,0,58.27,9Z"/><polygon class="cls-2" points="16.99 40.47 17.47 40.71 17.47 56.12 16.99 55.88 16.99 40.47"/><g class="cls-3"><path class="cls-2" d="M17,55.88l.48.24A4.33,4.33,0,0,1,13,60.29H4.1l-.48-.13h9.1A4.27,4.27,0,0,0,17,55.88Z"/><g class="cls-5"><path class="cls-2" d="M3.62,60.16h9.1A4.27,4.27,0,0,0,17,55.88"/><line class="cls-2" x1="16.99" y1="55.88" x2="17.47" y2="56.11"/></g></g><polygon class="cls-2" points="28.35 40.47 28.82 40.71 17.47 40.71 16.99 40.47 28.35 40.47"/><polygon class="cls-2" points="45.95 8.55 46.43 8.79 33.09 8.79 32.62 8.55 45.95 8.55"/><polygon class="cls-2" points="32.62 8.55 33.09 8.79 33.09 36.44 32.61 36.2 32.62 8.55"/><g class="cls-3"><path class="cls-2" d="M32.61,36.2l.48.24a4.27,4.27,0,0,1-4.27,4.27l-.48-.24a4.27,4.27,0,0,0,4.27-4.27Z"/><g class="cls-6"><path class="cls-2" d="M32.61,36.2l.48.24a4.27,4.27,0,0,1-4.27,4.27l-.48-.24a4.27,4.27,0,0,0,4.27-4.27"/></g></g><g class="cls-3"><path class="cls-2" d="M52.12.45l.48.24A4.26,4.26,0,0,1,55,4.51l-.48-.24A4.27,4.27,0,0,0,52.12.45Z"/><g class="cls-7"><path class="cls-2" d="M52.12.45l.48.24A4.26,4.26,0,0,1,55,4.51l-.48-.24A4.27,4.27,0,0,0,52.12.45"/></g></g><g class="cls-3"><path class="cls-2" d="M48.77,24.18l-.48-.24a4.3,4.3,0,0,0,1.92.46l.48.24A4.28,4.28,0,0,1,48.77,24.18Z"/><g class="cls-8"><path class="cls-2" d="M50.21,24.4l.48.24a4.28,4.28,0,0,1-1.92-.46l-.48-.24a4.3,4.3,0,0,0,1.92.46"/></g></g><polygon class="cls-2" points="54.48 4.27 54.96 4.51 54.95 16.09 54.48 15.85 54.48 4.27"/><polygon class="cls-2" points="54.35 24.4 54.83 24.64 50.69 24.64 50.21 24.4 54.35 24.4"/><g class="cls-3"><path class="cls-2" d="M60.53,16.3l.48.24a4.24,4.24,0,0,1,1.11.8,4.28,4.28,0,0,1,1.25,3l-.48-.24a4.28,4.28,0,0,0-2.36-3.82Z"/><g class="cls-9"><path class="cls-2" d="M60.53,16.3l.48.24a4.24,4.24,0,0,1,1.11.8,4.28,4.28,0,0,1,1.25,3l-.48-.24a4.28,4.28,0,0,0-2.36-3.82"/></g></g><polygon class="cls-2" points="62.88 20.12 63.36 20.36 63.36 38.41 62.88 38.16 62.88 20.12"/><g class="cls-3"><path class="cls-2" d="M57.19,46.5l-.48-.24a4.28,4.28,0,0,0,1.91.45l.48.24A4.26,4.26,0,0,1,57.19,46.5Z"/><g class="cls-10"><path class="cls-2" d="M58.61,46.71l.48.24a4.26,4.26,0,0,1-1.91-.46l-.48-.24a4.28,4.28,0,0,0,1.91.45"/></g></g><polygon class="cls-2" points="61.69 46.71 62.17 46.95 59.09 46.95 58.62 46.71 61.69 46.71"/><g class="cls-3"><path class="cls-2" d="M68.13,38.62l.48.24a4.25,4.25,0,0,1,1.1.79,4.32,4.32,0,0,1,1.25,3l-.48-.24a4.31,4.31,0,0,0-1.25-3A4.26,4.26,0,0,0,68.13,38.62Z"/><g class="cls-11"><path class="cls-2" d="M68.13,38.62l.48.24a4.25,4.25,0,0,1,1.1.79,4.32,4.32,0,0,1,1.25,3l-.48-.24a4.31,4.31,0,0,0-1.25-3,4.26,4.26,0,0,0-1.1-.79"/></g></g><polygon class="cls-2" points="70.48 42.44 70.96 42.68 70.96 56.1 70.48 55.87 70.48 42.44"/><g class="cls-3"><path class="cls-2" d="M70.48,55.87l.48.24c0,2.36-2.43,4.31-4.79,4.31-1.15,0-7.13-.09-9-.09h-.43c1.9,0,7.84-.06,9-.06C68,60.27,70.48,58.23,70.48,55.87Z"/></g><path class="cls-12" d="M5.37,74.21l-.45,0C3.5,74.23,3,74,3,72.12s.52-2.06,2.08-2.06A10.49,10.49,0,0,1,7,70.25l.34-1.86a12.36,12.36,0,0,0-2.49-.27c-2.63,0-4.11.82-4.11,4s1.19,4.09,3.69,4.09a12.37,12.37,0,0,0,3.13-.41V71.15H4V73H5.37v1.23Zm23.16-5.89v1.86H24.74v1h2.73V73H24.74v1.2h3.79V76H22.63V68.31Zm18.09-.19c2.49,0,3.83.82,3.83,3.94s-1.34,4.12-3.83,4.12-3.84-.94-3.84-4.12,1.34-3.94,3.84-3.94Zm0,6.13c1.41,0,1.57-.2,1.57-2.16s-.16-2-1.57-2-1.58.15-1.58,2,.15,2.16,1.58,2.16Zm24.3-5.74a7.79,7.79,0,0,0-2.58-.39c-2.43,0-3.49.78-3.49,2.77,0,1.44.75,2,2.32,2.18s1.57.28,1.57.67-.18.51-1.26.51A9.26,9.26,0,0,1,65.33,74l-.42,1.81a8,8,0,0,0,2.61.39c2.57,0,3.52-.61,3.52-2.61,0-1.48-.77-2.16-2.51-2.38-1.27-.16-1.43-.24-1.43-.64s.15-.5,1.23-.5a9.56,9.56,0,0,1,2.19.24l.41-1.8Z"/><path class="cls-13" d="M50.21,0a4.28,4.28,0,0,1,4.26,4.28v11.6h4.14a4.28,4.28,0,0,1,4.26,4.28V38.25h3.34a4.27,4.27,0,0,1,4.26,4.28V56c0,2.37-2.43,4.42-4.79,4.42-1.15,0-7.08-.07-9-.07,5.06-.58,5-3.13,5-4.34V46.81H58.61a4.28,4.28,0,0,1-4.27-4.28V24.45H50.21a4.26,4.26,0,0,1-4.26-4.28V8.56H32.62V36.27a4.27,4.27,0,0,1-4.27,4.28H17V56a4.27,4.27,0,0,1-4.27,4.28H3.62c4-.43,4.84-3.34,4.84-4.29V36.27A4.28,4.28,0,0,1,12.73,32H24.08V4.28A4.27,4.27,0,0,1,28.35,0Z"/><g class="cls-14"><path class="cls-15" d="M32.62,30.62V8.55H46V20.12a4.25,4.25,0,0,0,4.26,4.27h4.14v6.22H62.9V20.12a4.28,4.28,0,0,0-4.26-4.27H54.49V4.27A4.27,4.27,0,0,0,50.23,0H28.36A4.27,4.27,0,0,0,24.1,4.27V30.62Z"/></g><path class="cls-16" d="M66.35,56.15a30.27,30.27,0,0,0-1.23-4.66L65,51.06a38.26,38.26,0,0,0-6.9-10.71,22.38,22.38,0,0,0-3.7-3.21v5.39a4.28,4.28,0,0,0,4.26,4.28H61.7V56a3.46,3.46,0,0,1-2.31,3.79,4.58,4.58,0,0,0,1.69.59l4.62,0A4.45,4.45,0,0,0,67,60.21C66.88,59.48,66.4,56.67,66.35,56.15ZM8.47,47.48V56A4.36,4.36,0,0,1,6.7,59.15a3.35,3.35,0,0,0,1.86,1.13h4.17a4.22,4.22,0,0,0,1.4-.24A24.33,24.33,0,0,1,17,50.1V40.56H28.35a4.27,4.27,0,0,0,4.27-4.28V32.05A32.1,32.1,0,0,0,14,40.35,27,27,0,0,0,8.47,47.48Z"/><path class="cls-17" d="M9,58.11a3.22,3.22,0,0,1-.27-1.19,6.67,6.67,0,0,1,.1-1.39A22.27,22.27,0,0,1,46.9,44,21.68,21.68,0,0,1,53,57.18c.12,1,.77,3.21,5,3.21h7.91c-5-1.46-4.19-4-4.53-5.89A31,31,0,0,0,30.77,28.28,31.1,31.1,0,0,0,8.44,37.78,30.48,30.48,0,0,0,.28,53.62c-.4,2.14-.41,6.67,3.95,6.67H13A4.29,4.29,0,0,1,9,58.11Z"/><path class="cls-18" d="M53,57.18A21.68,21.68,0,0,0,46.9,44a22.31,22.31,0,0,0-16.13-6.92h-.06A22.31,22.31,0,0,1,46.78,44a21.68,21.68,0,0,1,6.11,13.2c.12,1,.77,3.21,5,3.21H58C53.78,60.39,53.13,58.23,53,57.18ZM8.32,37.78A30.49,30.49,0,0,0,.17,53.62c-.4,2.14-.41,6.67,3.95,6.67h.12c-4.35,0-4.35-4.53-3.94-6.67A30.48,30.48,0,0,1,8.44,37.78a31.11,31.11,0,0,1,22.27-9.49h-.06A31.1,31.1,0,0,0,8.32,37.78Z"/><path class="cls-19" d="M14.71,44A22.27,22.27,0,0,0,8.83,55.53a6.77,6.77,0,0,0-.1,1.39A3.18,3.18,0,0,0,9,58.11,4.29,4.29,0,0,0,13,60.29h.28a4.29,4.29,0,0,1-4.06-2.18A3.23,3.23,0,0,1,9,56.92a6.67,6.67,0,0,1,.1-1.39,22.58,22.58,0,0,1,21.8-18.46h-.14A22.22,22.22,0,0,0,14.71,44Zm47,10.46A31,31,0,0,0,31.05,28.28h-.14A31,31,0,0,1,61.41,54.5c.34,1.91-.49,4.43,4.53,5.89h.28C61.21,58.93,62,56.41,61.7,54.5Z"/><path class="cls-12" d="M3.28,82.52a1.89,1.89,0,0,1-.11.64,1.39,1.39,0,0,1-.3.5,1.34,1.34,0,0,1-.46.32,1.57,1.57,0,0,1-.6.11A1.58,1.58,0,0,1,1.18,84a1,1,0,0,1-.43-.34,1.5,1.5,0,0,1-.25-.58,3.77,3.77,0,0,1-.08-.82,5.45,5.45,0,0,1,0-.64A3.67,3.67,0,0,1,.56,81a2.13,2.13,0,0,1,.17-.44,1.43,1.43,0,0,1,.21-.3,1.37,1.37,0,0,1,.21-.18L1.37,80l.27-.09L2,79.84l1-.14H3a.07.07,0,0,1,.05,0,.27.27,0,0,1,0,.1s0,.11,0,.19a1.44,1.44,0,0,1,0,.15.43.43,0,0,1,0,.11.17.17,0,0,1-.05.07l-.08,0-.9.14-.22,0-.17.05-.13.07-.11.09a.56.56,0,0,0-.1.13,1,1,0,0,0-.07.18,2,2,0,0,0-.05.21l0,.24a1.24,1.24,0,0,1,.19-.16,1.22,1.22,0,0,1,.22-.12l.25-.08a1.27,1.27,0,0,1,.27,0,1.33,1.33,0,0,1,.52.09A.94.94,0,0,1,3,81.5a1.18,1.18,0,0,1,.22.44A2.18,2.18,0,0,1,3.28,82.52Zm-.78,0a1.55,1.55,0,0,0,0-.32.77.77,0,0,0-.1-.25.49.49,0,0,0-.18-.17.54.54,0,0,0-.27-.06l-.19,0-.17.08L1.39,82l-.18.17s0,.05,0,.08v.09a3.28,3.28,0,0,0,0,.5,1.16,1.16,0,0,0,.11.35.49.49,0,0,0,.2.21.61.61,0,0,0,.3.07.63.63,0,0,0,.28-.06.54.54,0,0,0,.2-.18.82.82,0,0,0,.13-.28A1.52,1.52,0,0,0,2.5,82.56Z"/><path class="cls-12" d="M6.17,84l-.33,1a.2.2,0,0,1-.15.11,1.44,1.44,0,0,1-.36,0h-.2l-.11,0A.08.08,0,0,1,5,85a.18.18,0,0,1,0-.09L5.37,84,5.29,84a.24.24,0,0,1,0-.08L4.3,81.37a.53.53,0,0,1,0-.16.11.11,0,0,1,0-.09.24.24,0,0,1,.12,0h.44l.12,0a.13.13,0,0,1,.06.06.66.66,0,0,1,0,.11l.64,1.83h0l.59-1.87a.21.21,0,0,1,0-.11.19.19,0,0,1,.1,0h.45a.25.25,0,0,1,.13,0,.11.11,0,0,1,0,.09.45.45,0,0,1,0,.13Z"/><path class="cls-12" d="M8.43,84.91a.07.07,0,0,1,0,0l-.06,0-.1,0H7.94l-.1,0-.06,0a.07.07,0,0,1,0,0V83.54a.18.18,0,0,1,0-.12.16.16,0,0,1,.12,0h.15a1.91,1.91,0,0,0,.18-.29,2.43,2.43,0,0,0,.16-.4,4.93,4.93,0,0,0,.14-.58c0-.22.08-.49.12-.8a.52.52,0,0,1,0-.1.21.21,0,0,1,0-.07l.06,0,.09,0h1.69a.2.2,0,0,1,.16.06.28.28,0,0,1,.05.19v2.06h.31a.13.13,0,0,1,.15.16v1.37a.07.07,0,0,1,0,0l-.06,0-.1,0h-.32l-.1,0-.06,0a.07.07,0,0,1,0,0V84H8.43ZM10,81.69H9.35c0,.26-.07.48-.11.66a4.88,4.88,0,0,1-.13.48,1.71,1.71,0,0,1-.14.33l-.15.23H10Z"/><path class="cls-12" d="M13.31,80.25a.43.43,0,0,1-.1.32.75.75,0,0,1-.7,0,.42.42,0,0,1-.09-.31.44.44,0,0,1,.09-.32.74.74,0,0,1,.7,0A.42.42,0,0,1,13.31,80.25Zm-.06,3.66a.09.09,0,0,1,0,.05l-.06,0-.12,0h-.37l-.12,0-.06,0a.09.09,0,0,1,0-.05V81.19a.09.09,0,0,1,0-.05l.06,0,.12,0h.37l.12,0,.06,0a.08.08,0,0,1,0,.05Z"/><path class="cls-12" d="M17.29,83.11a.93.93,0,0,1-.09.41.76.76,0,0,1-.26.3,1.33,1.33,0,0,1-.44.18,2.82,2.82,0,0,1-.63.06h-.62L15,84a.29.29,0,0,1-.21-.09.33.33,0,0,1-.06-.22V81.36a.33.33,0,0,1,.06-.21.26.26,0,0,1,.18-.09h.89a3,3,0,0,1,.57,0,1.21,1.21,0,0,1,.39.14.62.62,0,0,1,.23.23.65.65,0,0,1,.08.32.64.64,0,0,1-.13.41.67.67,0,0,1-.38.22.8.8,0,0,1,.48.24A.67.67,0,0,1,17.29,83.11Zm-.85-1.21a.35.35,0,0,0,0-.15.26.26,0,0,0-.09-.11.49.49,0,0,0-.17-.07l-.26,0h-.22l-.18,0v.69h.41a.69.69,0,0,0,.4-.09A.31.31,0,0,0,16.44,81.9Zm.08,1.2a.43.43,0,0,0,0-.17.28.28,0,0,0-.11-.12.54.54,0,0,0-.2-.07l-.29,0h-.4v.78h.42a1.17,1.17,0,0,0,.28,0,.53.53,0,0,0,.19-.08.33.33,0,0,0,.11-.13A.43.43,0,0,0,16.52,83.11Z"/><path class="cls-12" d="M21.16,82.47a.3.3,0,0,1-.06.21.23.23,0,0,1-.17.07H19.26a1.13,1.13,0,0,0,0,.32.59.59,0,0,0,.13.24.58.58,0,0,0,.23.15,1,1,0,0,0,.34.05,1.94,1.94,0,0,0,.36,0l.27-.06.18-.06.12,0h0l0,0a.26.26,0,0,1,0,.08s0,.08,0,.13,0,.08,0,.11,0,.06,0,.08a.18.18,0,0,1,0,.06l0,0-.11.06-.23.07-.32.06-.38,0a2,2,0,0,1-.64-.09,1.14,1.14,0,0,1-.46-.28,1.15,1.15,0,0,1-.27-.47,2.2,2.2,0,0,1-.09-.67,2.1,2.1,0,0,1,.09-.66,1.39,1.39,0,0,1,.28-.5,1.19,1.19,0,0,1,.44-.31,1.7,1.7,0,0,1,1.17,0,1.05,1.05,0,0,1,.4.28,1.12,1.12,0,0,1,.23.42,1.86,1.86,0,0,1,.07.53Zm-.75-.22a.79.79,0,0,0-.13-.51.5.5,0,0,0-.43-.19.56.56,0,0,0-.26.06.52.52,0,0,0-.18.15.66.66,0,0,0-.11.22,1.1,1.1,0,0,0,0,.27Z"/><path class="cls-12" d="M25,83.91A.08.08,0,0,1,25,84l-.06,0-.12,0H24.4l-.12,0-.06,0a.1.1,0,0,1,0-.05V81.7h-.56c0,.32-.07.6-.12.85a4.53,4.53,0,0,1-.17.63,2.08,2.08,0,0,1-.21.44,1.07,1.07,0,0,1-.25.27.89.89,0,0,1-.3.14,1.33,1.33,0,0,1-.34,0h-.07a.09.09,0,0,1,0,0,.33.33,0,0,1,0-.1,1.65,1.65,0,0,1,0-.18c0-.08,0-.14,0-.18a.51.51,0,0,1,0-.11.08.08,0,0,1,0-.05h.05a.37.37,0,0,0,.31-.16,1.09,1.09,0,0,0,.13-.24,2.38,2.38,0,0,0,.11-.37c0-.15.07-.33.1-.54s.06-.45.09-.73a.34.34,0,0,1,.05-.19.18.18,0,0,1,.15-.06h1.58a.2.2,0,0,1,.16.06.28.28,0,0,1,.05.19Z"/><path class="cls-12" d="M29.1,83a1.07,1.07,0,0,1-.09.44.88.88,0,0,1-.28.34,1.37,1.37,0,0,1-.47.22,2.52,2.52,0,0,1-.67.08H27l-.19,0a.32.32,0,0,1-.21-.09.32.32,0,0,1-.07-.22V81.18a.09.09,0,0,1,0-.05l.06,0,.12,0h.37l.12,0,.06,0a.08.08,0,0,1,0,.05V82l.23,0h.25a2.31,2.31,0,0,1,.6.07,1.16,1.16,0,0,1,.42.2.82.82,0,0,1,.25.31A1,1,0,0,1,29.1,83Zm-.81,0a.51.51,0,0,0,0-.19.36.36,0,0,0-.11-.14.52.52,0,0,0-.19-.09,1.15,1.15,0,0,0-.29,0h-.39v.88l.19,0h.21a.72.72,0,0,0,.46-.12A.42.42,0,0,0,28.28,83Z"/><path class="cls-12" d="M33,83.91A.08.08,0,0,1,33,84l-.06,0-.12,0h-.37l-.12,0-.06,0a.08.08,0,0,1,0-.05V82.84H31.13v1.08a.08.08,0,0,1,0,.05L31,84l-.12,0h-.37l-.12,0-.06,0a.09.09,0,0,1,0-.05V81.18a.08.08,0,0,1,0-.05l.06,0,.12,0h.37l.12,0,.06,0a.08.08,0,0,1,0,.05v1h1.11v-1a.08.08,0,0,1,0-.05l.06,0,.12,0h.37l.12,0,.06,0a.08.08,0,0,1,0,.05Z"/><path class="cls-12" d="M36.86,83.92a.08.08,0,0,1,0,.07l-.1,0h-.4l-.09,0a.09.09,0,0,1,0-.07v-.22a1.23,1.23,0,0,1-.38.28,1.12,1.12,0,0,1-.48.1A1.33,1.33,0,0,1,35,84a.89.89,0,0,1-.32-.17.76.76,0,0,1-.21-.28.93.93,0,0,1-.07-.39.87.87,0,0,1,.09-.42.77.77,0,0,1,.28-.29,1.38,1.38,0,0,1,.46-.17,3.31,3.31,0,0,1,.64-.06h.27V82.1a.9.9,0,0,0,0-.23.38.38,0,0,0-.09-.16.36.36,0,0,0-.16-.1.87.87,0,0,0-.25,0,1.24,1.24,0,0,0-.34,0l-.27.09-.2.09a.28.28,0,0,1-.13,0l-.06,0a.15.15,0,0,1,0-.06.41.41,0,0,1,0-.1.78.78,0,0,1,0-.13.56.56,0,0,1,0-.15.23.23,0,0,1,.06-.1.58.58,0,0,1,.15-.1l.25-.1.31-.08a2,2,0,0,1,.35,0,2.1,2.1,0,0,1,.55.06.92.92,0,0,1,.38.19.76.76,0,0,1,.21.34,1.58,1.58,0,0,1,.07.49Zm-.76-1.17h-.29a1.63,1.63,0,0,0-.32,0,.62.62,0,0,0-.21.08.34.34,0,0,0-.12.13.39.39,0,0,0,0,.18.34.34,0,0,0,.11.27.44.44,0,0,0,.3.1.57.57,0,0,0,.3-.08,1.3,1.3,0,0,0,.28-.24Z"/><path class="cls-12" d="M43.13,83.94a.06.06,0,0,1,0,0l-.06,0-.12,0h-.4l-.13,0-.07,0a.13.13,0,0,1,0-.05L42,83.28a1.26,1.26,0,0,0-.1-.22.55.55,0,0,0-.12-.14.39.39,0,0,0-.15-.08l-.19,0h-.16v1.12a.06.06,0,0,1,0,0l-.07,0-.12,0h-.36l-.12,0-.07,0a.06.06,0,0,1,0,0V81.16a.06.06,0,0,1,0,0l.07,0,.12,0h.36l.12,0,.07,0a.06.06,0,0,1,0,0v1.06h.16l.17,0a.38.38,0,0,0,.14-.08.58.58,0,0,0,.12-.14,1.43,1.43,0,0,0,.1-.22l.23-.59,0-.05.07,0,.12,0h.39l.11,0,.06,0a.06.06,0,0,1,0,0,.3.3,0,0,1,0,.07l0,.12-.22.52a1.55,1.55,0,0,1-.14.26,1,1,0,0,1-.15.18l-.15.11-.15.07h0l.18.09a.76.76,0,0,1,.16.12,1,1,0,0,1,.14.18,2.09,2.09,0,0,1,.14.26l.27.61,0,.07,0,.05v0A.18.18,0,0,1,43.13,83.94Z"/><path class="cls-12" d="M47.07,82.52a2.08,2.08,0,0,1-.09.64,1.33,1.33,0,0,1-.28.5,1.22,1.22,0,0,1-.47.32,1.76,1.76,0,0,1-.66.11,1.8,1.8,0,0,1-.63-.1,1.14,1.14,0,0,1-.45-.29,1.22,1.22,0,0,1-.26-.48,2.23,2.23,0,0,1-.09-.64,2.08,2.08,0,0,1,.09-.64,1.36,1.36,0,0,1,.28-.5,1.24,1.24,0,0,1,.47-.32,1.74,1.74,0,0,1,.66-.11,1.83,1.83,0,0,1,.64.1,1.1,1.1,0,0,1,.45.29,1.2,1.2,0,0,1,.26.48A2.21,2.21,0,0,1,47.07,82.52Zm-.79,0a2,2,0,0,0,0-.37.88.88,0,0,0-.11-.3.54.54,0,0,0-.2-.2.65.65,0,0,0-.32-.07.69.69,0,0,0-.3.06.54.54,0,0,0-.21.18.87.87,0,0,0-.12.29,1.64,1.64,0,0,0,0,.39,1.94,1.94,0,0,0,0,.37.92.92,0,0,0,.11.3.52.52,0,0,0,.2.19.67.67,0,0,0,.32.07.69.69,0,0,0,.3-.06.55.55,0,0,0,.21-.18.83.83,0,0,0,.12-.29A1.69,1.69,0,0,0,46.28,82.55Z"/><path class="cls-12" d="M52.29,83.9a.1.1,0,0,1-.07.11A.83.83,0,0,1,52,84h-.19l-.11,0-.05,0a.13.13,0,0,1,0-.06l-.16-1.47c0-.05,0-.11,0-.18l0-.2v-.2c0-.07,0-.13,0-.18v-.08l0,.18-.06.2-.06.2-.05.18-.48,1.51,0,.06-.07,0-.11,0h-.33L50,84l-.07,0a.14.14,0,0,1,0-.07l-.47-1.51-.05-.18-.06-.2-.06-.2,0-.18v.08c0,.05,0,.11,0,.18s0,.13,0,.2l0,.2c0,.07,0,.12,0,.18L49,83.91A.18.18,0,0,1,49,84a.11.11,0,0,1-.06,0l-.12,0h-.36l-.1,0a.08.08,0,0,1,0,0,.14.14,0,0,1,0-.07l.27-2.56a.31.31,0,0,1,.09-.2.3.3,0,0,1,.21-.07h.39l.21,0a.41.41,0,0,1,.15.06.38.38,0,0,1,.11.13,1,1,0,0,1,.08.2l.31.94.06.19.05.2.05.19,0,.18h0l0-.18.05-.2.06-.2.06-.18.31-.93a1.1,1.1,0,0,1,.07-.19.35.35,0,0,1,.09-.13.39.39,0,0,1,.14-.07l.21,0h.39a.32.32,0,0,1,.22.07.29.29,0,0,1,.08.2Z"/><path class="cls-12" d="M56.25,83.91a.08.08,0,0,1,0,.05l-.06,0L56,84h-.37l-.12,0-.06,0a.1.1,0,0,1,0-.05v-2.2h-1v2.2a.08.08,0,0,1,0,.05l-.06,0-.12,0h-.37l-.12,0-.06,0a.1.1,0,0,1,0-.05V81.32a.28.28,0,0,1,.05-.19.2.2,0,0,1,.16-.06H56a.19.19,0,0,1,.16.06.28.28,0,0,1,.05.19Z"/><path class="cls-12" d="M60.11,83.92a.08.08,0,0,1,0,.07L60,84h-.39l-.09,0a.09.09,0,0,1,0-.07v-.22a1.23,1.23,0,0,1-.38.28,1.12,1.12,0,0,1-.48.1,1.33,1.33,0,0,1-.4-.06.91.91,0,0,1-.32-.17.76.76,0,0,1-.21-.28.94.94,0,0,1-.07-.39.87.87,0,0,1,.09-.42.76.76,0,0,1,.28-.29,1.39,1.39,0,0,1,.46-.17,3.31,3.31,0,0,1,.64-.06h.27V82.1a.93.93,0,0,0,0-.23.39.39,0,0,0-.09-.16.37.37,0,0,0-.16-.1.88.88,0,0,0-.25,0,1.23,1.23,0,0,0-.34,0l-.27.09-.19.09a.28.28,0,0,1-.13,0l-.06,0a.16.16,0,0,1,0-.06.38.38,0,0,1,0-.1.84.84,0,0,1,0-.13.54.54,0,0,1,0-.15.23.23,0,0,1,.06-.1.57.57,0,0,1,.15-.1l.25-.1.31-.08a2,2,0,0,1,.35,0,2.1,2.1,0,0,1,.55.06.92.92,0,0,1,.37.19.74.74,0,0,1,.21.34,1.57,1.57,0,0,1,.07.49Zm-.76-1.17h-.29a1.64,1.64,0,0,0-.32,0,.63.63,0,0,0-.21.08.34.34,0,0,0-.12.13.4.4,0,0,0,0,.18.34.34,0,0,0,.11.27.44.44,0,0,0,.3.1.57.57,0,0,0,.3-.08,1.25,1.25,0,0,0,.28-.24Z"/><path class="cls-12" d="M64.28,83.91a.09.09,0,0,1,0,.05l-.06,0-.12,0h-.37l-.12,0-.06,0a.08.08,0,0,1,0-.05V82.84H62.4v1.08a.08.08,0,0,1,0,.05l-.06,0-.12,0h-.37l-.12,0-.06,0a.09.09,0,0,1,0-.05V81.18a.08.08,0,0,1,0-.05l.06,0,.12,0h.37l.12,0,.06,0a.08.08,0,0,1,0,.05v1h1.11v-1a.08.08,0,0,1,0-.05l.06,0,.12,0h.37l.12,0,.06,0a.08.08,0,0,1,0,.05Z"/><path class="cls-12" d="M66.64,80.25a.43.43,0,0,1-.1.32.75.75,0,0,1-.7,0,.42.42,0,0,1-.09-.31.44.44,0,0,1,.09-.32.74.74,0,0,1,.7,0A.42.42,0,0,1,66.64,80.25Zm-.06,3.66a.09.09,0,0,1,0,.05l-.06,0-.12,0H66l-.12,0-.06,0a.09.09,0,0,1,0-.05V81.19a.09.09,0,0,1,0-.05l.06,0,.12,0h.37l.12,0,.06,0a.09.09,0,0,1,0,.05Z"/><path class="cls-12" d="M70.45,83.91a.11.11,0,0,1,0,.06l-.06,0-.12,0h-.38l-.12,0-.06,0a.1.1,0,0,1,0-.06v-1h-.2a.8.8,0,0,0-.22,0,.4.4,0,0,0-.15.09.66.66,0,0,0-.13.17,2,2,0,0,0-.12.26l-.18.47a.24.24,0,0,1,0,.08l-.08,0-.13,0h-.5l-.07,0a.07.07,0,0,1,0-.05.29.29,0,0,1,0-.1l.09-.2.19-.43a1.13,1.13,0,0,1,.2-.32.75.75,0,0,1,.27-.19.87.87,0,0,1-.45-.25A.68.68,0,0,1,68,82a.85.85,0,0,1,.09-.39.79.79,0,0,1,.26-.29,1.32,1.32,0,0,1,.43-.18,2.45,2.45,0,0,1,.6-.06H70l.2,0a.19.19,0,0,1,.15.07.25.25,0,0,1,0,.16Zm-.76-2.32-.18,0h-.17a1,1,0,0,0-.27,0,.5.5,0,0,0-.18.09.33.33,0,0,0-.1.13.46.46,0,0,0,0,.17.43.43,0,0,0,0,.17.3.3,0,0,0,.1.13.5.5,0,0,0,.17.08,1.27,1.27,0,0,0,.28,0h.33Z"/></g></g></g></g></svg>