<svg xmlns="http://www.w3.org/2000/svg" viewBox="0 0 137.21 32.01"><defs><style>.cls-1{fill:#575757;}.cls-2,.cls-3{fill-rule:evenodd;}.cls-3{fill:#494949;}</style></defs><title>Ресурс 1ecomed</title><g id="Слой_2" data-name="Слой 2"><g id="Шар_61" data-name="Шар 61"><g id="knopka"><path class="cls-1" d="M24.95,21.46h2.51l1.9,5.33,1.91-5.33h2.5V29.1H32.05v-5l-1.87,5H28.46l-1.78-5v5H24.95V21.46Zm15.28,5.21,2,.34A3.31,3.31,0,0,1,41,28.69a3.59,3.59,0,0,1-2.1.58A3.42,3.42,0,0,1,36,28a4.38,4.38,0,0,1-.76-2.64,4.22,4.22,0,0,1,1-3,3.27,3.27,0,0,1,2.51-1.08,3.4,3.4,0,0,1,2.69,1.13,5,5,0,0,1,.94,3.45H37.28a2,2,0,0,0,.49,1.4,1.53,1.53,0,0,0,1.17.5,1.24,1.24,0,0,0,.8-.26,1.59,1.59,0,0,0,.49-.84Zm.12-2a2,2,0,0,0-.45-1.34,1.46,1.46,0,0,0-2.15,0,1.86,1.86,0,0,0-.43,1.31Zm10,4.48H44.54v2H42.89V27.45h.83a4.48,4.48,0,0,0,.86-1.8,19.29,19.29,0,0,0,.4-4.19h6.17v6H52v3.67H50.33v-2Zm-1.17-1.66V23.12H46.71q-.12,3.17-1,4.33Zm4.16-6h1.94v4.8l3.11-4.8h2V29.1H58.41V24.21L55.26,29.1H53.32V21.46Zm8.88,0h2v1.83a2.92,2.92,0,0,0,.11.93,1.05,1.05,0,0,0,.48.53,1.73,1.73,0,0,0,.92.22A3.59,3.59,0,0,0,67,24.72V21.46h2V29.1H67V26a7.61,7.61,0,0,1-1.8.32,3.46,3.46,0,0,1-1.67-.4,2.18,2.18,0,0,1-1-1,4.2,4.2,0,0,1-.27-1.66V21.46Zm8.72,0h2v2.8h2.89v-2.8h2V29.1h-2V25.89H72.94V29.1h-2V21.46Zm9-1V18.55h2v1.87Zm0,8.68V21.46h2V29.1Zm7.29-7.65h6.92v1.63H91.66v6h-2v-6H87.19V21.46Zm7.47,3.71a4.16,4.16,0,0,1,.5-2,3.41,3.41,0,0,1,1.41-1.44,4.17,4.17,0,0,1,2-.5,3.82,3.82,0,0,1,2.84,1.13,3.89,3.89,0,0,1,1.11,2.85,4,4,0,0,1-1.12,2.88,3.78,3.78,0,0,1-2.82,1.14,4.43,4.43,0,0,1-2-.47,3.27,3.27,0,0,1-1.45-1.39,4.66,4.66,0,0,1-.5-2.24Zm2.07.11A2.53,2.53,0,0,0,97.27,27a1.76,1.76,0,0,0,2.66,0,2.56,2.56,0,0,0,.54-1.76,2.52,2.52,0,0,0-.54-1.73,1.76,1.76,0,0,0-2.66,0,2.53,2.53,0,0,0-.54,1.74Zm7.42-3.82h4.43a3.43,3.43,0,0,1,2,.5,1.74,1.74,0,0,1,.68,1.5A1.8,1.8,0,0,1,110,25.2a2,2,0,0,1,1.18.73,2,2,0,0,1,.39,1.17,1.82,1.82,0,0,1-.65,1.45,2.93,2.93,0,0,1-1.94.56h-4.82V21.46Zm2,3.18h1.3a2.93,2.93,0,0,0,1.36-.24.8.8,0,0,0,.42-.75.71.71,0,0,0-.39-.69,3.29,3.29,0,0,0-1.39-.21h-1.3v1.88Zm0,3.18h1.6a2.88,2.88,0,0,0,1.26-.21.9.9,0,0,0-.06-1.52,4.79,4.79,0,0,0-1.76-.21h-1v1.94Zm8.32-4-1.84-.33a2.86,2.86,0,0,1,1.06-1.64,3.92,3.92,0,0,1,2.25-.53,4.84,4.84,0,0,1,2,.32,2,2,0,0,1,.93.81,4.18,4.18,0,0,1,.27,1.81l0,2.36a8,8,0,0,0,.1,1.49,4.34,4.34,0,0,0,.36,1h-2c-.05-.14-.12-.33-.19-.6s-.06-.2-.07-.24a3.68,3.68,0,0,1-1.11.76,3.19,3.19,0,0,1-1.26.25,2.61,2.61,0,0,1-1.86-.64,2.13,2.13,0,0,1-.68-1.62,2.18,2.18,0,0,1,.31-1.16,2,2,0,0,1,.87-.78,6.84,6.84,0,0,1,1.61-.47,11.07,11.07,0,0,0,2-.5v-.2a1.05,1.05,0,0,0-.29-.83,1.73,1.73,0,0,0-1.09-.25A1.44,1.44,0,0,0,115,23a1.47,1.47,0,0,0-.49.74Zm2.71,1.64a12.69,12.69,0,0,1-1.23.31,3.83,3.83,0,0,0-1.1.35.85.85,0,0,0-.4.71,1,1,0,0,0,.32.73,1.1,1.1,0,0,0,.81.31,1.76,1.76,0,0,0,1-.36,1.25,1.25,0,0,0,.48-.67,3.93,3.93,0,0,0,.08-1v-.4Zm3.93-4H123v1.12a2.78,2.78,0,0,1,1-.94,2.74,2.74,0,0,1,1.39-.36,2.91,2.91,0,0,1,2.26,1,4.23,4.23,0,0,1,.93,2.91,4.36,4.36,0,0,1-.93,3,2.92,2.92,0,0,1-2.27,1.06,2.6,2.6,0,0,1-1.15-.25,4,4,0,0,1-1.08-.87V32h-2V21.46Zm2,3.69a2.93,2.93,0,0,0,.51,1.9,1.56,1.56,0,0,0,1.25.62,1.46,1.46,0,0,0,1.17-.57,2.91,2.91,0,0,0,.47-1.85,2.76,2.76,0,0,0-.48-1.79,1.49,1.49,0,0,0-1.19-.58,1.55,1.55,0,0,0-1.23.57,2.54,2.54,0,0,0-.49,1.7Zm7-3.69h1.94v4.8l3.11-4.8h2V29.1h-1.94V24.21l-3.15,4.89h-1.94V21.46Z"/><path class="cls-2" d="M124.07,4.29h4.64V14.86H122a15.91,15.91,0,0,0,2.06-8.51V4.29Zm-8.24,13.92h21.38V14.86h-4.38V.94H120.2V6.09c0,2.31-1.44,8.77-3.09,8.77h-1.29v3.35Z"/><polygon class="cls-2" points="105.26 4.29 115.05 4.29 115.05 0.94 101.4 0.94 101.4 18.21 115.31 18.21 115.31 14.86 105.52 14.86 105.52 10.99 113.76 10.99 113.76 7.9 105.26 7.9 105.26 4.29 105.26 4.29"/><polygon class="cls-2" points="81.82 6.09 86.39 18.19 88.64 18.21 93.41 6.09 93.41 18.21 97.53 18.21 97.53 0.94 92.38 0.94 87.61 12.54 83.56 0.96 77.69 0.94 77.69 18.21 81.82 18.21 81.82 6.09 81.82 6.09"/><path class="cls-2" d="M61.72,8.41c0-2.46,1.61-4.64,4.12-4.64a4.58,4.58,0,0,1,4.64,4.9v1.8c0,2.51-1.76,4.9-4.38,4.9a4.3,4.3,0,0,1-4.38-4.64V8.41Zm5.15,10.31a8.23,8.23,0,0,0,8-8.51V9.45c0-5.45-3.25-9-8.76-9-4.93,0-8.76,3.38-8.76,8v2.32a8.19,8.19,0,0,0,8.24,8Z"/><polygon class="cls-2" points="49.36 8.67 56.05 0.94 51.16 0.94 45.23 8.34 45.23 0.94 41.37 0.94 41.37 18.21 45.23 18.21 45.23 9.96 51.5 18.15 56.31 18.21 49.36 8.67 49.36 8.67"/><polygon class="cls-2" points="29 4.29 38.53 4.29 38.53 0.94 24.88 0.94 24.88 18.21 38.79 18.21 38.79 14.86 29 14.86 29 10.99 37.25 10.99 37.25 7.9 29 7.9 29 4.29 29 4.29"/><path class="cls-3" d="M3.63,15.49H0V3.63H3.63V0H15.49V3.63h3.63V15.49H15.49v3.63H3.63V15.49Zm8.8.57V12.43h3.63V6.7H12.43V3.06H6.7V6.7H3.06v5.73H6.7v3.63Z"/><path class="cls-3" d="M3.63,15.49H0V3.63H3.63V0H15.49V3.63h3.63V15.49H15.49v3.63H3.63V15.49Zm8.8.57V12.43h3.63V6.7H12.43V3.06H6.7V6.7H3.06v5.73H6.7v3.63Z"/></g></g></g></svg>