<svg xmlns="http://www.w3.org/2000/svg" viewBox="0 0 97.18 74.11"><defs><style>.cls-1{fill:#1d1d1b;}.cls-2{fill:none;stroke:#1d1d1b;stroke-miterlimit:10;stroke-width:2.3px;}</style></defs><title>Ресурс 21pri4ista</title><g id="Слой_2" data-name="Слой 2"><g id="Шар_61" data-name="Шар 61"><g id="knopka"><path class="cls-1" d="M24.32,54V64.52H23V55.18H18.11v9.34H16.76V54Z"/><path class="cls-1" d="M26.14,54.17a15.76,15.76,0,0,1,2.59-.2,4.3,4.3,0,0,1,2.94.87A2.81,2.81,0,0,1,32.59,57a3.09,3.09,0,0,1-.81,2.24,4.34,4.34,0,0,1-3.2,1.15,4.65,4.65,0,0,1-1.09-.09v4.19H26.14Zm1.35,5a4.49,4.49,0,0,0,1.12.11c1.63,0,2.62-.79,2.62-2.24S30.26,55,28.76,55a5.65,5.65,0,0,0-1.27.11Z"/><path class="cls-1" d="M35.13,54v4.41c0,1.66,0,3-.12,4.43l0,0c.53-1.09,1.18-2.22,1.94-3.46L40.36,54h1.35V64.52H40.44V60.06c0-1.69,0-2.93.12-4.26l0,0a31.9,31.9,0,0,1-1.94,3.53l-3.28,5.2H33.86V54Z"/><path class="cls-1" d="M44.71,54v3.33a2,2,0,0,0,2.22,2.24A4.12,4.12,0,0,0,49,59V54h1.37V64.52H49V60.07h0a5.06,5.06,0,0,1-2.52.65,2.83,2.83,0,0,1-3.09-3.15V54Z"/><path class="cls-1" d="M53.44,54v4.41c0,1.66,0,3-.12,4.43l0,0c.53-1.09,1.18-2.22,1.94-3.46L58.67,54H60V64.52H58.75V60.06c0-1.69,0-2.93.12-4.26l0,0a31.89,31.89,0,0,1-1.94,3.53l-3.28,5.2H52.17V54Z"/><path class="cls-1" d="M69.16,64.17a6.7,6.7,0,0,1-2.76.5,4.89,4.89,0,0,1-5.17-5.3,5.21,5.21,0,0,1,5.47-5.5,5.61,5.61,0,0,1,2.49.47l-.33,1.1A4.91,4.91,0,0,0,66.73,55c-2.45,0-4.09,1.57-4.09,4.32,0,2.56,1.48,4.21,4,4.21a5.41,5.41,0,0,0,2.21-.43Z"/><path class="cls-1" d="M72.83,55.2H69.65V54H77.4V55.2H74.2v9.32H72.83Z"/><path class="cls-1" d="M78.46,61.22l-1.09,3.29H76L79.53,54h1.63l3.57,10.47H83.29l-1.12-3.29Zm3.43-1.06-1-3c-.23-.68-.39-1.3-.54-1.91h0c-.16.62-.33,1.26-.53,1.9l-1,3Z"/><path class="cls-1" d="M17.71,67.85a9.56,9.56,0,0,1,1.43-.1c.75,0,2,.12,2,1.12a1.06,1.06,0,0,1-.94,1v0c.66.09,1.14.46,1.14,1.11,0,1.18-1.48,1.32-2.36,1.32-.5,0-1,0-1.26-.06Zm.77,3.89a4.85,4.85,0,0,0,.66,0c.55,0,1.36-.13,1.36-.78s-.65-.79-1.43-.79h-.59Zm0-2.07h.61c.6,0,1.22-.18,1.22-.7s-.39-.66-1.2-.66a5.89,5.89,0,0,0-.63,0Z"/><path class="cls-1" d="M22.94,66.54a.5.5,0,0,1-1,0,.5.5,0,0,1,.51-.51A.48.48,0,0,1,22.94,66.54ZM22,72.28V67.8h.82v4.48Z"/><path class="cls-1" d="M27.35,67.8v3.87h.46l0,2h-.64l0-1.43H24l0,1.43h-.64l0-2h.38a3.49,3.49,0,0,0,.44-.92A5.9,5.9,0,0,0,24.35,69V67.8Zm-2.27,1.36a6,6,0,0,1-.23,1.67,4.26,4.26,0,0,1-.36.83h2.07V68.42H25.08Z"/><path class="cls-1" d="M33.78,67.8v4.48H33V68.44H30.88v3.84h-.81V67.8Z"/><path class="cls-1" d="M34.78,69.26c0-.57,0-1,0-1.46h.73l0,.77h0a1.76,1.76,0,0,1,1.59-.87A2,2,0,0,1,39,70a2.12,2.12,0,0,1-2,2.41,1.57,1.57,0,0,1-1.38-.7h0v2.44h-.81Zm.81,1.19a1.86,1.86,0,0,0,0,.33,1.26,1.26,0,0,0,1.22,1c.86,0,1.36-.7,1.36-1.73s-.47-1.67-1.33-1.67a1.3,1.3,0,0,0-1.23,1,1.32,1.32,0,0,0-.06.33Z"/><path class="cls-1" d="M40.47,67.8v1.89c0,.71,0,1.16,0,1.8h0c.27-.55.43-.86.72-1.38l1.4-2.32h1v4.48h-.78v-1.9c0-.73,0-1.11.06-1.84h0c-.29.57-.48.94-.74,1.39-.43.69-.92,1.56-1.4,2.34H39.7V67.8Z"/><path class="cls-1" d="M44.52,69.26c0-.57,0-1,0-1.46h.73l0,.77h0a1.76,1.76,0,0,1,1.59-.87A2,2,0,0,1,48.77,70a2.12,2.12,0,0,1-2,2.41,1.57,1.57,0,0,1-1.38-.7h0v2.44h-.81Zm.81,1.19a1.82,1.82,0,0,0,0,.33,1.26,1.26,0,0,0,1.22,1C47.45,71.74,48,71,48,70s-.47-1.67-1.33-1.67a1.3,1.3,0,0,0-1.23,1,1.32,1.32,0,0,0-.06.33Z"/><path class="cls-1" d="M53.52,70a2.19,2.19,0,0,1-2.23,2.38,2.13,2.13,0,0,1-2.15-2.31,2.19,2.19,0,0,1,2.22-2.38A2.12,2.12,0,0,1,53.52,70ZM50,70c0,1,.56,1.72,1.36,1.72S52.69,71,52.69,70c0-.76-.38-1.72-1.34-1.72S50,69.19,50,70Z"/><path class="cls-1" d="M57.63,67.8v3.87h.46l0,2h-.64l0-1.43h-3.1l0,1.43h-.64l0-2h.38a3.49,3.49,0,0,0,.44-.92A5.9,5.9,0,0,0,54.64,69V67.8Zm-2.27,1.36a6,6,0,0,1-.23,1.67,4.27,4.27,0,0,1-.36.83h2.07V68.42H55.36Z"/><path class="cls-1" d="M59.49,67.8v1.89c0,.71,0,1.16,0,1.8h0c.27-.55.43-.86.72-1.38l1.4-2.32h1v4.48h-.78v-1.9c0-.73,0-1.11.06-1.84h0c-.29.57-.48.94-.74,1.39-.43.69-.92,1.56-1.4,2.34h-.94V67.8Z"/><path class="cls-1" d="M65.93,67.8v1.47c0,.56.21,1,.93,1a1.68,1.68,0,0,0,1-.31V67.8h.81v4.48h-.81v-1.8h0a2.36,2.36,0,0,1-1.21.34,1.33,1.33,0,0,1-1.47-1.46V67.8Z"/><path class="cls-1" d="M70.38,67.8v1.89c0,.71,0,1.16,0,1.8h0c.27-.55.43-.86.72-1.38l1.4-2.32h1v4.48h-.78v-1.9c0-.73,0-1.11.06-1.84h0c-.29.57-.48.94-.74,1.39-.43.69-.92,1.56-1.4,2.34h-.94V67.8Z"/><path class="cls-1" d="M77.63,72.11a3,3,0,0,1-1.29.26,2.13,2.13,0,0,1-2.23-2.29,2.28,2.28,0,0,1,2.41-2.38,2.75,2.75,0,0,1,1.13.23l-.19.63a1.89,1.89,0,0,0-.94-.21,1.69,1.69,0,0,0,0,3.37,2.31,2.31,0,0,0,1-.22Z"/><path class="cls-1" d="M81.43,67.8v.65H80v3.84h-.81V68.44h-1.4V67.8Z"/><path class="cls-1" d="M84.24,72.28l-.07-.56h0a1.67,1.67,0,0,1-1.37.67,1.28,1.28,0,0,1-1.37-1.29c0-1.08,1-1.68,2.7-1.67v-.09a.92.92,0,0,0-1-1,2.23,2.23,0,0,0-1.17.33l-.19-.54a2.78,2.78,0,0,1,1.47-.4c1.37,0,1.7.94,1.7,1.83V71.2A6.33,6.33,0,0,0,85,72.28Z"/><path class="cls-1" d="M50.37,5.15A33.7,33.7,0,0,0,16.63,38.6c0,3,.06,5.83,0,8.56a12.74,12.74,0,0,0,2.35.65c-.29-3,0-6.31,0-9.24,0-8.14,3.9-16,9.65-21.78A30.8,30.8,0,0,1,81.21,38.57c0,3.13.2,7.51.13,10.47.89.05,1.64-1.68,2.48-1.69.06-3.06,0-5.39,0-8.75A33.45,33.45,0,0,0,50.37,5.15Z"/><path class="cls-1" d="M55.62,47.68c0-1.3-1.47-2.79-1.76-4.63a62,62,0,0,1-.29-7.42,32,32,0,0,1,.73-7.57c.66-2.5-.37-.82-.37-.82s-.59,2.29-.88,3.54A30.63,30.63,0,0,0,52.31,36c-.07,1.84-.07,5.73-.07,7.2v4c0,.88,1.1,1.54,1.69,1.62S55.62,48.41,55.62,47.68Z"/><path class="cls-1" d="M43.28,47.16a17.49,17.49,0,0,0,2-3.89,38.21,38.21,0,0,0,.88-8.08c-.08-1.91.09-6.17,0-7.6s.8,1.95.8,3.2.29,2.42.37,4.33a33.9,33.9,0,0,1,0,6.69,26.47,26.47,0,0,1-1.56,5.36Z"/><path class="cls-1" d="M24.1,47.31c.07-2.79.16-5.72.16-8.72A25.66,25.66,0,0,1,50.42,13,25.2,25.2,0,0,1,68.55,20.4a25.94,25.94,0,0,1,8,18.2c0,3.23.11,5.72,0,8.77h2.61c.05-3.05,0-5.33,0-8.77,0-15.69-13.09-28.38-28.78-28.38S21.25,23.8,21.25,38.62c0,3.84,0,8,0,10.07A6.3,6.3,0,0,1,24.1,47.31Z"/><path class="cls-1" d="M38.72,29.83c1.69-.87,1.51-2.54,0-3.78-.84-.71-3.27-1.95-4.3-3a7.64,7.64,0,0,1-1-8.5A7.32,7.32,0,0,1,38.58,11a11.17,11.17,0,0,1,2.34-6.87A10.23,10.23,0,0,1,49.74,0c4,0,6.65,1.06,8.71,3.56A13,13,0,0,1,61,10.69c2,.56,5.18,3.85,4.88,7.31a9,9,0,0,1-2.79,6c-.73.74-1.76,2.64.37,3.93,0,2.24-2.64,3.41-4.55,3.41s-5-.88-6-2.13c-.88,2.13-2.2,3.89-3.16,3.89s-2.5-2.42-2.79-4.11c-.59,1.69-2.5,2.42-4.33,2.5A5.21,5.21,0,0,1,38.72,29.83ZM50.23,12.56c-2,2.72-4.68,6.1-4.46,8.59A4.83,4.83,0,0,0,50,25.49a4.78,4.78,0,0,0,4.33-4.41C54.3,18.51,50.94,13.86,50.23,12.56Z"/><path class="cls-2" d="M.81,48.12c1.3-1.3,2.79-1.17,4.26,0s2,1,3.12.11c.9-.72,2.42-1.52,3.83-.11s2.31.75,3.06,0a3,3,0,0,1,4,0,1.87,1.87,0,0,0,3,0,2.44,2.44,0,0,1,3.5.06,1.91,1.91,0,0,0,3,0,2.74,2.74,0,0,1,4,0c1.52,1.52,1.91.78,2.69,0a2.61,2.61,0,0,1,3.89,0c1.5,1.5,2,.86,2.84,0a2.48,2.48,0,0,1,3.92,0c1.65,1.65,2.25.74,3,0a2.4,2.4,0,0,1,3.65,0c1.46,1.46,2,1.05,3,0a2.52,2.52,0,0,1,3.87,0c1.34,1.34,1.94,1,2.94,0a2.56,2.56,0,0,1,3.87,0c1.36,1.35,2,.92,2.89,0a2.63,2.63,0,0,1,4,0c1.5,1.5,2.17.79,3,0a2.61,2.61,0,0,1,3.72,0,2,2,0,0,0,3.18,0,2.28,2.28,0,0,1,3.6,0c1.46,1.46,2,1,3,0a2.41,2.41,0,0,1,3.77,0c1.39,1.39,1.87,1,2.91,0"/></g></g></g></svg>