<svg xmlns="http://www.w3.org/2000/svg" xmlns:xlink="http://www.w3.org/1999/xlink" viewBox="0 0 75.62 67.6"><defs><style>.cls-1{fill:url(#radial-gradient);}.cls-2{fill:#fff;}.cls-3{fill:url(#radial-gradient-2);}.cls-4{fill:#d0d0d0;}.cls-5{fill:url(#linear-gradient);}.cls-6{fill:url(#linear-gradient-2);}.cls-7{fill:url(#linear-gradient-3);}.cls-8{fill:url(#linear-gradient-4);}.cls-9{fill:url(#linear-gradient-5);}.cls-10{fill:url(#linear-gradient-6);}.cls-11{fill:url(#linear-gradient-7);}.cls-12{fill:url(#linear-gradient-8);}.cls-13{fill:url(#linear-gradient-9);}</style><radialGradient id="radial-gradient" cx="37.51" cy="48.69" r="52.26" gradientUnits="userSpaceOnUse"><stop offset="0" stop-color="#9e9e9e"/><stop offset="0.03" stop-color="#9e9e9e"/><stop offset="0.53" stop-color="#595959"/><stop offset="0.79" stop-color="#898989"/><stop offset="0.81" stop-color="#969696"/><stop offset="0.84" stop-color="#aaa"/><stop offset="0.88" stop-color="#b9b9b9"/><stop offset="0.92" stop-color="#c1c1c1"/><stop offset="0.99" stop-color="#c4c4c4"/></radialGradient><radialGradient id="radial-gradient-2" cx="33.1" cy="50.6" r="55.56" gradientUnits="userSpaceOnUse"><stop offset="0.06" stop-color="#fff"/><stop offset="0.3" stop-color="#9d9d9d"/><stop offset="0.45" stop-color="#858585"/><stop offset="0.61" stop-color="#6d6d6d"/><stop offset="0.88" stop-color="#c7c7c7"/></radialGradient><linearGradient id="linear-gradient" x1="4.83" y1="56.57" x2="4.83" y2="67.3" gradientUnits="userSpaceOnUse"><stop offset="0" stop-color="#636363"/><stop offset="0.52" stop-color="#838383"/><stop offset="1" stop-color="#636363"/></linearGradient><linearGradient id="linear-gradient-2" x1="16.87" y1="56.26" x2="16.87" y2="67.6" xlink:href="#linear-gradient"/><linearGradient id="linear-gradient-3" x1="28.58" y1="56.57" x2="28.58" y2="67.3" xlink:href="#linear-gradient"/><linearGradient id="linear-gradient-4" x1="39.04" y1="56.57" x2="39.04" y2="67.3" xlink:href="#linear-gradient"/><linearGradient id="linear-gradient-5" x1="48.53" y1="56.57" x2="48.53" y2="67.3" xlink:href="#linear-gradient"/><linearGradient id="linear-gradient-6" x1="58.75" y1="56.26" x2="58.75" y2="67.6" xlink:href="#linear-gradient"/><linearGradient id="linear-gradient-7" x1="70.79" y1="56.57" x2="70.79" y2="67.3" xlink:href="#linear-gradient"/><linearGradient id="linear-gradient-8" x1="37.81" y1="56.26" x2="37.81" y2="63.24" gradientUnits="userSpaceOnUse"><stop offset="0" stop-color="#636363"/><stop offset="0" stop-color="#838383"/><stop offset="1" stop-color="#636363"/></linearGradient><linearGradient id="linear-gradient-9" x1="11.6" y1="26.19" x2="63.54" y2="26.19" xlink:href="#radial-gradient"/></defs><title>Ресурс 23hobaton</title><g id="Слой_2" data-name="Слой 2"><g id="Шар_61" data-name="Шар 61"><g id="knopka"><path class="cls-1" d="M37.38,52.14A25.76,25.76,0,0,1,14.66,14.27,25.75,25.75,0,0,1,60.11,38.49,25.8,25.8,0,0,1,37.38,52.14Zm14-14.46V24.51H29.77V17.29H24.71V37.68h5.08c.08-1.49.4-5.08,1.7-6.38s4.33-1.88,9.17-1.88c2.31,0,4.12.15,4.2.15l.57,0v8.06Z"/><path class="cls-2" d="M37.39,1.25a25.15,25.15,0,1,1-7.33,1.1,25.14,25.14,0,0,1,7.33-1.1M24.08,38.3h6.31s.11-5.13,1.54-6.57S37.46,30,40.67,30c2.31,0,4.14.15,4.14.15V38.3H52V23.88H30.39V16.67H24.08V38.3M37.39,0A26.38,26.38,0,1,0,62.61,18.69,26.38,26.38,0,0,0,37.39,0ZM25.33,17.92h3.81v7.21H50.77V37.05H46.06V29l-1.14-.1c-.08,0-1.91-.16-4.25-.16-7.55,0-9.11,1.55-9.62,2.06-1.3,1.3-1.72,4.39-1.85,6.2H25.33V17.92Z"/><path class="cls-3" d="M24.12,16.67h6.31v7.21H46.55C51.1,20,53.38,14.94,52,10.32c-2.15-7-12-10.29-22.06-7.23S13.48,14.34,15.63,21.39c1.11,3.64,4.3,6.26,8.49,7.52Z"/><rect class="cls-4" x="45.9" y="17.32" width="5.47" height="4.03"/><path class="cls-5" d="M0,56.57H3v3.86H6.65V56.57h3V67.3h-3V63H3V67.3H0Z"/><path class="cls-6" d="M11.1,61.93a5.43,5.43,0,0,1,5.76-5.67,5.67,5.67,0,1,1,0,11.34A5.43,5.43,0,0,1,11.1,61.93Zm8.43,0c0-2.07-1.27-3.09-2.67-3.09s-2.67,1-2.67,3.09S15.47,65,16.87,65,19.53,64,19.53,61.93Z"/><path class="cls-7" d="M29.28,56.57c2.91,0,3.2,1.9,3.2,2.73a2.4,2.4,0,0,1-1.67,2.24v0a2.75,2.75,0,0,1,2.27,2.74c0,1.5-1,3-3.51,3H24.08V56.57Zm-.93,4.23c1.18,0,1.38-.61,1.38-1,0-.57-.35-1.07-1.38-1.07H27.08V60.8Zm.12,4.35c.46,0,1.61,0,1.61-1.13S29,62.94,28.47,62.94H27.08v2.21Z"/><path class="cls-8" d="M37.21,56.57h3.65L44.67,67.3H41.46l-.6-1.85H37.21l-.6,1.85H33.4Zm.6,6.51h2.45l-1.23-4Z"/><path class="cls-9" d="M47,59.14H44.67V56.57h7.72v2.57H50V67.3H47Z"/><path class="cls-10" d="M53,61.93a5.43,5.43,0,0,1,5.76-5.67,5.67,5.67,0,1,1,0,11.34A5.43,5.43,0,0,1,53,61.93Zm8.43,0c0-2.07-1.27-3.09-2.67-3.09s-2.66,1-2.66,3.09S57.36,65,58.75,65,61.42,64,61.42,61.93Z"/><path class="cls-11" d="M66,56.57h3v3.86h3.65V56.57h3V67.3h-3V63H69V67.3H66Z"/><path class="cls-12" d="M37.21,56.57l-1.9,5.35h2.86L39,59.13l.86,2.79h2.86l-1.9-5.35Zm21.54-.31A5.43,5.43,0,0,0,53,61.92h3.09c0-2.06,1.28-3.08,2.67-3.08s2.66,1,2.66,3.08h3.1A5.42,5.42,0,0,0,58.75,56.26Zm13.86.31v3.86H69V56.57H66v5.35h5.76a6.91,6.91,0,0,0,3.89-1.36v-4ZM44.67,59.14H47v2.77h3V59.14H52.4V56.57H44.67Zm-38,1.29H3V56.57H0v6.67a7.48,7.48,0,0,1,4.58-1.33H9.65V56.57h-3Zm10.22-4.17a5.43,5.43,0,0,0-5.76,5.65h3.1c0-2.06,1.27-3.08,2.66-3.08s2.66,1,2.67,3.08h3.1A5.43,5.43,0,0,0,16.87,56.26Zm12.41.31h-5.2v5.35H31.7a3.53,3.53,0,0,0-.89-.35v0a2.4,2.4,0,0,0,1.67-2.24C32.48,58.47,32.19,56.57,29.28,56.57Zm-.94,4.23H27.08V58.72h1.26c1,0,1.38.5,1.38,1.07C29.72,60.19,29.52,60.8,28.34,60.8Z"/><path class="cls-13" d="M12.74,33.76a25.78,25.78,0,0,1-1.14-7.58h0A26,26,0,0,1,30,1.36h0A25.87,25.87,0,0,1,37.58.23h0A26,26,0,0,1,62.4,18.63h0l-.8.25-.8.24A24.31,24.31,0,0,0,37.58,1.89h0A24.19,24.19,0,0,0,30.49,3h0A24.3,24.3,0,0,0,13.27,26.19h0a24.18,24.18,0,0,0,1.07,7.09h0A24.3,24.3,0,0,0,37.56,50.49h0a24.35,24.35,0,0,0,7.09-1.06h0A24.3,24.3,0,0,0,61.87,26.21h0a24.3,24.3,0,0,0-1.06-7.09h0l.8-.24.8-.25a26,26,0,0,1,1.13,7.58h0A26,26,0,0,1,45.14,51h0a26.08,26.08,0,0,1-7.58,1.13h0a26,26,0,0,1-24.82-18.4ZM44.16,39V30.79c-.74,0-1.94-.1-3.31-.1h0c-3.12-.06-7.28.43-8.14,1.46h0a7.17,7.17,0,0,0-1.07,3.35h0a24.82,24.82,0,0,0-.23,2.64h0l0,.82h-8V15.65h8v7.21H53V39Zm8-.83v0Zm-7.14-8.94.77.06v8h5.54V24.53H29.74V17.32H25.1v20h4.68c0-.52.09-1.25.2-2h0c.25-1.53.55-3.23,1.55-4.29h0c1.94-1.79,6-1.88,9.32-1.94h0c2.35,0,4.2.15,4.21.16Z"/></g></g></g></svg>