<svg xmlns="http://www.w3.org/2000/svg" xmlns:xlink="http://www.w3.org/1999/xlink" viewBox="0 0 136.64 34.11"><defs><style>.cls-1,.cls-2{fill:none;}.cls-2{clip-path:url(#clip-path);}.cls-3{fill:#4d4d4d;}.cls-4{fill:#707070;}.cls-5{fill:#8b8b8b;}.cls-6{fill:#a3a3a3;}.cls-7{clip-path:url(#clip-path-2);}.cls-8{fill:#4a4a4a;}</style><clipPath id="clip-path"><rect class="cls-1" x="23.73" width="71.51" height="24.81"/></clipPath><clipPath id="clip-path-2" transform="translate(0 -0.18)"><path class="cls-2" d="M29.19,4.77V.48H24V4.77Zm-.07,19.69V6.2H24.05V24.46Zm19.65-7.12a6.66,6.66,0,0,0-1.38-4.3,10,10,0,0,0-4.6-3,16.38,16.38,0,0,1-4.15-1.89,2.11,2.11,0,0,1-.76-1.94,1.9,1.9,0,0,1,1-1.68A5.9,5.9,0,0,1,42,3.9a16.89,16.89,0,0,1,2.84.25q1.37.24,2.75.59V1.1A13.83,13.83,0,0,0,45.27.52,20.69,20.69,0,0,0,41.66.19a10.56,10.56,0,0,0-6.51,1.89,5.79,5.79,0,0,0-2.36,4.67,6.6,6.6,0,0,0,1.53,4.54,10.92,10.92,0,0,0,4.38,2.77,12.43,12.43,0,0,1,3.94,2.21,2.66,2.66,0,0,1,.77,2.11,2.25,2.25,0,0,1-1.12,2,7.26,7.26,0,0,1-3.75.75,15.11,15.11,0,0,1-3.68-.48,10.65,10.65,0,0,1-2.66-1v4a14.43,14.43,0,0,0,2.76.76,24.67,24.67,0,0,0,4.22.32q4.57,0,7.06-1.82a6.59,6.59,0,0,0,2.53-5.62Zm13.37-8V6.56H57.34v-6H54.15L52.46,6.59l-2.37.13v2.6h2.18v9.07A6.78,6.78,0,0,0,53.74,23a5.09,5.09,0,0,0,4,1.61A17,17,0,0,0,60,24.47a9.08,9.08,0,0,0,2-.5V21.12q-.56.15-1.16.25a7.68,7.68,0,0,1-1.21.11,2.15,2.15,0,0,1-1.84-.65,3.43,3.43,0,0,1-.47-2.11V9.35ZM80.73,24.46V12.54q0-3.49-1.68-5.1T73.81,5.85A18.67,18.67,0,0,0,70,6.19a13.06,13.06,0,0,0-2.75.89V10.2a9.33,9.33,0,0,1,2.27-.92,11.64,11.64,0,0,1,3-.38A4.14,4.14,0,0,1,75,9.55a1.93,1.93,0,0,1,.87,1.6v1.79a4.13,4.13,0,0,0-1.51-.76,7.42,7.42,0,0,0-2.1-.32,8.72,8.72,0,0,0-5.56,1.64,5.81,5.81,0,0,0-2.08,4.73v.33a6.26,6.26,0,0,0,1.54,4.61,6.21,6.21,0,0,0,4.57,1.53A7.09,7.09,0,0,0,73.92,24a4.42,4.42,0,0,0,2-1.87l.1,2.37Zm-4.87-6.11A3.08,3.08,0,0,1,75,20.71a3.12,3.12,0,0,1-2.15.77,3.42,3.42,0,0,1-2.24-.62,3,3,0,0,1-.88-2.47V17.9a3.61,3.61,0,0,1,.84-2.61,3,3,0,0,1,2.25-.8,3,3,0,0,1,2.34.87,3.68,3.68,0,0,1,.75,2.51Zm19.35-9V6.56H90.4v-6H87.22L85.53,6.59l-2.37.13v2.6h2.18v9.07A6.78,6.78,0,0,0,86.8,23a5.09,5.09,0,0,0,4,1.61A17,17,0,0,0,93,24.47a9.11,9.11,0,0,0,2-.5V21.12q-.56.15-1.16.25a7.7,7.7,0,0,1-1.21.11,2.15,2.15,0,0,1-1.84-.65,3.43,3.43,0,0,1-.47-2.11V9.35Z"/></clipPath></defs><title>Ресурс 17istat24</title><g id="Слой_2" data-name="Слой 2"><g id="Шар_61" data-name="Шар 61"><g id="knopka"><path class="cls-3" d="M3.06,34.1V33.4a1.85,1.85,0,0,1-.37.13,2.4,2.4,0,0,1-.57.06.9.9,0,0,1-.78-.38A2,2,0,0,1,1,32V32a2,2,0,0,1,.3-1.16,1,1,0,0,1,.86-.42,2.29,2.29,0,0,1,.51.06,1.74,1.74,0,0,1,.35.12v-.73a1.43,1.43,0,0,0-.4-.12,4.17,4.17,0,0,0-.62,0A2,2,0,0,0,1,30a1.93,1.93,0,0,0-.72.77A2.54,2.54,0,0,0,0,31.91v.18a2.58,2.58,0,0,0,.26,1.22A1.73,1.73,0,0,0,1,34,2.23,2.23,0,0,0,2,34.29a3.09,3.09,0,0,0,.63-.07,1.24,1.24,0,0,0,.38-.13Zm11.79.12L13.3,29.74h-.94l-1.51,4.48h.82L12,33.14h1.48l.33,1.08ZM13.27,32.5H12.2l.52-1.65Zm12.23,1.72v-.67H23.85V29.74h-1v4.48Zm10.89,0v-.67H34.73V29.74h-1v4.48Zm19.84-3.81v-.67h-3v.67h1v3.81h1V30.41ZM67.3,34.22A4.13,4.13,0,0,0,67,32.53a1.22,1.22,0,0,0-.79-.7,1.14,1.14,0,0,0,.7-.27.82.82,0,0,0,.24-.62V30.7a.9.9,0,0,0-.27-.69,1.31,1.31,0,0,0-.91-.28H64.24v4.48h1v-2h.24a.64.64,0,0,1,.62.46,4.49,4.49,0,0,1,.21,1.55ZM66.19,31a.48.48,0,0,1-.15.39.8.8,0,0,1-.51.13h-.27V30.38h.33a.72.72,0,0,1,.45.12.51.51,0,0,1,.16.42Zm12.88,3.18-1.55-4.48h-.94l-1.51,4.48h.82l.34-1.08H77.7L78,34.22ZM77.49,32.5H76.42l.52-1.65Zm12.39,1.6V33.4a1.85,1.85,0,0,1-.37.13,2.4,2.4,0,0,1-.57.06.91.91,0,0,1-.78-.38A2,2,0,0,1,87.86,32V32a2,2,0,0,1,.3-1.16,1,1,0,0,1,.86-.42,2.29,2.29,0,0,1,.51.06,1.73,1.73,0,0,1,.35.12v-.73a1.43,1.43,0,0,0-.4-.12,4.17,4.17,0,0,0-.62,0,2,2,0,0,0-1,.28,1.93,1.93,0,0,0-.72.77,2.54,2.54,0,0,0-.27,1.18v.18a2.58,2.58,0,0,0,.26,1.22,1.73,1.73,0,0,0,.72.74,2.24,2.24,0,0,0,1.06.25,3.09,3.09,0,0,0,.63-.07,1.24,1.24,0,0,0,.38-.13Zm11.87.12-1.94-2.38,1.7-2.1h-1l-1.4,1.88V29.74h-1v4.48h1V32.76l.15-.19,1.31,1.65Zm9,0V29.74h-1v4.48Zm11.91,0V29.74H122v2.65l-2.13-2.65h-.54v4.48H120V31.4l2.24,2.81Zm11.65-.52V31.82h-1.53v.6h.69v1a.79.79,0,0,1-.28.13,1.56,1.56,0,0,1-.44.06.78.78,0,0,1-.71-.35,2.26,2.26,0,0,1-.26-1.23V32a1.91,1.91,0,0,1,.33-1.23,1.07,1.07,0,0,1,.87-.37,1.9,1.9,0,0,1,.54.08,2.84,2.84,0,0,1,.38.15v-.72a1.78,1.78,0,0,0-.38-.13,2.85,2.85,0,0,0-.64-.07,2.29,2.29,0,0,0-1.14.28,1.82,1.82,0,0,0-.72.76,2.45,2.45,0,0,0-.25,1.13v.24a2.41,2.41,0,0,0,.5,1.64,1.77,1.77,0,0,0,1.39.56,2.79,2.79,0,0,0,1.07-.2,1.42,1.42,0,0,0,.57-.4Z" transform="translate(0 -0.18)"/><rect class="cls-4" x="15.73" y="6.18" width="5.07" height="18.26"/><rect class="cls-5" x="7.86" y="11.81" width="5.07" height="12.64"/><rect class="cls-6" y="17.41" width="5.07" height="7.03"/><path class="cls-6" d="M117.18,24.63V21.06H105.32a33.58,33.58,0,0,0,8.74-6.71A10.77,10.77,0,0,0,117,7.22a6.48,6.48,0,0,0-1.9-4.88q-1.93-1.91-6.19-2a10.23,10.23,0,0,0-5.61,1.42,5.64,5.64,0,0,0-2.58,4.46h4.61A2.16,2.16,0,0,1,106,4.69,3.45,3.45,0,0,1,108.37,4a3.26,3.26,0,0,1,2.51.91,3.42,3.42,0,0,1,.78,2.37,6.55,6.55,0,0,1-.95,3.18,21.53,21.53,0,0,1-3.35,4.28,75.64,75.64,0,0,1-6.49,5.87v4Zm19.47-7.34V13.81H134V.69h-3.25l-11.63,12,.26,4.61h9.75v7.34H134V17.29Zm-7.47-3.48h-6.53l6.53-6.89Z" transform="translate(0 -0.18)"/><g class="cls-7"><rect class="cls-8" x="23.84" width="71.59" height="24.62"/></g></g></g></g></svg>