<svg xmlns="http://www.w3.org/2000/svg" viewBox="0 0 111.81 87.43"><defs><style>.cls-1{fill:#4b4b4b;}.cls-2{fill:#202020;}</style></defs><title>Ресурс 12leo</title><g id="Слой_2" data-name="Слой 2"><g id="Шар_61" data-name="Шар 61"><g id="knopka"><path class="cls-1" d="M10,86.91H0V69.73H3.58V83.57H10Z"/><path class="cls-1" d="M21.75,76.56v3.17H15v3.85h7.8v3.34H11.44V69.73H22.63v3.34H15v3.48Z"/><path class="cls-1" d="M23.71,78.32c0-2.58.61-9.08,7.12-9.08s7.12,6.5,7.12,9.08-.61,9.08-7.12,9.08S23.71,80.9,23.71,78.32Zm10.41,0c0-4.59-1.42-5.74-3.29-5.74s-3.29,1.15-3.29,5.74c0,5.13,1.82,5.74,3.29,5.74S34.12,83.45,34.12,78.32Z"/><path class="cls-2" d="M51.5,78v9H49.68v-2a4.51,4.51,0,0,1-4.15,2.48c-4.1,0-6.36-3.56-6.36-9.28s2.5-8.93,6.6-8.93c4.76,0,5.43,4.47,5.52,5.6H49.12c0-1.42-.79-3.66-3.39-3.66-.54,0-4.27,0-4.27,7.07,0,2,.49,7.26,4.24,7.26,3.09,0,3.71-3.56,3.76-5.6H45.73V78Z"/><path class="cls-2" d="M53.88,86.91H51.6l4.93-17.18h2.31l4.93,17.18H61.49l-1.23-4.44H55.11Zm5.89-6.38-2.09-7.71L55.6,80.53Z"/><path class="cls-2" d="M66.72,73.51h-.07l.07.93V86.91H64.53V69.73h3L71.45,83.4l3.88-13.67h3V86.91H76.19V74.45l.08-.93h-.08l-3.83,13.4H70.55Z"/><path class="cls-2" d="M83.51,69.73V86.91H81.32V69.73Z"/><path class="cls-2" d="M88.64,86.91H86.45V69.73h2.33l6.55,12.83V69.73h2.18V86.91H95.19L88.64,74.05Z"/><path class="cls-2" d="M111.81,78v9H110v-2a4.51,4.51,0,0,1-4.15,2.48c-4.1,0-6.36-3.56-6.36-9.28s2.5-8.93,6.6-8.93c4.76,0,5.42,4.47,5.52,5.6h-2.18c0-1.42-.79-3.66-3.39-3.66-.54,0-4.27,0-4.27,7.07,0,2,.49,7.26,4.25,7.26,3.09,0,3.71-3.56,3.76-5.6H106V78Z"/><path class="cls-2" d="M56.69,0H30.4L34,46.73,39.74,49V41.12l1.74.09v8.87l5.78,2.31V46.93L49,47v6.42l6.84,2.36V51.49h1.71v4.29l6.84-2.36V47l1.74-.06v5.46l5.78-2.31V41.21l1.74-.09V49l5.78-2.31L83,0Zm0,42.7-5.62-4,5.62-2.41,5.62,2.41ZM73.42,26.46l-1.52,1V22.84l-5.78,2.31v10.7l-1.65,1.26-7.79-3.24L48.9,37.11l-1.65-1.26V25.15l-5.78-2.31v4.61l-1.52-1L38.77,5.74l18,5,17.86-5Z"/><polygon class="cls-2" points="51.88 28.74 52.27 31.83 56.69 33.53 61.11 31.83 61.51 28.74 56.69 29.58 51.88 28.74"/><polygon class="cls-2" points="72.64 12.03 60.99 15.76 66.32 19.14 72.64 12.03"/><polygon class="cls-2" points="40.74 12.03 52.39 15.76 47.06 19.14 40.74 12.03"/></g></g></g></svg>