<svg xmlns="http://www.w3.org/2000/svg" viewBox="0 0 119.34 97.44"><defs><style>.cls-1{fill:#9a9a9a;}.cls-2{fill:#fff;}.cls-3{fill:#d9d9d9;}.cls-4{fill:#a8a8a8;}</style></defs><title>Ресурс 8shurup</title><g id="Слой_2" data-name="Слой 2"><g id="Шар_61" data-name="Шар 61"><g id="knopka"><path class="cls-1" d="M34.36,22.32a75.45,75.45,0,0,1,9.45-1.05c3.13-.23,12.68-.46,15.43-.46s13.36.46,17.34.92,8,.92,10.23,1.83,3.36,3.36,3.67,6.49.61,7.25.61,7.48.84,0,.84,0,.31-4.35,2.37-4.81,7.18-.84,7.94.08.76,1.76.76,3.82-.23,5-.53,8.1-1.15,6.57-2.9,8.55a11.44,11.44,0,0,1-4.66,3.36,18.58,18.58,0,0,1-3.51.61c-.23,0,.46,1.68.46,1.68h-2l-1.15-1.83H29.61L28.15,59.3H25.86l1.3-2.44a16,16,0,0,1-2.9-.31,14.76,14.76,0,0,1-5.19-3.21,11.8,11.8,0,0,1-3-6c-.38-2.52-1.07-10.84-1.15-12.45a2.11,2.11,0,0,1,1.91-2.44c1-.08,5.73-.38,6.87.15s2.83,3.74,3,4,.61.15.61.15,0-4.66.15-6.34a9.55,9.55,0,0,1,1.83-5.27A10.85,10.85,0,0,1,34.36,22.32Z"/><path class="cls-2" d="M33.41,46.53C35.77,46,42,45.48,45.13,45.18c3.33-.32,8-.42,12.31-.46s12.81.1,16.52.38c3.88.29,8.68,1.1,10.45,1.43L84,47.2s-7.26-1-10.78-1.2-8.51-.28-12.39-.25-8.18-.06-12.22.13-12.71.93-14.75,1.31Z"/><path class="cls-3" d="M0,61.18c4.89-.61,18.23-1.88,22.81-1.88s29.65-1,36.16-1,27.18.33,32.47.59c8,.38,25.46,2.06,27.9,2.27v.43H0Z"/><path class="cls-2" d="M91.22,35.59c-.38,3,.52,5.87,1.5,8.72a.34.34,0,0,0,.64-.22c-.93-2.72-1.83-5.46-1.47-8.37.05-.43-.61-.57-.67-.13Z"/><path class="cls-2" d="M26.64,36.06c.92,2.69-.35,5.39-.32,8.12,0,.43.68.49.68.05,0-2.88,1.23-5.63.25-8.47-.14-.41-.75-.11-.61.3Z"/><path class="cls-4" d="M32,41a1.47,1.47,0,0,1-.3,0c-1.56-.33-1.56-3.06-1.56-5.06v-.23a17,17,0,0,1,.63-3.37,19.11,19.11,0,0,0,.71-3.85c0-1.85-1.92-4.31-2.64-5.24-1-1.27-2.21-3.69-1.53-5.13a1.36,1.36,0,0,1,1.28-.86c1.08,0,2.47,1.14,4.08,2.45l0,0a10.36,10.36,0,0,0,5.49,2.38,7.46,7.46,0,0,0,4.11-2.21l.08-.08C43.59,18.62,45.19,17,46.59,17a1.64,1.64,0,0,1,1.2.5c1.3,1.3,1,3.28-.94,5.42a6.74,6.74,0,0,0-1.85,5,16.71,16.71,0,0,0,1.5,5.89c.73,1.94,1.26,4.53.33,5.46a.83.83,0,0,1-.6.25c-.8,0-1.84-1.05-3.21-2.54l-.43-.46a4.78,4.78,0,0,0-3.26-1.83h-.22c-1.36.12-2.84,2.09-3.47,2.93-.17.22-.34.48-.53.74C34.23,39.58,33.24,41,32,41Z"/><path class="cls-2" d="M46.59,17.53a1.14,1.14,0,0,1,.83.35c1.21,1.21.53,3-1,4.72a7.28,7.28,0,0,0-2,5.3A17,17,0,0,0,46,34c.89,2.36,1,4.34.45,4.92a.33.33,0,0,1-.24.1c-.74,0-2.31-1.82-3.27-2.84a5.34,5.34,0,0,0-3.63-2h-.27c-1.47.13-2.87,1.85-3.83,3.13s-2,3.21-3.19,3.21l-.2,0c-1.21-.26-1.15-3.19-1.15-4.79S32,30.45,32,28.47s-1.85-4.41-2.75-5.56-2-3.39-1.47-4.6a.87.87,0,0,1,.82-.57c.9,0,2.26,1.12,3.78,2.36a10.9,10.9,0,0,0,5.81,2.49,7.86,7.86,0,0,0,4.47-2.36c1.07-1.07,2.67-2.71,3.89-2.71m0-1c-1.61,0-3.3,1.69-4.54,2.93l-.08.08a7,7,0,0,1-3.75,2.06,10,10,0,0,1-5.16-2.26l0,0c-1.75-1.44-3.14-2.57-4.4-2.57a1.89,1.89,0,0,0-1.74,1.16c-1.05,2.23,1.48,5.52,1.59,5.66.69.89,2.53,3.25,2.53,4.93a19.21,19.21,0,0,1-.69,3.73,17.21,17.21,0,0,0-.65,3.49v.23c0,2.17,0,5.15,2,5.56a2,2,0,0,0,.41,0c1.46,0,2.54-1.54,3.49-2.9.18-.26.36-.51.52-.72.54-.72,2-2.63,3.1-2.72h.18a4.33,4.33,0,0,1,2.89,1.67l.43.46C44.2,39,45.22,40,46.23,40a1.35,1.35,0,0,0,1-.39c1.38-1.38.19-4.94-.21-6a16.36,16.36,0,0,1-1.47-5.71,6.29,6.29,0,0,1,1.72-4.62c2.07-2.33,2.41-4.62.92-6.12a2.16,2.16,0,0,0-1.56-.65Z"/><path class="cls-4" d="M68.68,42.12c-.91,0-2.44-.79-6.3-7.43l-.28-.49c-1.2-2.08-2.23-3.88-3.92-3.83a4.24,4.24,0,0,0-1.9.63,21.71,21.71,0,0,0-3.89,3c-1.37,1.26-2.46,2.26-3.53,2.29a1.65,1.65,0,0,1-.75-.15c-2.06-1-.66-5.29,1-9.65a19.07,19.07,0,0,1,1.58-3.15c1-1.72,1.81-3.07,1.51-5.26a24.14,24.14,0,0,0-2.23-5.48c-2-4.1-4.07-8.35-1.7-9.54A.83.83,0,0,1,48.57,3c.94,0,2.81,1.37,6.56,4.36a48.85,48.85,0,0,0,4.21,3.15c.42.24.82.49,1.2.73,1.52.95,2.72,1.69,4.43,1.64a6.5,6.5,0,0,0,1-.11,16.94,16.94,0,0,0,6.92-3.74,7.58,7.58,0,0,1,3.78-1.6A1.57,1.57,0,0,1,78,8c1.08,1.3-.83,4.75-3.23,7-2.1,2-4.87,5-4.78,8,0,1.45.27,4,.49,6.46.25,2.78.48,5.4.49,6.7,0,2.61-.22,5.64-2.09,6l-.16,0Z"/><path class="cls-2" d="M48.59,3.55C50,3.51,56.72,9.62,59.08,11c2.14,1.24,3.58,2.51,5.9,2.44a7,7,0,0,0,1-.11c3-.54,6.08-3,7.15-3.85A7.13,7.13,0,0,1,76.65,8a1.1,1.1,0,0,1,.91.31c.74.89-.73,4-3.19,6.33S69.34,20,69.44,23s1,10.68,1,13.15-.23,5.2-1.65,5.44h-.09c-1.44,0-4.09-4.17-5.83-7.17-1.38-2.38-2.52-4.64-4.67-4.58a4.68,4.68,0,0,0-2.14.69c-3.29,1.86-5.52,5.22-7.18,5.27a1.13,1.13,0,0,1-.52-.1c-1.71-.79,0-5.58,1.22-9s3.61-5,3.12-8.66-7.24-13-4.22-14.48a.32.32,0,0,1,.13,0m0-1h0a1.35,1.35,0,0,0-.57.14c-1.36.68-1.69,2.23-1,4.59a42.05,42.05,0,0,0,2.44,5.64,24.62,24.62,0,0,1,2.19,5.32c.28,2-.48,3.29-1.44,4.93a19.75,19.75,0,0,0-1.62,3.23c-1.76,4.78-3.14,9.16-.69,10.3a2.17,2.17,0,0,0,1,.2c1.27,0,2.42-1.09,3.87-2.43a21.32,21.32,0,0,1,3.79-3,3.74,3.74,0,0,1,1.66-.56c1.28,0,2.16,1.32,3.45,3.57l.29.5c4,6.81,5.59,7.72,6.76,7.68l.23,0c2.26-.38,2.53-3.65,2.52-6.46,0-1.33-.24-4-.49-6.75-.22-2.45-.45-5-.49-6.43-.06-2.1,1.45-4.59,4.62-7.61,2.19-2.08,4.74-6,3.27-7.74a2.06,2.06,0,0,0-1.74-.69,8.17,8.17,0,0,0-4.09,1.72,16.44,16.44,0,0,1-6.69,3.63,6,6,0,0,1-.89.1c-1.55,0-2.64-.63-4.14-1.56-.38-.24-.78-.48-1.21-.73A49.77,49.77,0,0,1,55.46,7c-4-3.2-5.78-4.5-6.9-4.47Z"/><path class="cls-4" d="M86,44.76c-.55,0-1.25-.4-4.23-5.25l-.45-.74c-.85-1.41-1.32-2.15-1.89-2.15a1.4,1.4,0,0,0-.58.16c-1.15.55-2,2-2.53,3.09-.14.25-.26.48-.37.66-.21.36-1.35,2.13-2.71,2.13a1.45,1.45,0,0,1-.59-.12c-.35-.16-1.41-.63.1-7.43.11-.5.32-1.15.56-1.9a15.32,15.32,0,0,0,1-4.38,16.48,16.48,0,0,0-1.84-5.29c-.37-.76-1.54-3.36-.86-4.87a1.71,1.71,0,0,1,1.13-1,1,1,0,0,1,.26,0c.83,0,1.34,1,2,2.33s1.57,3,2.76,3.51a7.53,7.53,0,0,0,2.76.46,17.29,17.29,0,0,0,5.72-1.13l.92-.34a14.91,14.91,0,0,1,4.42-1.22,1.67,1.67,0,0,1,1.65.86c.64,1.29-1,2.28-2.84,3.43a22.92,22.92,0,0,0-2.75,1.88c-2.26,1.91-2.4,2.8-2.37,4A40.3,40.3,0,0,0,86.37,39c.38,1.36,1.17,5.31-.2,5.71l-.2,0Z"/><path class="cls-2" d="M73,18.21c1.17,0,2.16,4.84,4.61,5.81a8.08,8.08,0,0,0,3,.49,17.93,17.93,0,0,0,5.9-1.16c1.9-.69,3.89-1.53,5.15-1.53a1.18,1.18,0,0,1,1.17.57c.67,1.33-3.1,2.66-5.46,4.66s-2.6,3-2.56,4.46a40.49,40.49,0,0,0,1.13,7.66c.67,2.36.73,4.89.17,5.06H86c-.62,0-2.39-2.74-3.78-5-1.16-1.89-1.75-3.14-2.78-3.14a1.89,1.89,0,0,0-.81.21c-1.6.77-2.53,3-3.13,4S74,42.14,73.22,42.14a.91.91,0,0,1-.38-.08c-.9-.4.07-5.33.4-6.82s1.66-4.66,1.56-6.42a16.57,16.57,0,0,0-1.9-5.49c-.73-1.5-1.83-4.59-.07-5.09l.12,0m0-1.06h0a1.5,1.5,0,0,0-.41.06,2.23,2.23,0,0,0-1.47,1.27c-.74,1.67.36,4.28.87,5.32a16.11,16.11,0,0,1,1.79,5.08,15.42,15.42,0,0,1-1,4.18c-.24.76-.46,1.42-.57,1.95-.08.35-.48,2.19-.68,3.93-.25,2.11-.19,3.62.89,4.1a2,2,0,0,0,.81.17c1.61,0,2.83-1.83,3.17-2.39.12-.2.25-.43.38-.68.52-1,1.3-2.39,2.29-2.87a.87.87,0,0,1,.35-.11c.29,0,.92,1.05,1.43,1.89l.45.74c3.16,5.14,3.87,5.51,4.68,5.51a1.23,1.23,0,0,0,.35-.05c2.11-.62.72-5.78.56-6.37a39.57,39.57,0,0,1-1.09-7.39c0-1,0-1.74,2.19-3.62A22.26,22.26,0,0,1,90.66,26a16.78,16.78,0,0,0,2.26-1.54c1.24-1.11,1-2.09.78-2.57a2.19,2.19,0,0,0-2.12-1.16A15.16,15.16,0,0,0,87,22l-.91.34a16.75,16.75,0,0,1-5.54,1.09A7,7,0,0,1,78,23c-1-.4-1.83-2-2.49-3.26-.76-1.46-1.35-2.62-2.51-2.62Z"/><circle class="cls-4" cx="37.66" cy="16.74" r="4.66"/><path class="cls-2" d="M37.66,12.59a4.15,4.15,0,1,1-4.15,4.15,4.15,4.15,0,0,1,4.15-4.15m0-1a5.17,5.17,0,1,0,5.17,5.17,5.18,5.18,0,0,0-5.17-5.17Z"/><circle class="cls-4" cx="64.85" cy="6.34" r="5.82" transform="translate(-0.29 4.7) rotate(-4.14)"/><path class="cls-2" d="M64.47,1.05a5.3,5.3,0,1,1-4.9,5.67,5.3,5.3,0,0,1,4.9-5.67M64.4,0a6.34,6.34,0,1,0,6.78,5.86A6.35,6.35,0,0,0,64.4,0Z"/><circle class="cls-4" cx="81.09" cy="19.9" r="4.26"/><path class="cls-2" d="M81.09,16.17a3.73,3.73,0,1,1-3.73,3.73,3.73,3.73,0,0,1,3.73-3.73m0-1.07a4.79,4.79,0,1,0,4.79,4.79,4.8,4.8,0,0,0-4.79-4.79Z"/><path class="cls-4" d="M21.78,91.57a8.12,8.12,0,0,1-1.52-.13A8.7,8.7,0,0,1,19,91.11a5.53,5.53,0,0,1-.91-.4,2.68,2.68,0,0,1-.56-.4,1.14,1.14,0,0,1-.29-.57,4.23,4.23,0,0,1-.07-.89c0-.25,0-.47,0-.64a2,2,0,0,1,.09-.46.7.7,0,0,1,.23-.34.6.6,0,0,1,.36-.12,1.18,1.18,0,0,1,.61.24,7.88,7.88,0,0,0,.75.42,6.73,6.73,0,0,0,1.08.41,5.09,5.09,0,0,0,1.44.18,3.25,3.25,0,0,0,.94-.12,2,2,0,0,0,.67-.34,1.36,1.36,0,0,0,.4-.52,1.7,1.7,0,0,0,.14-.7,1.16,1.16,0,0,0-.23-.73,2.56,2.56,0,0,0-.67-.6,7.56,7.56,0,0,0-1-.52l-1.2-.54a11.18,11.18,0,0,1-1.22-.66,5.11,5.11,0,0,1-1.09-.91,4.34,4.34,0,0,1-.79-1.26,4.56,4.56,0,0,1-.3-1.74,4.63,4.63,0,0,1,.43-2,4.25,4.25,0,0,1,1.17-1.47,5,5,0,0,1,1.72-.87,7.41,7.41,0,0,1,2.06-.28,7.55,7.55,0,0,1,1.13.09,7.69,7.69,0,0,1,1.05.23,6,6,0,0,1,.88.33,2.13,2.13,0,0,1,.56.35,1.11,1.11,0,0,1,.21.27,1.21,1.21,0,0,1,.09.28,2.51,2.51,0,0,1,0,.38c0,.14,0,.32,0,.53s0,.43,0,.6a2.35,2.35,0,0,1-.07.44.72.72,0,0,1-.19.35.55.55,0,0,1-.39.14,1.15,1.15,0,0,1-.55-.2c-.18-.11-.4-.22-.68-.35a6.44,6.44,0,0,0-.92-.34,4,4,0,0,0-1.12-.15,2.59,2.59,0,0,0-.8.11,1.58,1.58,0,0,0-.54.29,1.09,1.09,0,0,0-.3.42,1.44,1.44,0,0,0-.1.55,1.16,1.16,0,0,0,.22.72,2.41,2.41,0,0,0,.67.59,7.8,7.8,0,0,0,1,.52l1.21.54a12.16,12.16,0,0,1,1.23.66,5.1,5.1,0,0,1,1.11.91,4.29,4.29,0,0,1,.79,1.26,4.42,4.42,0,0,1,.3,1.7,5,5,0,0,1-.48,2.23,4.66,4.66,0,0,1-1.29,1.61,5.6,5.6,0,0,1-1.88,1A7.94,7.94,0,0,1,21.78,91.57Z"/><path class="cls-4" d="M40.18,91.37a7,7,0,0,1-.79,0,2.52,2.52,0,0,1-.53-.11.78.78,0,0,1-.37-.24.59.59,0,0,1-.14-.38V84.7H33.17v5.91a.61.61,0,0,1-.12.37.74.74,0,0,1-.37.25,2.76,2.76,0,0,1-.53.11,8.21,8.21,0,0,1-1.57,0,2.68,2.68,0,0,1-.53-.11.78.78,0,0,1-.38-.24.59.59,0,0,1-.14-.38V76.19a.59.59,0,0,1,.14-.38.78.78,0,0,1,.38-.24,2.76,2.76,0,0,1,.53-.11,8.3,8.3,0,0,1,1.57,0,2.74,2.74,0,0,1,.52.11.74.74,0,0,1,.38.25.61.61,0,0,1,.12.37v5.34h5.18V76.19a.6.6,0,0,1,.14-.38.79.79,0,0,1,.37-.24,2.59,2.59,0,0,1,.53-.11,7.09,7.09,0,0,1,.79,0,6.8,6.8,0,0,1,.78,0,2.74,2.74,0,0,1,.52.11.79.79,0,0,1,.38.24.6.6,0,0,1,.14.38V90.61a.6.6,0,0,1-.14.38.79.79,0,0,1-.38.24,2.68,2.68,0,0,1-.52.11A6.67,6.67,0,0,1,40.18,91.37Z"/><path class="cls-4" d="M51.19,91.57a8.91,8.91,0,0,1-2.66-.37,5.3,5.3,0,0,1-2-1.15,5,5,0,0,1-1.28-1.92,7.41,7.41,0,0,1-.44-2.65V76.19a.61.61,0,0,1,.12-.37.74.74,0,0,1,.38-.25,2.89,2.89,0,0,1,.53-.1,6.87,6.87,0,0,1,.79,0,6.79,6.79,0,0,1,.77,0,2.72,2.72,0,0,1,.52.11.78.78,0,0,1,.38.24.6.6,0,0,1,.14.38v9a4.7,4.7,0,0,0,.21,1.49,2.63,2.63,0,0,0,.58,1,2.4,2.4,0,0,0,.9.59,3.44,3.44,0,0,0,1.21.2,3.34,3.34,0,0,0,1.21-.21,2.35,2.35,0,0,0,.88-.59,2.7,2.7,0,0,0,.56-1,4.12,4.12,0,0,0,.2-1.35V76.19a.61.61,0,0,1,.12-.37.74.74,0,0,1,.38-.25,2.73,2.73,0,0,1,.53-.11,7,7,0,0,1,.78,0,6.59,6.59,0,0,1,.77,0,2.72,2.72,0,0,1,.52.11.74.74,0,0,1,.38.25.61.61,0,0,1,.12.37v9.16A7.47,7.47,0,0,1,57.35,88a5.22,5.22,0,0,1-1.28,2A5.57,5.57,0,0,1,54,91.16,8.73,8.73,0,0,1,51.19,91.57Z"/><path class="cls-4" d="M70.43,91.37l-.81,0a2,2,0,0,1-.54-.11.76.76,0,0,1-.36-.26,1.19,1.19,0,0,1-.15-.31l-1.36-3.4c-.16-.37-.32-.71-.47-1a3.06,3.06,0,0,0-.48-.69,1.67,1.67,0,0,0-.58-.39,2.05,2.05,0,0,0-.77-.13h-.7v5.55a.59.59,0,0,1-.14.38.78.78,0,0,1-.38.24,2.68,2.68,0,0,1-.52.11,8.22,8.22,0,0,1-1.57,0,2.69,2.69,0,0,1-.53-.11.75.75,0,0,1-.38-.25.61.61,0,0,1-.12-.37V76.74a1.19,1.19,0,0,1,.36-1,1.22,1.22,0,0,1,.83-.29h4l1,0,.72.06a6.72,6.72,0,0,1,1.73.47,4.24,4.24,0,0,1,1.33.89,3.74,3.74,0,0,1,.84,1.31A4.72,4.72,0,0,1,71.63,80a5,5,0,0,1-.21,1.48,3.88,3.88,0,0,1-.61,1.21,4,4,0,0,1-1,.92A5,5,0,0,1,69,84l.19.14a3.69,3.69,0,0,1,.61.62,5.81,5.81,0,0,1,.53.8,10,10,0,0,1,.47,1l1.29,3q.18.46.25.69a1.5,1.5,0,0,1,.07.4.72.72,0,0,1-.08.34.62.62,0,0,1-.37.27,2.48,2.48,0,0,1-.59.1C71.14,91.36,70.82,91.37,70.43,91.37ZM65.51,82.2a3.55,3.55,0,0,0,1.08-.15,2.06,2.06,0,0,0,.73-.4,1.56,1.56,0,0,0,.43-.59,2.09,2.09,0,0,0,.15-.8,2,2,0,0,0-.3-1.13,1.61,1.61,0,0,0-1-.62,4.08,4.08,0,0,0-.5-.09,7.33,7.33,0,0,0-.8,0H64.19v3.8Z"/><path class="cls-4" d="M80.57,91.57a8.91,8.91,0,0,1-2.66-.37,5.3,5.3,0,0,1-2-1.15,5,5,0,0,1-1.28-1.92,7.41,7.41,0,0,1-.44-2.65V76.19a.61.61,0,0,1,.12-.37.75.75,0,0,1,.38-.25,2.86,2.86,0,0,1,.53-.11,6.88,6.88,0,0,1,.79,0,6.78,6.78,0,0,1,.77,0,2.74,2.74,0,0,1,.52.11.79.79,0,0,1,.38.24.6.6,0,0,1,.14.38v9A4.72,4.72,0,0,0,78,86.7a2.65,2.65,0,0,0,.58,1,2.4,2.4,0,0,0,.9.59,3.45,3.45,0,0,0,1.21.2,3.34,3.34,0,0,0,1.21-.21,2.35,2.35,0,0,0,.88-.59,2.7,2.7,0,0,0,.56-1,4.11,4.11,0,0,0,.2-1.35V76.19a.61.61,0,0,1,.12-.37.75.75,0,0,1,.38-.25,2.72,2.72,0,0,1,.53-.11,7,7,0,0,1,.78,0,6.59,6.59,0,0,1,.77,0,2.73,2.73,0,0,1,.52.11.75.75,0,0,1,.38.25.61.61,0,0,1,.12.37v9.16A7.48,7.48,0,0,1,86.73,88a5.22,5.22,0,0,1-1.28,2,5.57,5.57,0,0,1-2.08,1.23A8.73,8.73,0,0,1,80.57,91.57Z"/><path class="cls-4" d="M91.75,91.37a6.83,6.83,0,0,1-.78,0,2.75,2.75,0,0,1-.53-.11.74.74,0,0,1-.38-.25.61.61,0,0,1-.12-.37V76.87a1.36,1.36,0,0,1,.37-1,1.32,1.32,0,0,1,.95-.35h3.6c.37,0,.72,0,1.05,0a11.18,11.18,0,0,1,1.2.18,5.5,5.5,0,0,1,1.46.53,4.4,4.4,0,0,1,1.27,1,4.14,4.14,0,0,1,.81,1.4,5.41,5.41,0,0,1,.27,1.77,6.33,6.33,0,0,1-.42,2.38,4.69,4.69,0,0,1-1.24,1.77,5.44,5.44,0,0,1-2,1.09,9,9,0,0,1-2.71.37h-1v4.61a.6.6,0,0,1-.14.38.78.78,0,0,1-.37.24,2.68,2.68,0,0,1-.53.11A6.76,6.76,0,0,1,91.75,91.37Zm2.95-8.29a3.12,3.12,0,0,0,1.15-.18,1.88,1.88,0,0,0,.72-.49,2.16,2.16,0,0,0,.43-.77,3.22,3.22,0,0,0,.15-1,2.5,2.5,0,0,0-.25-1.19,1.71,1.71,0,0,0-.6-.67,2.07,2.07,0,0,0-.77-.28,6.41,6.41,0,0,0-.9-.06H93.58v4.65Z"/><path class="cls-4" d="M18.52,92.88v1.89c0,.71,0,1.3-.05,1.9h0c.23-.47.51-1,.83-1.49l1.45-2.31h.58v4.49H20.8V95.46c0-.73,0-1.26.05-1.83h0A13.68,13.68,0,0,1,20,95.14L18.6,97.37H18V92.88Z"/><path class="cls-4" d="M23.28,92.88v1.88h2.17V92.88H26v4.49h-.59V95.26H23.28v2.11H22.7V92.88Z"/><path class="cls-4" d="M28.24,93.37H26.87v-.49H30.2v.49H28.83v4h-.59Z"/><path class="cls-4" d="M33.36,95.26H31.62v1.62h1.95v.49H31V92.88h2.43v.49H31.62v1.42h1.75Z"/><path class="cls-4" d="M34.65,92.93a6.82,6.82,0,0,1,1.11-.09,1.85,1.85,0,0,1,1.26.37,1.21,1.21,0,0,1,.39.94,1.32,1.32,0,0,1-.35,1,1.86,1.86,0,0,1-1.37.49,2,2,0,0,1-.47,0v1.8h-.58Zm.58,2.17a2,2,0,0,0,.48,0c.7,0,1.13-.34,1.13-1s-.42-.88-1.06-.88a2.39,2.39,0,0,0-.55,0Z"/><path class="cls-4" d="M39.11,92.88v1.88h2.17V92.88h.59v4.49h-.59V95.26H39.11v2.11h-.58V92.88Z"/><path class="cls-4" d="M45.55,95.26H43.8v1.62h1.95v.49H43.22V92.88h2.43v.49H43.8v1.42h1.75Z"/><path class="cls-4" d="M47.72,93.37H46.35v-.49h3.33v.49H48.31v4h-.59Z"/><path class="cls-4" d="M51.37,95.35v.43H49.72v-.43Z"/><path class="cls-4" d="M56.2,95.4c0-.63-.07-1.38-.07-1.94h0c-.15.53-.34,1.09-.57,1.71l-.79,2.18h-.44l-.73-2.14c-.21-.63-.39-1.21-.52-1.75h0c0,.56,0,1.31-.09,2l-.12,1.93h-.55l.31-4.49h.74L54.11,95c.19.55.34,1,.45,1.51h0c.11-.45.27-.95.47-1.51l.8-2.17h.74l.28,4.49h-.57Z"/><path class="cls-4" d="M58.78,96l-.47,1.41h-.6l1.53-4.49h.7l1.53,4.49h-.62L60.38,96Zm1.47-.45-.44-1.29c-.1-.29-.17-.56-.23-.82h0c-.07.27-.14.54-.23.81l-.44,1.3Z"/><path class="cls-4" d="M64.86,92.88v.49H63.05v4h-.58V92.88Z"/><path class="cls-4" d="M65.88,96l-.47,1.41h-.6l1.53-4.49H67l1.53,4.49H68L67.48,96Zm1.47-.45-.44-1.29c-.1-.29-.17-.56-.23-.82h0c-.07.27-.14.54-.23.81L66,95.5Z"/><path class="cls-4" d="M69.47,93.14a2.13,2.13,0,0,1,1.19-.34c.78,0,1.32.41,1.32,1.1A1.13,1.13,0,0,1,71,95h0a1.12,1.12,0,0,1,1.09,1.13c0,.93-.81,1.31-1.63,1.31a2.3,2.3,0,0,1-1.17-.29l.15-.45a2.17,2.17,0,0,0,1,.27c.67,0,1-.36,1-.85,0-.67-.65-.87-1.22-.87H70v-.44h.27A1,1,0,0,0,71.37,94c0-.45-.32-.71-.81-.71a1.84,1.84,0,0,0-.93.29Z"/><path class="cls-4" d="M73.8,92.88v1.89c0,.71,0,1.3-.05,1.9h0c.23-.47.51-1,.83-1.49l1.45-2.31h.58v4.49h-.55V95.46c0-.73,0-1.26.05-1.83h0a13.68,13.68,0,0,1-.83,1.51l-1.41,2.23h-.62V92.88Z"/><path class="cls-4" d="M78.56,92.88v1.88h2.17V92.88h.59v4.49h-.59V95.26H78.56v2.11H78V92.88Z"/><path class="cls-4" d="M88.2,95.4c0-.63-.07-1.38-.07-1.94h0c-.15.53-.34,1.09-.57,1.71l-.79,2.18h-.44l-.73-2.14c-.21-.63-.39-1.21-.52-1.75h0c0,.56,0,1.31-.09,2l-.12,1.93h-.55l.31-4.49h.74L86.11,95c.19.55.34,1,.45,1.51h0c.11-.45.27-.95.47-1.51l.8-2.17h.74l.28,4.49h-.57Z"/><path class="cls-4" d="M92.44,95.26H90.69v1.62h1.95v.49H90.11V92.88h2.43v.49H90.69v1.42h1.75Z"/><path class="cls-4" d="M96.25,92.88v.49H94.31v1.21a5.16,5.16,0,0,1,.55,0,2.14,2.14,0,0,1,1.16.3,1.24,1.24,0,0,1,.57,1.1,1.32,1.32,0,0,1-.37,1,2.28,2.28,0,0,1-1.59.5,6.69,6.69,0,0,1-.91-.05V92.88Zm-1.94,4a2.56,2.56,0,0,0,.49,0,1.32,1.32,0,0,0,.95-.35A.93.93,0,0,0,96,96a.84.84,0,0,0-.37-.73,1.5,1.5,0,0,0-.85-.23l-.46,0Z"/><path class="cls-4" d="M100,95.26H98.26v1.62h1.95v.49H97.68V92.88h2.43v.49H98.26v1.42H100Z"/><path class="cls-4" d="M104.43,92.88v4.49h-.59v-4h-1.49v1.36c0,1,0,2.06-.67,2.49a1.35,1.35,0,0,1-.69.21l-.07-.47a1,1,0,0,0,.47-.24,3.14,3.14,0,0,0,.39-1.95V92.88Z"/><path class="cls-4" d="M106.32,92.88v1.89c0,.71,0,1.3-.05,1.9h0c.23-.47.51-1,.83-1.49l1.45-2.31h.58v4.49h-.55V95.46c0-.73,0-1.26.05-1.83h0a13.76,13.76,0,0,1-.83,1.51l-1.41,2.23h-.62V92.88Z"/></g></g></g></svg>