<svg xmlns="http://www.w3.org/2000/svg" viewBox="0 0 117.76 67.21"><defs><style>.cls-1{fill:#202020;}.cls-2{fill:#b6b6b6;}.cls-3{fill:#fff;}.cls-4{fill:#696969;}</style></defs><title>Ресурс 19kaa</title><g id="Слой_2" data-name="Слой 2"><g id="Шар_61" data-name="Шар 61"><g id="knopka"><path d="M9.75,53.19a7.13,7.13,0,0,0-.15,3.54,7.83,7.83,0,0,0,2.17,3.82,16.3,16.3,0,0,0,5.34,3.66A44.08,44.08,0,0,0,27.23,67c4.84.65,12.57,0,18.09-4.72,3.22-2.77-1.74-9.28-6.37-16.51-1.39-2.17-2.48-4.43-3.91-6.51s-2.9-4.11-4.17-6.28a17,17,0,0,1-2.33-6.91,16.7,16.7,0,0,1-.24-4.16,15,15,0,0,1,.27-2,12.24,12.24,0,0,1,.79-2.25A4.16,4.16,0,0,1,32,15.71c2-.1,4.51,1.15,6.19,2.26l4.72-2.86c-.78-.68-1.52-1.1-2.29-1.73C39.2,12.2,39.1,11.62,37,11.15a15.92,15.92,0,0,0-5-.31,8.31,8.31,0,0,0-4.72,1.92,17.32,17.32,0,0,0-2.3,2.42,12.58,12.58,0,0,0-2.23,6.27,26.63,26.63,0,0,0,.68,7.7A30.33,30.33,0,0,0,27.1,37c1.37,2,1.68,2.32,3.17,4.59.35.54,1.48,2,1.8,2.6s.75,1.27,1.06,1.92a11.07,11.07,0,0,1,1.24,3.43A3.79,3.79,0,0,1,34,51.29c-.85,1.14-2,2-5.13,1.87-2-.08-.64.06-2.83-.1a22.88,22.88,0,0,0,2.41-1.38c2.89-1.88,2.31-6.2-.56-8.05-3.54-2.11-6.83-1.78-8.67-1.8-.41,0-1,0,.1-.64,1.92-1.08,2.27-2.2,2.33-3.12.21-3.46-3.51-5.1-8.54-4.78-2.07.13-3.51.26-4.91.38-.17,0,.19-.15.84-.77a2.18,2.18,0,0,0,.79-2.14c-.39-1.53-2.12-1.84-3-1.88-1.35-.06-5.41.24-5.18,1.58.09.56,1.08.71,2.08.78a20.67,20.67,0,0,0,2.22,0c-.41.22-.79.31-1.54.67-.92.44-1.36.63-2.12,1C-1.32,34.85-1,39.32,5.4,39.43c1.65,0,2.63-.16,2.33,0a7.86,7.86,0,0,0-2.31,1.64c-2.09,2-2.55,3.68-2.15,5.39.33,1.39,1.88,3.48,5.25,4.09,1.71.31,1.86.31,2.48.4A5.56,5.56,0,0,0,9.75,53.19Z"/><path class="cls-1" d="M17.74,50c1.26-.39,3.53-.56,4.35.7.16.25.57,0,.4-.23-1-1.47-3.4-1.37-4.88-.91-.29.09-.16.54.12.45Z"/><path class="cls-2" d="M35,50.89a4.12,4.12,0,0,1-.61,1.38,5.9,5.9,0,0,1-1.74,1.3,6.81,6.81,0,0,1-4.1.59,42.81,42.81,0,0,1-5.62-.68A18.78,18.78,0,0,0,27.6,51a3.85,3.85,0,0,0-.47-6.33A16.64,16.64,0,0,0,18,42.5a17.3,17.3,0,0,1-2.65,0,29.65,29.65,0,0,0,3.17-1.71c1.3-1,1.89-1.52,2-2.95,0-1.21-1.46-4.25-7.68-3.86-1,.06-5.87.47-6.75.51-.46,0,.3-.49,1-1S9.1,32.1,9,31c-.14-1.76-3.49-1.36-3.49-1.36s-2.73.13-3.13.56,1.74.25,2.54.34c.65.08,2.19.07,2,.57a9.32,9.32,0,0,1-2,1.26c-.64.33-1.09.51-2,1C-.63,35.2.95,38.43,6,38.43c2.84,0,8.49-1.09,5.85,0-1.7.72-3.28,1-5.18,2.7-2.45,2.14-2.35,3.42-2,4.72s2.11,3,5.49,3.35c1.77.19,1.92.55,3.93.24a4.52,4.52,0,0,0-1.26.79,6.72,6.72,0,0,0-1.66,2.22,5.44,5.44,0,0,0-.22,3.44,9.38,9.38,0,0,0,1.41,2.9,15.43,15.43,0,0,0,5.31,4,27.87,27.87,0,0,0,8.42,2.28c4.52.3,9.2-.8,11.9-3.86s4.3-8.57-.06-15.6c-1.31-2.11-2.34-4.31-3.69-6.33s-2.74-4-3.94-6.11a16.91,16.91,0,0,1-2.19-6.72,17,17,0,0,1-.23-4,16,16,0,0,1,.26-2,12.17,12.17,0,0,1,.75-2.19,3.91,3.91,0,0,1,2.52-1.87c1.91-.1,4.25,1.12,5.84,2.2l4.45-2.78c-.73-.66-1.43-1.07-2.16-1.68a6.42,6.42,0,0,0-3.56-2,13.41,13.41,0,0,0-4.47-.25A6.68,6.68,0,0,0,27.23,14a8.2,8.2,0,0,0-1.4,1.64A13.49,13.49,0,0,0,23.59,22a22.06,22.06,0,0,0,.56,6.7,30.52,30.52,0,0,0,3.78,8.42c1.38,1.83,2.57,3.33,4,5.54.33.53.85,1.32,1.15,1.92s.58,1.07.87,1.71C34.67,47.91,35.24,49,35,50.89Z"/><path d="M27.57,26.07a14.35,14.35,0,0,0,1.1,4.25c2.92,5.71,5.42,8.89,8,13.18,2.39,3.94,4.22,7.91,3.2,12.44a13,13,0,0,1-11,9.28L25,65.4c1.12.68,5.59,1.19,10.43.75a16.28,16.28,0,0,0,7.73-2.33c7.68-4.69,7.74-11,6.21-15.64a26.51,26.51,0,0,0-5.43-8.47c-2.29-2.42-4.6-4.24-7.67-8.22-1.86-2.42-1.61-4.23-2.17-7.14A4.1,4.1,0,0,1,34,23.5c2.12-4.62,1.71-6.95-2.06-7.34a3.58,3.58,0,0,0-3.41,1.74,8,8,0,0,0-.89,2.69A19.93,19.93,0,0,0,27.57,26.07Z"/><path class="cls-3" d="M28.22,26.17a15.62,15.62,0,0,0,1.2,4.36c2.31,4.72,5,8.56,7.71,13.08,2.31,3.61,4.22,7.54,3.41,12.24a12.47,12.47,0,0,1-8.28,9.27,11.84,11.84,0,0,1-2.48.5,28.41,28.41,0,0,0,6-.22A14.55,14.55,0,0,0,42.53,63c6.63-4.56,7.5-9.77,5.7-15a21.3,21.3,0,0,0-4.69-7.49c-2.15-2.38-4.11-4.72-7.22-8.13-1.8-2-2.38-4.66-2.91-7.53a4.57,4.57,0,0,1-.07-.83c2-4.54,2.55-6.62-1-7.18a2.8,2.8,0,0,0-3,1.18,10,10,0,0,0-1,3A15.07,15.07,0,0,0,28.22,26.17Z"/><path class="cls-2" d="M34.52,15.61c.13-.15.65-.48.81-.79a11.29,11.29,0,0,1,2.06-2.56c-.68-.22-1.52-.42-1.53-.42a9.22,9.22,0,0,0-3.68-.15,7.34,7.34,0,0,0-2,.54c.73,4.74,1.24,3.22,1.58,3.77.08,0,.26.17.34.16,1,.18.43-.12,1.52.49A6.25,6.25,0,0,1,34.52,15.61Z"/><path d="M27.94,54c-1.33-.39-6.92.45-8.22,7.44C19.71,61.44,17.26,50,27.94,54Z"/><path d="M11.87,49.76c-.09.17,0,.59,0,.59s-.15.56-.28,1.24c1.34-1.8,4.63-3.46,6.58-4,2.25-.61,3.23-.44,3.2-.69s-2-.07-2.29,0A15.57,15.57,0,0,0,11.87,49.76Z"/><path d="M16.38,42.56a2.56,2.56,0,0,1,.61-.07h.08a2,2,0,0,1,.34,0l1.08,0c.68,0,1.37-.06,2-.05,0-.14,0-.42-.12-.49a23.18,23.18,0,0,0-6.31.16,15.75,15.75,0,0,0-3.38.9c.08.16.13.07,2.45-.23A22.47,22.47,0,0,1,16.38,42.56Z"/><path d="M33.79,52.36c-1,1.94-4.28,3.21-2.93,10.43C30.85,62.79,23.74,55.44,33.79,52.36Z"/><path d="M27,15.32c.05,1.3.33,2.28.37,3-.8-.38-1.59-2-1.72-3.49a19.66,19.66,0,0,1,2-1.8A4.46,4.46,0,0,0,27,15.32Z"/><path d="M12.72,52.75c1.6-1.77,4.73-3.24,8.66-1.21C15.24,45.45,9.28,52.71,9.73,55a6.74,6.74,0,0,0,2.58,4A5,5,0,0,1,12.72,52.75Z"/><path d="M33.13,44.22c1.82,1.44,3,1,3.77,1.12a3.25,3.25,0,0,1-3.52.9s-2-4.09-3-4.86A12.8,12.8,0,0,1,33.13,44.22Z"/><path d="M28.39,37.24c1.9.85,3.12.23,3.63.33-.42.79-2,2.51-3.21,1.44,0,0-2.14-3-3.28-4.42A7.42,7.42,0,0,0,28.39,37.24Z"/><path d="M24.43,29.7c1.53,1.35,3.07.84,3.77.93a3.76,3.76,0,0,1-3.58,1.16s-1.24-3.87-1.7-5.07C23.8,29,23.29,28,24.43,29.7Z"/><path d="M23.78,21.74a5.58,5.58,0,0,0,1.91,2.79A2.21,2.21,0,0,1,23,23.37a48.71,48.71,0,0,0,.55-5.09A11.25,11.25,0,0,0,23.78,21.74Z"/><path d="M16.2,47.5c.42.23,1.53-.24,1.92.06,3.35-.84,5.74-.5,8,1.53,0,0-.62-2.34-2.33-3C22.55,45.65,21,45.26,16.2,47.5Z"/><path d="M9.24,47.43c.49-2.34,3.22-5.31,8.71-5.18C17.95,42.25,9.53,38.19,9.24,47.43Z"/><path d="M34.72,48.62c.86.93.57,4.31,4.52,6.69C39.23,55.31,32.34,56.18,34.72,48.62Z"/><path d="M5,42.47c2.79-3.07,7.54-4.8,11.31-1.58C16.34,40.89,13.16,33.38,5,42.47Z"/><path d="M32.8,12.56c-.61.9-.92,1.69-1.26,2.22a3.9,3.9,0,0,1,.59-3.2,16.39,16.39,0,0,1,2.27-.18A3.74,3.74,0,0,0,32.8,12.56Z"/><path d="M20.48,43.59c-2.19.67-3.37,2.72-4.3,4.09-.45-2.34,1.26-5.07,3.1-5.46a8.66,8.66,0,0,1,7.78,2.16A9.81,9.81,0,0,0,20.48,43.59Z"/><path d="M39.29,35a12.48,12.48,0,0,1-.77,1.14,4.67,4.67,0,0,1-2.19,1.26,7.36,7.36,0,0,1-3.25.13.29.29,0,0,1,0,.2,7,7,0,0,0,3.73,0,4.18,4.18,0,0,0,2.82-2.36A2.25,2.25,0,0,1,39.29,35Z"/><path d="M48.87,47.39c-2.7,2.87-5.5,3.13-8.65,3a.45.45,0,0,1,0,.27,13,13,0,0,0,3.23.15A6.82,6.82,0,0,0,49,47.74,2.47,2.47,0,0,1,48.87,47.39Z"/><path d="M49.6,54.09c-1.58,1.38-2.17,2.48-5,3a11.3,11.3,0,0,1-4.83-.14,2.72,2.72,0,0,1-.18.45,9.72,9.72,0,0,0,4.65.6c2.43-.32,3.54-.68,5.46-3.1C49.85,54.72,49.74,54,49.6,54.09Z"/><path d="M47.39,59.43a8,8,0,0,1-4.9,3.27,7.42,7.42,0,0,1-3,.29A8.33,8.33,0,0,1,37,62.11a3.48,3.48,0,0,1-.48-.32,2.28,2.28,0,0,1-.22.29,4.89,4.89,0,0,0,1,.73,7.65,7.65,0,0,0,2.4.77,7,7,0,0,0,4.73-.87C47.18,60.94,47.48,59.26,47.39,59.43Z"/><path d="M44.21,40.46c-1.57,2.47-3.62,2.91-7.45,2.94,0,.08.08.18.05.25a11.38,11.38,0,0,0,2.84.12c1.7-.15,4-.79,4.72-3.14C44.41,40.5,44.28,40.35,44.21,40.46Z"/><path d="M35.94,31.2l-.13.13a4.36,4.36,0,0,1-1.29.93,7.57,7.57,0,0,1-1.73.54,4.43,4.43,0,0,1-2.64-.28c-.11,0,.35.27.45.33,1,.57,3.11.2,4-.18A5,5,0,0,0,36,31.74a2.15,2.15,0,0,0,.19-.21A2.38,2.38,0,0,1,35.94,31.2Z"/><path d="M34.09,27.38l-.16.09a4.37,4.37,0,0,1-1.48.57,7.51,7.51,0,0,1-1.81.08,4.45,4.45,0,0,1-2.48-.94c-.1,0,.27.35.35.43.83.81,3,1,3.89.84A5,5,0,0,0,34,27.91l.23-.15A2.31,2.31,0,0,1,34.09,27.38Z"/><path d="M32.59,23.51a3.27,3.27,0,0,1-.64.12,7.75,7.75,0,0,1-1.81-.08,4.45,4.45,0,0,1-2.39-1.15c-.1,0,.24.37.31.46.76.88,2.86,1.24,3.81,1.17a4.73,4.73,0,0,0,1-.19A2.09,2.09,0,0,1,32.59,23.51Z"/><path d="M31.76,19.91a8,8,0,0,1-.94-.62,4.45,4.45,0,0,1-1.55-2.15c-.07-.08,0,.44.05.56a5.36,5.36,0,0,0,2.36,2.63A2.59,2.59,0,0,1,31.76,19.91Z"/><path class="cls-2" d="M47.35,12.91c-1.3-.35-5.44-2.19-5.75-3.13-.57-1.72-1-1.73-1.68-2s-1.69,1-2.16,1.2C27.64,4.25,24.37,12.47,24.3,13.15a1.78,1.78,0,0,1-.48,1.06c-6.08,6.11-1.85,8-1.85,8s0,.3.52.44l.37.12a2.78,2.78,0,0,1,.94.53c.37.16.73.32,1.09.5a35.58,35.58,0,0,0,4.51,1.37c2,.66,3.91,1.56,5.91,2.06a.6.6,0,0,1,.31-.21c1.21-.27,4.45-1.1,5-1.73,1.37-1.7,1.69-3,4.58-3.05C49.3,22.11,52.83,14.38,47.35,12.91Z"/><path d="M29.21,25A6.36,6.36,0,0,0,31,26c1.68.48,3.6,1.24,5.07,1.2,3.53-.22,5.32-1.32,6.17-2.85L46,22.59c2.35.2,3.64-1.24,4.75-6.51.68-3.28-4.84-3.72-6.11-4.7s-2.4-1.46-3-2.62A2.53,2.53,0,0,0,40,7.41a2.67,2.67,0,0,0-2.22.76c-4-3-12-1.18-13.83,4-.2.56-.14,1.11-.38,1.57-.35.7-1.2,1.08-1.71,1.66-.95,1.09-2.13,3.11-1.77,4.91a3.18,3.18,0,0,0,.57,1.57,6.21,6.21,0,0,0,.56.73c.15.2.46.43,1.08,1a12.51,12.51,0,0,0,5.53,1.69,7.49,7.49,0,0,1,2.91.62,20.52,20.52,0,0,0-2.1-1.62c-3.63-.06-7.09-2.68-7.32-4.51-.29-2.24,1.62-4.06,3.16-5.59a1.73,1.73,0,0,0,.31-.49A6.67,6.67,0,0,1,27.43,9.4c3.24-2.06,7.75-1.83,10.15,0,.6-.91,1.71-1.68,2.4-1.58.33.05.34.24.64.62.68.86.85,1.77,1.14,2,2.17,1.43,5.2,2.44,7.19,3.63,1.23.73-.05,5.29-1,6.21-1.24,1.24-2.57.81-4,1.49a12.58,12.58,0,0,1-7.14,1.4A17.1,17.1,0,0,1,32,22.29a18.45,18.45,0,0,1-2-1l-.42-.11A17.44,17.44,0,0,0,37,23.5c.6.07-.18.63.77.88l2.08.17c.71,0,1-.17,1.1-.06-.54.78-2.64,2.1-5.92,1.85a17,17,0,0,1-7.92-3.57c.63.46.75.94,1.39,1.68"/><path d="M41.5,23.09c.55.44-1.28,1.45-1.28,1.45-9.33.4-12.26-5.41-12.26-5.41C31.44,23.94,41.5,23.09,41.5,23.09Z"/><path d="M39.79,23.12A16.2,16.2,0,0,1,30.4,21c-1.71-.94-3.07-2.29-3.26-4.05,0-.33,0-.46.39-.79-.72.1-1,.72-1.33,1.37.24-.28.39-.43.48-.14.89,3.72,6.06,6.42,10.81,6.93Z"/><path d="M29.48,25.17a10.58,10.58,0,0,0,1.64,1,11.69,11.69,0,0,0,5.46,1.16A6.25,6.25,0,0,0,41,25.7a1.91,1.91,0,0,1-.17-.46c0-.13,0-.18,0-.31a7.91,7.91,0,0,1-5.66,1.42,17,17,0,0,1-7.92-3.57A8.93,8.93,0,0,0,29.48,25.17Z"/><path d="M47.57,17.45c.7.2,1.66-.94,1.09-1.62C47.82,15.06,46.8,16.69,47.57,17.45Z"/><path class="cls-4" d="M47.77,17.58c.36.12,1-.52.7-.91S47.41,17.13,47.77,17.58Z"/><path class="cls-3" d="M39.42,6.2a2.19,2.19,0,0,1,3.1.53C44,8.32,43.71,10.06,42.46,11a12,12,0,0,0-5-.39C37.59,9.71,38.27,6.67,39.42,6.2Z"/><path d="M40,5.45a3.13,3.13,0,0,1,3.43,3.92c0-2-2.25-3.65-3.47-3a3.88,3.88,0,0,0-1.36,1.43c-.2.31-.78,1.62.11,1.84.25.06.81.2,1-.32a1,1,0,0,0-.34-1c.83-.65,2.2.87,1.32,2.27.38.21,2.8-.25,4.41,1.59A15.29,15.29,0,0,0,36.85,11c.52-.4.51-.51.53-.63C36.92,7.56,38.46,5.74,40,5.45Z"/><path d="M44.15,22.38a4.06,4.06,0,0,1-1.51.38,34.22,34.22,0,0,1,2.87,7.17l.68-2.76,2.07,1.5C47.83,27,45.89,24.42,44.15,22.38Z"/><path class="cls-3" d="M34.41,11.36c1-1.82,1-4.29-1.49-5.51s-3.46.24-4.28,1C27.3,8,27.57,12,27.71,13.25a21.61,21.61,0,0,1,6.69-1.82S34.55,10.95,34.41,11.36Z"/><path d="M26.29,14a34.8,34.8,0,0,1,9-2.66c.74-.08-.79-.19-.79-.19a16.53,16.53,0,0,0-2.71.39C32.43,9.28,30,8.13,29.19,9.4A1.13,1.13,0,0,1,30,10.53c0,.74-.83.88-1.18.94-1.26.21-1-1.77-.86-2.27a6.1,6.1,0,0,1,1.25-2.56c1.39-1.43,4.92-.58,5.76,1.93-.12-3.67-3.95-4.39-6-3.06-1.87,1.18-3.2,4.33-1.51,7.62C26.71,13.8,27.59,13,26.29,14Z"/><path d="M38.58,17.68c.51-1.26,2.36-.62,2.24,1.24a1.51,1.51,0,0,1-2-.16C38.88,18.83,38.3,18.15,38.58,17.68Z"/><path class="cls-4" d="M39,18.69c.06-.88,1.38-.86,1.7.32a1,1,0,0,1-1.31.3C39.43,19.34,38.91,19,39,18.69Z"/><path class="cls-2" d="M27.55,25.88l-4-1.59A6.9,6.9,0,0,0,25,24.22,5.4,5.4,0,0,0,27.22,23Z"/><polygon points="28.86 24.6 27.5 25.39 27.2 22.77 28.86 24.02 28.86 24.6"/><path d="M13.84,34c-.51-.27-3.41.09-4.75,3.38C9.1,37.35,6.24,32.14,13.84,34Z"/><path d="M18.67,35.62c-1.45-.58-2.86-.31-5.08,1.57,1.06-5.45,6.85-2.71,7.49-1.08a3.6,3.6,0,0,1-.38,3.08A3.26,3.26,0,0,0,18.67,35.62Z"/><path d="M62,59.9a1.67,1.67,0,0,1-.85-.57,1.93,1.93,0,0,1-.25-.68c.68-5.2.88-6.11,1.53-11.08l1.86-14.28a6,6,0,0,1,2.47-2.23,1.62,1.62,0,0,1,2.65.91L67.76,46.2c-.59,4.95-.72,5.83-1.33,11a4.43,4.43,0,0,1-1.79,2.17A5.36,5.36,0,0,1,62,59.9Z"/><path d="M77.21,56.42c-1.77-.83-7.65-6.13-8.91-7.3q-1.87-.46-1.77-1.5a3.91,3.91,0,0,1,1-2.12,15.6,15.6,0,0,1,2.19-2.08q1.25-1,1.72-1.43c.08-.08.53-.72,1.35-1.91a32.68,32.68,0,0,1,2.82-3.5A13.15,13.15,0,0,1,78.89,34a1.78,1.78,0,0,1,2.63.54,4.08,4.08,0,0,1-.59,2.83,20,20,0,0,1-2.21,3.18,40.44,40.44,0,0,1-2.81,3c-1,1-1.76,1.74-2.33,2.34a14.28,14.28,0,0,0,1.24,1.9,39.16,39.16,0,0,1,2.28,3.65A13.57,13.57,0,0,1,78.54,55Q78.89,56.52,77.21,56.42Z"/><path d="M100.09,43.1a24.73,24.73,0,0,0-1-9,6.56,6.56,0,0,0-4.12-2.92,8.38,8.38,0,0,0-4.55.48,14.09,14.09,0,0,0-4.28,2.68,16.67,16.67,0,0,0-3.18,3.68A20.7,20.7,0,0,0,82,41.81q-.46,2.61-.67,5.38a49.08,49.08,0,0,0-.07,5.93c.1,1.54.41,2.42.93,2.64,1,0,1.25-.06,1.71-.52A4.36,4.36,0,0,0,85,53.32a16.27,16.27,0,0,0,.49-3.08q0-1.25,0-2.33a10.39,10.39,0,0,0,5.56-.16,17,17,0,0,0,4.82-2.83c0,.05.13.71.35,2a19.36,19.36,0,0,0,.86,2.62,9.52,9.52,0,0,0,1.27,3c.49.69,1,.4,1.54-.84C99.87,48.64,99.93,46.61,100.09,43.1Zm-2.58-3.59a6.79,6.79,0,0,1-1.64,3,8.88,8.88,0,0,1-3,2.08,9,9,0,0,1-3.6.79C87,44.71,85.9,43.51,86,41.77a7.69,7.69,0,0,1,2-4.71,9.11,9.11,0,0,1,4.54-2.84A4,4,0,0,1,97.12,36,5.23,5.23,0,0,1,97.51,39.51Z"/><path d="M117.61,45.49a25,25,0,0,0-.58-8.86,5.5,5.5,0,0,0-3.86-2.83,7.07,7.07,0,0,0-4.2.83,13.06,13.06,0,0,0-3.66,2.94,15.34,15.34,0,0,0-2.44,3.6,19.33,19.33,0,0,0-.54,3.35q-.22,2.24-.24,4.51a31.55,31.55,0,0,0,.2,4q.22,1.75.79,2a1.91,1.91,0,0,0,1.58-.4,2.4,2.4,0,0,0,.63-1.31,7.34,7.34,0,0,0,.08-1.8c0-.66-.07-1.29-.08-1.88a7.89,7.89,0,0,0,4.41-.06,14.33,14.33,0,0,0,4.08-2.42,14.13,14.13,0,0,0-.21,2.42,11,11,0,0,0,.35,3.62,4.23,4.23,0,0,0,1.28,2.2c.47.23.83.37,1.34-.63C116.65,52.23,117.31,48.69,117.61,45.49Zm-2.23-3.37A6.89,6.89,0,0,1,113.82,45a7.85,7.85,0,0,1-2.6,1.89,7.09,7.09,0,0,1-3,.69c-1.86-.56-2.77-1.58-2.74-3.11A7.45,7.45,0,0,1,107,40.07a8.32,8.32,0,0,1,3.94-3c1.63-.6,3-.07,4.15,1.58A5.43,5.43,0,0,1,115.38,42.12Z"/><path class="cls-1" d="M28.64.27a6.33,6.33,0,0,0-3,2.72A10.59,10.59,0,0,0,24.3,6a12.19,12.19,0,0,1,3.75-4,5.09,5.09,0,0,1,5,0A3.78,3.78,0,0,0,31.14.19,3.62,3.62,0,0,0,28.64.27Z"/><path class="cls-1" d="M41.85,3.07a3.82,3.82,0,0,1,1.41,2,6.4,6.4,0,0,1,.37,2A7.34,7.34,0,0,0,42,4.19a3.06,3.06,0,0,0-3-.65,2.29,2.29,0,0,1,1.39-.85A2.18,2.18,0,0,1,41.85,3.07Z"/></g></g></g></svg>