<svg xmlns="http://www.w3.org/2000/svg" viewBox="0 0 89 45.99"><defs><style>.cls-1{fill:#1d1d1b;}</style></defs><title>Ресурс 18laser</title><g id="Слой_2" data-name="Слой 2"><g id="Шар_61" data-name="Шар 61"><g id="knopka"><polygon class="cls-1" points="0.42 0 5.92 0 5.92 12.22 7.85 12.22 7.85 12.92 0.42 12.92 0.42 12.19 2.49 12.19 2.49 0.73 0.42 0.73 0.42 0"/><path class="cls-1" d="M21.51,7.53V4.1H31V5.27l-6,6.32h3.27a1.38,1.38,0,0,0,1.43-1.46V9.3H31v3.62H21.51V11.65l6-6.19-3.38,0c-.79,0-1.37,1.11-1.37,1.55v.54Z"/><path class="cls-1" d="M19.61,12.09q.36,0,.36.48a2.49,2.49,0,0,1-.78.26,5.15,5.15,0,0,1-.94.09,2.73,2.73,0,0,1-1.65-.43,1.56,1.56,0,0,1-.67-1,2.62,2.62,0,0,1-1.28,1.09,5,5,0,0,1-1.87.32,10.18,10.18,0,0,1-1.11-.07,4.07,4.07,0,0,1-1.12-.28,2.42,2.42,0,0,1-.87-.6,1.45,1.45,0,0,1-.36-1,1.77,1.77,0,0,1,.46-1.22,4,4,0,0,1,1.13-.91,7.29,7.29,0,0,1,1.49-.54c.54-.14,1-.12,1.53-.21.21,0,1.52,0,1.57-.08a5.75,5.75,0,0,0,0-.93,2.76,2.76,0,0,0-.29-1.52A1.44,1.44,0,0,0,14,4.87,4.82,4.82,0,0,0,12.68,5c-.29.09-1,.46-.81,1a1.56,1.56,0,0,1,0,1,1.12,1.12,0,0,1-.89.56,1,1,0,0,1-1.09-.73,1.69,1.69,0,0,1,.17-1.14,2.86,2.86,0,0,1,1-.95,5.06,5.06,0,0,1,1.53-.51,9.27,9.27,0,0,1,1.6-.09,7.11,7.11,0,0,1,1.41.13,3.43,3.43,0,0,1,1.23.44,2.41,2.41,0,0,1,.86.85A2.9,2.9,0,0,1,18,6.93v3.4a9.46,9.46,0,0,0,0,1,1.15,1.15,0,0,0,.13.46.73.73,0,0,0,.67.35c.13,0,.42,0,.51,0ZM15.38,8.78a15.81,15.81,0,0,0-2.06,0,2.92,2.92,0,0,0-.82.39,1.8,1.8,0,0,0-.55.6,1.48,1.48,0,0,0-.2.8,1.2,1.2,0,0,0,.49,1,2.21,2.21,0,0,0,1.32.36A1.91,1.91,0,0,0,15,11.43a2,2,0,0,0,.4-1.51Z"/><path class="cls-1" d="M40.84,10.59c.15-.22.26-.67.37-.67a1.59,1.59,0,0,1,.52,0c.1.06.1.61,0,1a3.31,3.31,0,0,1-2.07,1.69,8.48,8.48,0,0,1-2.84.3A6.75,6.75,0,0,1,35,12.6a4.85,4.85,0,0,1-1.56-.84,4.05,4.05,0,0,1-1.09-1.36A5,5,0,0,1,32,8.24a4.45,4.45,0,0,1,.72-2.07,5.26,5.26,0,0,1,1.61-1.5A5.82,5.82,0,0,1,37.23,4a5,5,0,0,1,3.61,1.32,4.69,4.69,0,0,1,1,3.38c0,.09-.06.14-.17.13h-7a3.66,3.66,0,0,0,.94,2.47,3.53,3.53,0,0,0,2.25.62,4.44,4.44,0,0,0,1.75-.3A3.82,3.82,0,0,0,40.84,10.59ZM37.23,4.8a2.24,2.24,0,0,0-1.62.66,3.65,3.65,0,0,0-.92,2.69h4.94s0-.71,0-.87a2.86,2.86,0,0,0-.08-.79,2.42,2.42,0,0,0-.33-.78,2,2,0,0,0-.79-.66A2.62,2.62,0,0,0,37.23,4.8Z"/><path class="cls-1" d="M50.06,4.13a5.14,5.14,0,0,1,1.3.15,2.1,2.1,0,0,1,.89.47,1.21,1.21,0,0,1,.34,1,1.43,1.43,0,0,1-.42,1.08A1.48,1.48,0,0,1,50,6.68c-.24-.38.07-.82-.23-1a2.12,2.12,0,0,0-.79-.2,2.92,2.92,0,0,0-.66.17,2.35,2.35,0,0,0-.7.47,1.75,1.75,0,0,0-.3.6,3.37,3.37,0,0,0-.12,1v3.68a1,1,0,0,0,.33.77,7.93,7.93,0,0,0,1.32.16.24.24,0,0,1,.23.26,1.14,1.14,0,0,1,0,.38c-.18,0-5.24,0-5.57,0a1.11,1.11,0,0,1,0-.38.24.24,0,0,1,.23-.26,5.34,5.34,0,0,0,.92-.13.68.68,0,0,0,.25-.56V6.28a1.34,1.34,0,0,0-.18-.73q-.18-.28-1-.37c-.2,0-.29-.13-.29-.3V4.72a.26.26,0,0,1,0-.16c.08,0,.2-.38.36-.39h2.48a5.38,5.38,0,0,1,.66,0,.26.26,0,0,1,.29.3V5.57a5.67,5.67,0,0,1,1.4-1.1A3.19,3.19,0,0,1,50.06,4.13Z"/><path class="cls-1" d="M19.67,28l.41.18c-.05.22,0,.42,0,8.54H0l0-1.4s2.84,0,3.52-.13a1.25,1.25,0,0,0,.93-1l.06-15.76a1.2,1.2,0,0,0-.09-.5.73.73,0,0,0-.34-.33,2.93,2.93,0,0,0-.65-.24c-.27-.07-2.32,0-2.74-.1-.2-.06-.17-.92-.17-.92H19.46l0,6.61A1.52,1.52,0,0,1,19,23c-.22,0-.42-.07-.47-.27-.26-1-.47-3.19-.7-3.56a5.47,5.47,0,0,0-.71-1,2.14,2.14,0,0,0-1-.56,5.7,5.7,0,0,0-1.44-.28l-6.48-.06V25h4.18a.76.76,0,0,0,.77-.47c.14-.31.26-3.55.36-4.25a.37.37,0,0,1,.18-.32.84.84,0,0,1,.38-.07h.28a1.2,1.2,0,0,1,.28,0c0,.46-.06,10.69,0,11.31a.58.58,0,0,1-.28.08h-.28q-.53,0-.56-.42c-.12-.76-.25-3.75-.4-4a.77.77,0,0,0-.73-.41H8.19v8.62s4.12.05,5.35.05h1.24a4.09,4.09,0,0,0,1.5-.24,5.2,5.2,0,0,0,1.33-.8,3.81,3.81,0,0,0,.83-1.23,28.21,28.21,0,0,0,.49-4.33.57.57,0,0,1,.74-.57"/><path class="cls-1" d="M29.81,27.48s-.14-.62-.18-.84a3.24,3.24,0,0,0-1.05-2,3.14,3.14,0,0,0-2-.92,4.36,4.36,0,0,0-2.16.47,1.48,1.48,0,0,0-.72,1.2,2.33,2.33,0,0,0,.19,1.23,2.73,2.73,0,0,0,1.1.81c.34.16.92.33,1.49.52s1.11.38,1.65.55a7.27,7.27,0,0,1,1.62.74A3.76,3.76,0,0,1,31,30.62a4.74,4.74,0,0,1,.41,1.73,4.35,4.35,0,0,1-.22,1.58,3.7,3.7,0,0,1-.9,1.44,4.32,4.32,0,0,1-1.57,1,6,6,0,0,1-2.15.28,5.65,5.65,0,0,1-2.18-.47c-.38-.16-1-.73-1.37-.94v1.38l-.86,0c0-.55,0-4.65,0-5.26a2.46,2.46,0,0,1,.57.11c.16.07.18.51.2.68a4,4,0,0,0,1.29,2.48,3.69,3.69,0,0,0,2.37,1,5.57,5.57,0,0,0,2.2-.51,1.8,1.8,0,0,0,.84-1.58,2.15,2.15,0,0,0-1-1.68,8.08,8.08,0,0,0-2.37-1,10.58,10.58,0,0,1-3.17-1.37,3.64,3.64,0,0,1-1.45-3.06,3.81,3.81,0,0,1,1.77-3.19,5,5,0,0,1,3-.82,6.21,6.21,0,0,1,2.34.87,8.17,8.17,0,0,1,1,.94l0-1.78,1.13,0s.05,4.83.05,5Z"/><path class="cls-1" d="M40.44,29.16h.79s0,3.94,0,4.93a2.67,2.67,0,0,1-1.66,2.22,6.44,6.44,0,0,1-2.16.3,5.37,5.37,0,0,1-1.27-.21,2.26,2.26,0,0,1-.93-.54,2.14,2.14,0,0,1-.65-.94,4.76,4.76,0,0,1-.27-1.73v-8.9h-2v-.75c0-.08,0-.43,0-.43a2.05,2.05,0,0,1,.42-.05,2.46,2.46,0,0,0,1.48-.34,4.25,4.25,0,0,0,1.48-1.53c.5-.75.44-3.64.63-4.22a.59.59,0,0,1,.59-.49h.62L37.43,23h3.47c0,.64,0,1.23,0,1.23l-.62,0H37.43v8.06a13.3,13.3,0,0,0,.06,1.43,2.7,2.7,0,0,0,.19.8,1.42,1.42,0,0,0,1.57.67,1.33,1.33,0,0,0,1-.94A51.38,51.38,0,0,0,40.44,29.16Z"/><path class="cls-1" d="M51.68,32.59c.08-.21.32-.21.45-.2a.54.54,0,0,1,.31.15c.12.1.08.54,0,.82-.7,1.61-1,2.12-1.92,2.64a6.25,6.25,0,0,1-3.19.66,5.83,5.83,0,0,1-2.15-.61,4.57,4.57,0,0,1-1.68-1.23,6.78,6.78,0,0,1-1.95-5,8.85,8.85,0,0,1,.66-3.59A7.17,7.17,0,0,1,43.71,24a6.79,6.79,0,0,1,2.17-1.27A4.47,4.47,0,0,1,48,22.51a3.93,3.93,0,0,1,3.45,2c.86,1.21,1.25,2.64,1.16,5.16,0,.15-.07.15-.2.15l-7.25,0c0,1.68.07,3.66.48,4.29a2.12,2.12,0,0,0,2.23,1.24,4.24,4.24,0,0,0,2.5-.57A5.78,5.78,0,0,0,51.68,32.59Zm-4.17-8.78a2.18,2.18,0,0,0-1.75,1,8.65,8.65,0,0,0-.68,4.22l4.66,0c.27,0,.35-.33.36-.58A16.5,16.5,0,0,0,50,26.43a4.49,4.49,0,0,0-.31-1.22,2.89,2.89,0,0,0-.69-.94A1.82,1.82,0,0,0,47.52,23.81Z"/><path class="cls-1" d="M62.79,36.67V35.24h3.42l0-11.13-3.3,0A8.93,8.93,0,0,1,62.8,23l5.58,0c.32,0,.47.34.47.64s.08,11.53.08,11.53c.38,0,2.75,0,2.75,0l0,1.42Z"/><path class="cls-1" d="M65,18.24a2.16,2.16,0,0,1,.61-1.58,2.21,2.21,0,0,1,3.07,0,2.4,2.4,0,0,1,0,3.16,2.22,2.22,0,0,1-3.07,0A2.16,2.16,0,0,1,65,18.24Z"/><path class="cls-1" d="M78.45,34.46a.93.93,0,0,0,.22.68,9.46,9.46,0,0,0,1.88.1l0,1.43H72.54l0-1.41,2.2-.06c.44,0,1-.38,1-.68V18.77c0-.6,0-1.11,0-1.11s-2.2,0-2.89-.06a.45.45,0,0,1-.39-.48v-.24a3.23,3.23,0,0,1,0-.61l6,0s0,1.14,0,1.79V28.48h1.61l2.59-3.32a1.18,1.18,0,0,0,.28-1c-.2-.51-1.33-.31-2-.37a.48.48,0,0,1-.48-.45A.78.78,0,0,1,80.5,23h7.29s0,.48,0,.54c0,.28-.58.19-.86.23a6.76,6.76,0,0,0-2.49.52,9.26,9.26,0,0,0-1.91,2.26,3.8,3.8,0,0,0-.1,1.84c.11.36,3.17,5.9,3.17,5.9a2.72,2.72,0,0,0,.9.87,9,9,0,0,0,2,.09l0,1.39H80.75V35.24h3l-3.06-5.41H78.45Z"/><path class="cls-1" d="M61.88,29.21h.78s0,3.94,0,4.93A2.67,2.67,0,0,1,61,36.37a6.45,6.45,0,0,1-2.16.3,5.36,5.36,0,0,1-1.27-.21,2.25,2.25,0,0,1-.93-.54A2.13,2.13,0,0,1,56,35a4.77,4.77,0,0,1-.27-1.73v-8.9h-2v-.75c0-.08,0-.49,0-.49h.42a2.47,2.47,0,0,0,1.48-.34,4.27,4.27,0,0,0,1.48-1.53c.5-.75.44-3.64.62-4.22a.59.59,0,0,1,.6-.48H59l-.09,6.55h3.47c0,.64,0,1.23,0,1.23l-.62,0H58.87V32.4a13.29,13.29,0,0,0,.06,1.43,2.65,2.65,0,0,0,.19.8,1.42,1.42,0,0,0,1.57.67,1.34,1.34,0,0,0,1-.94C61.91,33.89,61.88,29.21,61.88,29.21Z"/><path class="cls-1" d="M3.38,43.15l.59.15a2,2,0,0,1-.66,1.1,1.83,1.83,0,0,1-1.17.38A2.11,2.11,0,0,1,1,44.48a1.8,1.8,0,0,1-.68-.84A3,3,0,0,1,0,42.46a2.59,2.59,0,0,1,.26-1.2,1.81,1.81,0,0,1,.75-.78,2.2,2.2,0,0,1,1.07-.27,1.82,1.82,0,0,1,1.12.34,1.76,1.76,0,0,1,.63.95l-.58.13a1.37,1.37,0,0,0-.45-.7,1.2,1.2,0,0,0-.74-.22,1.43,1.43,0,0,0-.85.24,1.28,1.28,0,0,0-.48.65,2.82,2.82,0,0,0,0,1.83,1.22,1.22,0,0,0,.51.63,1.44,1.44,0,0,0,.75.21A1.27,1.27,0,0,0,2.92,44,1.45,1.45,0,0,0,3.38,43.15Z"/><path class="cls-1" d="M4.32,41.5H6.93v.45h-1v2.75H5.36V41.95h-1Z"/><path class="cls-1" d="M7.49,45.92l-.06-.51a1.23,1.23,0,0,0,.31,0A.61.61,0,0,0,8,45.4a.5.5,0,0,0,.18-.17,2.57,2.57,0,0,0,.17-.4l0-.13L7.21,41.5h.59l.67,1.85c.09.23.16.48.23.74a7.5,7.5,0,0,1,.22-.73L9.6,41.5h.54L8.93,44.75a6.58,6.58,0,0,1-.3.72,1.06,1.06,0,0,1-.33.39.78.78,0,0,1-.45.13A1.08,1.08,0,0,1,7.49,45.92Z"/><path class="cls-1" d="M10.83,41.5h2.23v2.75h.35V45.6H13v-.91H10.44v.91H10V44.25h.29A4.73,4.73,0,0,0,10.83,41.5Zm.45.45a5.23,5.23,0,0,1-.48,2.3h1.73v-2.3Z"/><path class="cls-1" d="M14,41.5h.54v2.44l1.51-2.44h.59v3.19h-.54V42.27L14.6,44.69H14Z"/><path class="cls-1" d="M20,41.5v3.19h-.54V43.45h-.31a.94.94,0,0,0-.43.07,1.57,1.57,0,0,0-.41.47l-.47.7h-.67l.59-.86a.94.94,0,0,1,.53-.45,1,1,0,0,1-.69-.33.94.94,0,0,1-.23-.62.86.86,0,0,1,.29-.67,1.26,1.26,0,0,1,.85-.26Zm-.54.45h-.77a.89.89,0,0,0-.63.15.5.5,0,0,0-.14.35.46.46,0,0,0,.21.42,1.45,1.45,0,0,0,.73.13h.6Z"/><path class="cls-1" d="M22.25,41.5h2.5v3.19h-.54V41.95H22.79v1.59a4.75,4.75,0,0,1,0,.73.54.54,0,0,1-.2.31.71.71,0,0,1-.47.13l-.43,0v-.45h.24a.59.59,0,0,0,.24,0,.17.17,0,0,0,.1-.11,2.68,2.68,0,0,0,0-.49Z"/><path class="cls-1" d="M27.63,44.3a2,2,0,0,1-.58.36,1.65,1.65,0,0,1-.59.11,1.15,1.15,0,0,1-.8-.26.85.85,0,0,1-.28-.66.89.89,0,0,1,.38-.74,1.25,1.25,0,0,1,.39-.18,3.82,3.82,0,0,1,.48-.08,4.88,4.88,0,0,0,1-.19c0-.07,0-.12,0-.14a.6.6,0,0,0-.15-.47.9.9,0,0,0-.61-.18.94.94,0,0,0-.56.13.83.83,0,0,0-.27.47l-.53-.07a1.33,1.33,0,0,1,.24-.55,1,1,0,0,1,.47-.32,2.12,2.12,0,0,1,.72-.11,1.86,1.86,0,0,1,.66.1.85.85,0,0,1,.37.24.84.84,0,0,1,.17.37,3,3,0,0,1,0,.5v.72a7.61,7.61,0,0,0,0,1,1.17,1.17,0,0,0,.14.38h-.56A1.14,1.14,0,0,1,27.63,44.3Zm0-1.21a3.87,3.87,0,0,1-.88.2,2.09,2.09,0,0,0-.47.11.46.46,0,0,0-.29.43.46.46,0,0,0,.16.36.69.69,0,0,0,.48.14,1.1,1.1,0,0,0,.55-.14.84.84,0,0,0,.36-.37,1.34,1.34,0,0,0,.09-.54Z"/><path class="cls-1" d="M29.6,43.25v-.42a3.34,3.34,0,0,0,.47,0,.45.45,0,0,0,.23-.15.43.43,0,0,0,.11-.3.45.45,0,0,0-.14-.35.54.54,0,0,0-.37-.13.66.66,0,0,0-.64.54l-.51-.08a1.22,1.22,0,0,1,2-.62.9.9,0,0,1,.29.67.7.7,0,0,1-.38.62.86.86,0,0,1,.48.8.88.88,0,0,1-.31.7,1.29,1.29,0,0,1-.87.27,1.12,1.12,0,0,1-1.26-1l.51-.11a.81.81,0,0,0,.28.48.74.74,0,0,0,.48.17.67.67,0,0,0,.45-.15.52.52,0,0,0,.07-.72.48.48,0,0,0-.24-.17,2.12,2.12,0,0,0-.47,0Z"/><path class="cls-1" d="M33.81,43.66l.56.07a1.36,1.36,0,0,1-.49.76,1.64,1.64,0,0,1-2-.16,1.7,1.7,0,0,1-.41-1.21,1.77,1.77,0,0,1,.41-1.25,1.39,1.39,0,0,1,1.07-.45,1.36,1.36,0,0,1,1,.44,1.73,1.73,0,0,1,.4,1.23s0,.08,0,.14H32a1.23,1.23,0,0,0,.29.81.88.88,0,0,0,.66.28.83.83,0,0,0,.51-.15A1,1,0,0,0,33.81,43.66ZM32,42.79h1.77a1.09,1.09,0,0,0-.2-.61.82.82,0,0,0-.67-.31.86.86,0,0,0-.62.25A1,1,0,0,0,32,42.79Z"/><path class="cls-1" d="M35,45.92V41.5h.49v.42a1.2,1.2,0,0,1,.39-.37,1.06,1.06,0,0,1,.53-.12,1.25,1.25,0,0,1,.72.21,1.3,1.3,0,0,1,.47.59,2.18,2.18,0,0,1,.16.84,2.15,2.15,0,0,1-.17.88,1.33,1.33,0,0,1-.51.6,1.3,1.3,0,0,1-.7.21,1,1,0,0,1-.48-.12,1.12,1.12,0,0,1-.35-.29v1.56Zm.49-2.8a1.4,1.4,0,0,0,.25.91.76.76,0,0,0,.6.29A.78.78,0,0,0,37,44a1.45,1.45,0,0,0,.26-.95,1.41,1.41,0,0,0-.25-.91.75.75,0,0,0-.6-.3.77.77,0,0,0-.61.32A1.45,1.45,0,0,0,35.53,43.11Z"/><path class="cls-1" d="M38.45,41.5H39v1.33h1.49V41.5H41v3.19h-.54V43.28H39v1.42h-.54Z"/><path class="cls-1" d="M41.63,43.1a1.65,1.65,0,0,1,.49-1.31,1.47,1.47,0,0,1,1-.36,1.42,1.42,0,0,1,1.07.43A1.65,1.65,0,0,1,44.61,43a2.13,2.13,0,0,1-.18,1,1.31,1.31,0,0,1-.54.55,1.55,1.55,0,0,1-.77.2A1.42,1.42,0,0,1,42,44.33,1.73,1.73,0,0,1,41.63,43.1Zm.55,0a1.37,1.37,0,0,0,.27.92.88.88,0,0,0,1.34,0,1.4,1.4,0,0,0,.27-.93,1.32,1.32,0,0,0-.27-.9.85.85,0,0,0-.66-.3.86.86,0,0,0-.67.3A1.37,1.37,0,0,0,42.18,43.1Z"/><path class="cls-1" d="M45.24,41.5h.54v2.44l1.49-2.44h.58v3.19h-.54V42.27l-1.49,2.42h-.58Zm1.87-1.21h.37a.88.88,0,0,1-.27.58.88.88,0,0,1-.61.2.9.9,0,0,1-.61-.2.87.87,0,0,1-.27-.58h.37a.5.5,0,0,0,.16.3.51.51,0,0,0,.33.1.58.58,0,0,0,.37-.1A.49.49,0,0,0,47.11,40.29Z"/><path class="cls-1" d="M50.5,41.5H51v1.38a.52.52,0,0,0,.36-.1,2.14,2.14,0,0,0,.31-.58,2.25,2.25,0,0,1,.26-.5.49.49,0,0,1,.23-.16,1.52,1.52,0,0,1,.42,0h.11v.45h-.15a.41.41,0,0,0-.28.06,1.55,1.55,0,0,0-.19.39,1.64,1.64,0,0,1-.23.43.92.92,0,0,1-.32.22,1.32,1.32,0,0,1,.69.65l.6,1h-.6l-.58-1a1.33,1.33,0,0,0-.31-.39.54.54,0,0,0-.32-.1v1.48H50.5Z"/><path class="cls-1" d="M53.09,43.1a1.64,1.64,0,0,1,.5-1.31,1.5,1.5,0,0,1,1-.36,1.46,1.46,0,0,1,1.09.43A1.63,1.63,0,0,1,56.1,43a2.09,2.09,0,0,1-.19,1,1.32,1.32,0,0,1-.54.55,1.59,1.59,0,0,1-.78.2,1.46,1.46,0,0,1-1.09-.43A1.71,1.71,0,0,1,53.09,43.1Zm.56,0a1.35,1.35,0,0,0,.27.92.91.91,0,0,0,1.36,0,1.38,1.38,0,0,0,.27-.93,1.31,1.31,0,0,0-.27-.9.91.91,0,0,0-1.35,0A1.36,1.36,0,0,0,53.65,43.1Z"/><path class="cls-1" d="M58.85,43.52l.54.07a1.37,1.37,0,0,1-.45.86,1.32,1.32,0,0,1-.89.31A1.39,1.39,0,0,1,57,44.34a1.72,1.72,0,0,1-.4-1.23,2.2,2.2,0,0,1,.17-.9,1.19,1.19,0,0,1,.53-.58,1.56,1.56,0,0,1,.77-.19,1.34,1.34,0,0,1,.86.26,1.2,1.2,0,0,1,.43.75l-.53.08a.86.86,0,0,0-.27-.49.7.7,0,0,0-.47-.16.85.85,0,0,0-.67.29,1.38,1.38,0,0,0-.26.93,1.44,1.44,0,0,0,.25.94.81.81,0,0,0,.65.29.76.76,0,0,0,.54-.19A1,1,0,0,0,58.85,43.52Z"/><path class="cls-1" d="M59.87,41.5h.85l.85,2.56.94-2.56h.78v3.19h-.54V42.12l-1,2.57H61.3L60.4,42v2.69h-.53Z"/><path class="cls-1" d="M66.33,43.66l.56.07a1.36,1.36,0,0,1-.5.76,1.68,1.68,0,0,1-2-.16,1.68,1.68,0,0,1-.42-1.21,1.76,1.76,0,0,1,.42-1.25,1.42,1.42,0,0,1,1.09-.45,1.38,1.38,0,0,1,1.06.44,1.72,1.72,0,0,1,.41,1.23s0,.08,0,.14H64.5a1.22,1.22,0,0,0,.3.81.9.9,0,0,0,.67.28.85.85,0,0,0,.51-.15A1.05,1.05,0,0,0,66.33,43.66Zm-1.79-.87h1.8a1.07,1.07,0,0,0-.21-.61.84.84,0,0,0-.68-.31.87.87,0,0,0-.63.25A1,1,0,0,0,64.53,42.79Z"/><path class="cls-1" d="M67.08,41.5h2.62v.45h-1v2.75h-.54V41.95h-1Z"/><path class="cls-1" d="M69.94,43.1a1.64,1.64,0,0,1,.5-1.31,1.51,1.51,0,0,1,1-.36,1.45,1.45,0,0,1,1.09.43A1.64,1.64,0,0,1,73,43a2.12,2.12,0,0,1-.19,1,1.32,1.32,0,0,1-.54.55,1.58,1.58,0,0,1-.78.2,1.46,1.46,0,0,1-1.09-.43A1.71,1.71,0,0,1,69.94,43.1Zm.56,0a1.34,1.34,0,0,0,.27.92.91.91,0,0,0,1.36,0,1.38,1.38,0,0,0,.27-.93,1.31,1.31,0,0,0-.27-.9.91.91,0,0,0-1.35,0A1.35,1.35,0,0,0,70.5,43.1Z"/><path class="cls-1" d="M73.73,41.5h2.54v3.19h-.54V41.95H74.28v1.59a4.43,4.43,0,0,1,0,.73.53.53,0,0,1-.2.31.73.73,0,0,1-.47.13l-.44,0v-.45h.24a.61.61,0,0,0,.24,0,.17.17,0,0,0,.1-.11,2.62,2.62,0,0,0,0-.49Z"/><path class="cls-1" d="M77,43.1a1.64,1.64,0,0,1,.5-1.31,1.5,1.5,0,0,1,1-.36,1.46,1.46,0,0,1,1.09.43A1.63,1.63,0,0,1,80,43a2.09,2.09,0,0,1-.19,1,1.32,1.32,0,0,1-.54.55,1.59,1.59,0,0,1-.78.2,1.46,1.46,0,0,1-1.09-.43A1.71,1.71,0,0,1,77,43.1Zm.56,0a1.35,1.35,0,0,0,.27.92.91.91,0,0,0,1.36,0,1.38,1.38,0,0,0,.27-.93,1.31,1.31,0,0,0-.27-.9.91.91,0,0,0-1.35,0A1.35,1.35,0,0,0,77.51,43.1Z"/><path class="cls-1" d="M80.62,41.5h1.85v.45H81.16v2.75h-.54Z"/><path class="cls-1" d="M82.88,41.5h.54v2.44l1.51-2.44h.59v3.19H85V42.27l-1.51,2.42h-.59Z"/><path class="cls-1" d="M86.35,41.5h.55v2.44l1.51-2.44H89v3.19h-.55V42.27l-1.51,2.42h-.59Z"/></g></g></g></svg>