<svg xmlns="http://www.w3.org/2000/svg" viewBox="0 0 124.61 40.21"><defs><style>.cls-1{fill:#1d1d1b;}</style></defs><title>Ресурс 16amtemio</title><g id="Слой_2" data-name="Слой 2"><g id="Шар_61" data-name="Шар 61"><g id="knopka"><g id="logo_amtemio" data-name="logo amtemio"><path class="cls-1" d="M8.82,14.89l1.38-5.47H66.3l-1,5.41-7.14-.06-.52,2.71H64L62.61,23.3l-7.19-.11-.64,4,6-.06L74.59,9.42H81l-1.73,9.44,8.41-9.44H95l-5.87,23H82.19L84.5,22,75.74,32.45H68.6l2.53-10.94L62.09,32.45H48.91c-1.5,0-2.76-1.55-2.19-4,.32-1.39,4-13.59,4-13.59l-4,.06L41.77,32.45H34.28l5-17.51Z"/><path class="cls-1" d="M104.25,25.77c.52-1.73,2.76-10.25,3.63-13.19S110.47,9,112.14,9h10.6c2.71,0,1.79,1.61,1.43,3.74s-2.18,9.16-2.93,12.61-1.92,6.74-3.86,6.74H103.91C101.66,32.11,103.73,27.5,104.25,25.77Zm9.63,0c.37-1.15,2.18-7.95,2.7-9.68s-1.84-2.07-2.42-.58-2.21,8.15-2.75,9.66C110.78,27,113.24,27.79,113.88,25.77Z"/><circle class="cls-1" cx="102.49" cy="4.23" r="4.23"/><polygon class="cls-1" points="97.57 9.42 104.91 9.42 99.82 32.45 90.92 40.21 97.57 9.42"/><rect class="cls-1" x="102.5" y="36.54" width="17.19" height="1.81"/><rect class="cls-1" y="36.54" width="88.85" height="1.81"/><path class="cls-1" d="M8.07,32.4l.38-1.51H8.39a6.25,6.25,0,0,1-4.15,1.78C1.92,32.67,1.36,31,2,29.24c1.05-2.89,4.09-4.48,8.5-4.45l.09-.25c.36-1,.75-2.77-1.59-2.77a7.3,7.3,0,0,0-3.3.89l0-1.43a9,9,0,0,1,4.15-1.06c3.5,0,3.44,2.5,2.57,4.9l-1.63,4.48A19.9,19.9,0,0,0,10,32.4ZM10,26.29c-2.25,0-5,.37-5.83,2.7-.51,1.41.14,2.08,1.21,2.08a4.49,4.49,0,0,0,3.5-2,3.32,3.32,0,0,0,.37-.69Z"/><path class="cls-1" d="M15.13,23.67c.45-1.24.8-2.25,1.08-3.24H18l-.61,1.93h.07a6,6,0,0,1,4.39-2.2,2.19,2.19,0,0,1,2.36,2.4h0A8.32,8.32,0,0,1,26.14,21,5.14,5.14,0,0,1,29,20.16c1.51,0,3.38,1,1.87,5.19l-2.57,7h-2l2.47-6.78c.84-2.3.54-3.68-1.14-3.68a4.32,4.32,0,0,0-3.18,2A5.15,5.15,0,0,0,23.84,25l-2.69,7.4h-2l2.61-7.17c.69-1.91.39-3.29-1.19-3.29a4.6,4.6,0,0,0-3.37,2.18,4.31,4.31,0,0,0-.55,1.06L14,32.4H12Z"/></g></g></g></g></svg>