<svg xmlns="http://www.w3.org/2000/svg" viewBox="0 0 105.66 52.45"><defs><style>.cls-1,.cls-2{fill:#1d1d1b;}.cls-1{fill-rule:evenodd;}</style></defs><title>Ресурс 20led</title><g id="Слой_2" data-name="Слой 2"><g id="Шар_61" data-name="Шар 61"><g id="knopka"><path class="cls-1" d="M0,.14V34.79H87.4a19,19,0,0,0,14-6.35c2.21-2.71,4.28-5.77,4.28-11s-1.21-9.27-3.92-11.83A17.92,17.92,0,0,0,89,.14H63.74V20.53H83.27V13.62H70.79V6.35H88.12a10.67,10.67,0,0,1,8.06,3.14c1.51,1.64,2.21,4.42,2.21,8S98,22.6,95.67,24.88a12.57,12.57,0,0,1-8.06,3.56H7.06V.14Z"/><rect class="cls-2" x="24.45" y="13.69" width="28.37" height="6.84"/><rect class="cls-2" x="24.45" width="28.37" height="6.84"/><path class="cls-2" d="M4.75,51v1.28H.39V45.47H1.85V51Z"/><path class="cls-2" d="M25.62,45.47v6.85H24.16V45.47Z"/><path class="cls-2" d="M49.62,46.89a1.85,1.85,0,0,0-.94-.25,2,2,0,0,0-1.54.63,2.45,2.45,0,0,0,0,3.22,2,2,0,0,0,1.54.64,2.32,2.32,0,0,0,.82-.15,1.83,1.83,0,0,0,.63-.37V49.8H48.33V48.53H51.6v2.63a3.75,3.75,0,0,1-2.92,1.29,3.62,3.62,0,0,1-2.6-1,3.66,3.66,0,0,1,0-5.11,3.64,3.64,0,0,1,2.6-1,3.16,3.16,0,0,1,2.83,1.53l-1.21.66A2,2,0,0,0,49.62,46.89Z"/><path class="cls-2" d="M79.94,45.47v6.85H78.48V49.44H75.24v2.87H73.79V45.47h1.46v2.69h3.23V45.47Z"/><path class="cls-2" d="M102.73,46.75v5.56h-1.47V46.75h-2V45.47h5.46v1.28Z"/></g></g></g></svg>