<svg xmlns="http://www.w3.org/2000/svg" viewBox="0 0 166.87 35.82"><defs><style>.cls-1{fill:#8b8b8b;}.cls-2{fill:#6f6f6f;}.cls-3{fill:#ababab;}.cls-4{fill:#cbcbcb;}</style></defs><title>Ресурс 5ekov</title><g id="Слой_2" data-name="Слой 2"><g id="Шар_61" data-name="Шар 61"><g id="knopka"><path class="cls-1" d="M45.66,14.74c0-2.72.72-4.09,4.14-4.09S54,12.31,54,15.37v4.76c0,3.08-.36,4.75-4.23,4.75s-4.14-1.67-4.14-4.37h1.56c0,2.21.36,2.74,2.59,2.74s2.57-.89,2.57-3.1V18.47H48.51V16.88h3.87V15.35c0-2.23-.27-3.08-2.57-3.08s-2.53.76-2.55,2.46Z"/><path class="cls-1" d="M62.56,24.81l-3.7-6.23h-1v6.23H56.21v-14h1.63V17h.63c1.22,0,1.68-1.38,2.12-2.7.63-1.92,1.23-3.75,3.53-3.42L64,12.46c-1.39-.16-1.54,1.32-1.88,2.39a6,6,0,0,1-1.76,3.1l4.2,6.87Z"/><path class="cls-1" d="M74.21,20.23c0,3.06-.65,4.71-4.28,4.71s-4.28-1.65-4.28-4.71V15.35c0-3.06.65-4.71,4.28-4.71s4.28,1.65,4.28,4.71Zm-1.64-4.89c0-2.21-.17-3.12-2.64-3.12s-2.64.91-2.64,3.12v4.91c0,2.21.17,3.08,2.64,3.08s2.64-.87,2.64-3.08Z"/><path class="cls-1" d="M76.3,10.83h3.3c2.6,0,3.53,1.47,3.56,3.64a2.68,2.68,0,0,1-1.56,2.68c1.66.36,2.38,1.59,2.4,3.37,0,3-1.58,4.29-4.28,4.29H76.3Zm1.63,1.61v4.15h1.47a2,2,0,0,0,2.12-2.12c0-1.47-.57-2-1.92-2Zm1.83,10.73c2,0,2.57-1,2.57-2.63,0-1.79-1-2.28-2.52-2.28H78v4.91Z"/><path class="cls-1" d="M89.12,12.51v12.3H87.49V12.51H84.75V10.92h7.11v1.59Z"/><path class="cls-1" d="M101.57,20.23c0,3.06-.65,4.71-4.28,4.71S93,23.29,93,20.23V15.35c0-3.06.65-4.71,4.28-4.71s4.28,1.65,4.28,4.71Zm-1.64-4.89c0-2.21-.17-3.12-2.64-3.12s-2.64.91-2.64,3.12v4.91c0,2.21.17,3.08,2.64,3.08s2.64-.87,2.64-3.08Z"/><path class="cls-1" d="M107.37,10.83c2.31,0,3.75,1,3.75,3.8v1.52c0,2.88-1,4-3.75,4h-1.92v4.64h-1.63v-14Zm-1.92,1.63v6.09h1.92c1.46,0,2.12-.47,2.12-2.39V14.63c0-1.92-.67-2.08-2.12-2.17Z"/><path class="cls-1" d="M116.58,10.83c2.31,0,3.75,1,3.75,3.8v1.52c0,2.88-1,4-3.75,4h-1.92v4.64H113v-14Zm-1.92,1.63v6.09h1.92c1.46,0,2.12-.47,2.12-2.39V14.63c0-1.92-.67-2.08-2.12-2.17Z"/><path class="cls-1" d="M128.91,10.83v1.52h-5v4.2h4.55v1.61h-4.55v5h5.46v1.61h-7.09v-14Z"/><path class="cls-1" d="M137.73,14.78c0-1.68-.34-2.45-2.53-2.45s-2.57.87-2.57,3.08v4.78c0,2.21.34,3.08,2.57,3.08s2.57-.53,2.57-2.74h1.56c0,2.7-.27,4.37-4.13,4.37S131,23.24,131,20.17V15.43c0-3.06.68-4.71,4.21-4.71s4.09,1.36,4.13,4.06Z"/><path class="cls-1" d="M144.31,18.38c.26-1.14.57-2.3.91-3.42l1.27-4.13h1.78l-3.18,9.86-.58,2c-.63,2.14-1.76,2.68-3.68,1.85l.29-1.45c.72.29,1.46.43,1.87-.91l.43-1.52-3.12-9.84h1.85L143.38,15Z"/><path class="cls-1" d="M153.06,10.83c2.31,0,3.75,1,3.75,3.8v1.52c0,2.88-1,4-3.75,4h-1.92v4.64h-1.63v-14Zm-1.92,1.63v6.09h1.92c1.46,0,2.12-.47,2.12-2.39V14.63c0-1.92-.67-2.08-2.12-2.17Z"/><path class="cls-1" d="M165.28,14.78c0-1.68-.34-2.45-2.53-2.45s-2.57.87-2.57,3.08v4.78c0,2.21.34,3.08,2.57,3.08s2.57-.53,2.57-2.74h1.56c0,2.7-.27,4.37-4.13,4.37s-4.21-1.67-4.21-4.73V15.43c0-3.06.68-4.71,4.21-4.71s4.09,1.36,4.13,4.06Z"/><path class="cls-2" d="M30.64,31l2,2c.35.36.67.24.72-.26l.87-9.59a.56.56,0,0,0-.78-.62l-9,2.94c-.47.15-.52.5-.1.78L26.91,28a10.74,10.74,0,0,1-3.58,2.18,13.55,13.55,0,0,1-4.47.81,11.43,11.43,0,0,1-3.61-.64,13.89,13.89,0,0,1-5-3.28L7.77,24.21l-4.57-.9a17.14,17.14,0,0,0,8.73,10.63,15.45,15.45,0,0,0,5.22,1.71,15.92,15.92,0,0,0,4.52,0,15.15,15.15,0,0,0,2.6-.62A19.29,19.29,0,0,0,30.64,31Z"/><path class="cls-3" d="M3.14,23.33l-2.74.78c-.48.13-.54.47-.13.75l7.91,5.48A.56.56,0,0,0,9.11,30l1.9-9.3c.1-.49-.18-.7-.63-.47L7.68,21.61a10.73,10.73,0,0,1-.13-4.19A13.54,13.54,0,0,1,9,13.13a11.42,11.42,0,0,1,2.33-2.82,13.89,13.89,0,0,1,5.3-2.69l3.69-.81,3-3.53A17.14,17.14,0,0,0,9.85,5.63,15.44,15.44,0,0,0,5.78,9.33a15.89,15.89,0,0,0-2.22,3.93,15,15,0,0,0-.74,2.57A19.28,19.28,0,0,0,3.14,23.33Z"/><path class="cls-4" d="M23.46,3.33,24.17.57c.13-.48-.13-.7-.58-.49L14.86,4.14a.56.56,0,0,0-.15,1l7.08,6.33c.37.33.7.2.72-.3l.15-3.05a10.73,10.73,0,0,1,3.69,2,13.55,13.55,0,0,1,2.95,3.45A11.44,11.44,0,0,1,30.56,17a13.9,13.9,0,0,1-.35,5.93l-.26.79,3.36-1.09c.55-.18,1,.06,1,.48S34,25.68,34,25.68A17.42,17.42,0,0,0,35.36,18a15.44,15.44,0,0,0-1.14-5.37,15.88,15.88,0,0,0-2.28-3.9,15.09,15.09,0,0,0-1.84-1.93A19.28,19.28,0,0,0,23.46,3.33Z"/></g></g></g></svg>