<svg xmlns="http://www.w3.org/2000/svg" viewBox="0 0 154.06 30.25"><title>Ресурс 14filin</title><g id="Слой_2" data-name="Слой 2"><g id="Шар_61" data-name="Шар 61"><g id="knopka"><g id="_Группа_" data-name="&lt;Группа&gt;"><path id="_Контур_" data-name="&lt;Контур&gt;" d="M27.36,5.41c-.14,0-.68,0-1.22,0s-1.08,0-1.22,0c-.68.11-.81.74-.81,1.4q0,3.34,0,6.67c0,3.12,0,7.95,0,10,0,.66.13,1.29.81,1.4.14,0,.68,0,1.22,0s1.08,0,1.22,0c.68-.11.81-.74.81-1.4,0-2,0-6.84,0-10q0-3.34,0-6.67C28.18,6.15,28,5.52,27.36,5.41Z"/><path id="_Контур_2" data-name="&lt;Контур&gt;" d="M105.93,1.38c-.19,0-1,0-1.73,0s-1.53,0-1.73,0c-1,.16-1.15,1-1.14,2q0,4.72,0,9.44c0,4.42,0,11.24,0,14.09,0,.94.18,1.82,1.14,2,.19,0,1,0,1.73,0s1.53,0,1.73,0c1-.16,1.15-1,1.14-2,0-2.85,0-9.67,0-14.09q0-4.72,0-9.44C107.08,2.43,106.9,1.54,105.93,1.38Z"/><path id="_Контур_3" data-name="&lt;Контур&gt;" d="M85.55,23.22H77.29V3.86a1.09,1.09,0,0,0-1-1.13c-.29,0-2.8-.08-3.14,0a1.2,1.2,0,0,0-1,1.3V26.13c.06,1.11.48,1.43,1.73,1.43H85.6c.71,0,1.36-.16,1.45-.91a25,25,0,0,0,0-2.57C86.92,23.39,86.26,23.22,85.55,23.22Z"/><path id="_Контур_4" data-name="&lt;Контур&gt;" d="M9.49,7.72c0-.75-.26-1-1-1H1a1.87,1.87,0,0,0-.34,0C.1,6.87,0,7.37,0,7.94q0,1.62,0,3.24s0,6.31,0,9.48H0q0,.85,0,1.7s0,.05,0,.08H0c0,.6.14.89.54,1l.13,0c.15,0,.86,0,1,0h.71A1.84,1.84,0,0,0,3,23.45c.41-.12.54-.43.54-1.09s0-1.13,0-1.7q0-1.78,0-3.56l4.48,0c1,0,1.22-.19,1.23-1.18,0-.23,0-.46,0-.69,0-.66-.27-.94-.93-.94-1.2,0-4.38,0-4.78,0V9.6h5c.76,0,1-.25,1-1,0-.15,0-.3,0-.45S9.49,7.84,9.49,7.72Z"/><path id="_Контур_5" data-name="&lt;Контур&gt;" d="M154,1.41A1.5,1.5,0,0,0,152.92.06a1.76,1.76,0,0,0-.36,0c-.35,0-.91,0-1.47,0s-1.31,0-1.63,0l-.13,0a1.29,1.29,0,0,0-.63.26l-.1.09h0a2.6,2.6,0,0,0-.5,1.84c0,6.17,0,12.35,0,18.67-.23-.32-9.33-13.14-13.69-19.31-.51-.72-1.05-1.47-2-1.55-.68-.06-4.4-.07-4.8,0a2.58,2.58,0,0,0-.33.06c-.78.25-.93,1.21-.93,2.12,0,2.31,0,19.52,0,25.82,0,.21,0,.41,0,.62A1.48,1.48,0,0,0,128,30.22c.45,0,.9,0,1.36,0h.08c.45,0,.91,0,1.36,0a1.48,1.48,0,0,0,1.57-1.56c0-.21,0-.41,0-.62q0-9.39,0-18.77c1.2,1.7,10.16,14.41,13.77,19.59a3,3,0,0,0,2.67,1.39h3.11c1.7,0,2.16-.44,2.16-2.15q0-13,0-25.91A4.61,4.61,0,0,0,154,1.41Z"/><path id="_Контур_6" data-name="&lt;Контур&gt;" d="M58.5,23.48c0-.17,0-.31,0-.36-.11-.65-.71-.77-1.34-.77H49.77V5.08a1,1,0,0,0-.86-1c-.26,0-2.49-.07-2.8,0a1.07,1.07,0,0,0-.89,1.16V24.94c.05,1,.43,1.27,1.54,1.28H57.18c.64,0,1.21-.15,1.3-.81,0-.16,0-1,0-1.64C58.51,23.66,58.5,23.57,58.5,23.48Z"/></g></g></g></g></svg>