<svg xmlns="http://www.w3.org/2000/svg" viewBox="0 0 106.38 68.68"><defs><style>.cls-1{fill:#222;}.cls-2{fill:#5b5b5b;}</style></defs><title>Ресурс 22shopdrobe</title><g id="Слой_2" data-name="Слой 2"><g id="Шар_61" data-name="Шар 61"><g id="knopka"><path class="cls-1" d="M71.2,27.14H60.34a.84.84,0,0,0-.83.84V38.84a.84.84,0,0,0,.83.83H71.2a.84.84,0,0,0,.83-.83V28A.84.84,0,0,0,71.2,27.14ZM69.94,37.58H61.59V29.23h8.35Z"/><path class="cls-1" d="M44,27.14H33.19a.84.84,0,0,0-.83.84V38.84a.84.84,0,0,0,.83.83H44a.84.84,0,0,0,.84-.83V28A.84.84,0,0,0,44,27.14ZM42.8,37.58H34.45V29.23H42.8Z"/><path class="cls-1" d="M37.37,31.32h2.51a.84.84,0,0,1,.84.84v2.51a.84.84,0,0,1-.84.84h-2.5a.84.84,0,0,1-.84-.84v-2.5A.83.83,0,0,1,37.37,31.32Z"/><path class="cls-1" d="M44.89,2.09V4.17H47V2.09H57.41V4.17H59.5V2.09h2.09V.83A.84.84,0,0,0,60.75,0H43.63a.84.84,0,0,0-.83.83V2.09Z"/><path class="cls-1" d="M62.84,2.09H61.59V4.17h2.09V2.92A.84.84,0,0,0,62.84,2.09Z"/><path class="cls-1" d="M53.24,10.44v1.25a.84.84,0,0,0,.83.84h1.25V10.44Z"/><path class="cls-1" d="M55.33,12.53v1.25a.84.84,0,0,0,.83.84h.42a.84.84,0,0,0,.84-.84V12.53Z"/><path class="cls-1" d="M47,12.53v1.25a.84.84,0,0,0,.84.84h.42a.84.84,0,0,0,.83-.84V12.53Z"/><path class="cls-1" d="M57.41,10.44v2.09h1.25a.84.84,0,0,0,.84-.84V10.44Z"/><path class="cls-1" d="M49.06,10.44v2.09h1.25a.84.84,0,0,0,.84-.84V10.44Z"/><path class="cls-1" d="M47,10.44H44.89V8.35H42.8v6.26H34.45V6.26H33.19a.84.84,0,0,0-.83.83v8.77a.84.84,0,0,0,.83.84H44a.84.84,0,0,0,.84-.84V12.53H47Z"/><path class="cls-1" d="M59.5,8.35v2.09h1.25a.84.84,0,0,0,.83-.83V8.35Z"/><path class="cls-1" d="M61.59,6.26V8.35h1.25a.84.84,0,0,0,.83-.84V6.26Z"/><path class="cls-1" d="M69.11,4.17H63.68V6.26h6.26V5A.84.84,0,0,0,69.11,4.17Z"/><path class="cls-1" d="M54.49,20.88a.84.84,0,0,0,.84-.84v-.42a.84.84,0,0,0-.84-.84H53.24V13.36a.84.84,0,0,0-.83-.84H52a.84.84,0,0,0-.83.84v21.3a.84.84,0,0,0,.83.83h.42a.84.84,0,0,0,.83-.83V33.41h1.25a.84.84,0,0,0,.84-.84v-.42a.84.84,0,0,0-.84-.84H53.24V27.14h1.25a.84.84,0,0,0,.84-.83v-.42a.84.84,0,0,0-.84-.83H53.24V20.88Z"/><rect class="cls-1" x="36.53" y="22.97" width="2.09" height="2.09" rx="0.84" ry="0.84"/><rect class="cls-1" x="38.62" y="20.88" width="2.09" height="2.09" rx="0.84" ry="0.84"/><path class="cls-1" d="M44,18.79h-2.5a.84.84,0,0,0-.84.84V20a.84.84,0,0,0,.84.84H42.8V23H41.54a.84.84,0,0,0-.84.84v.42a.84.84,0,0,0,.84.84H44a.84.84,0,0,0,.84-.84V19.63A.84.84,0,0,0,44,18.79Z"/><path class="cls-1" d="M47.81,29.23h.42a.84.84,0,0,1,.84.84v2.51a.83.83,0,0,1-.83.83h-.42a.83.83,0,0,1-.83-.83V30.07a.84.84,0,0,1,.84-.84Z"/><path class="cls-1" d="M71.2,23H69.94V21.71a.84.84,0,0,0-.83-.84h-.42a.84.84,0,0,0-.83.84V23H66.6a.84.84,0,0,0-.84.84v.42a.84.84,0,0,0,.84.84H71.2a.84.84,0,0,0,.83-.84V23.8A.84.84,0,0,0,71.2,23Z"/><path class="cls-1" d="M62.84,12.53h-.42a.84.84,0,0,0-.83.84v1.25H60.34a.84.84,0,0,0-.83.83v.42a.84.84,0,0,0,.83.84h2.51a.84.84,0,0,0,.83-.84v-2.5A.84.84,0,0,0,62.84,12.53Z"/><rect class="cls-1" x="65.77" y="18.79" width="2.09" height="2.09" rx="0.83" ry="0.83"/><rect class="cls-1" x="63.68" y="8.35" width="2.09" height="2.09" rx="0.83" ry="0.83"/><polygon class="cls-1" points="55.33 8.35 55.33 6.26 57.41 6.26 57.41 4.17 46.98 4.17 46.98 6.26 49.06 6.26 49.06 8.35 51.15 8.35 51.15 10.44 53.24 10.44 53.24 8.35 55.33 8.35"/><path class="cls-1" d="M41.54,2.09a.84.84,0,0,0-.84.83V4.17H42.8V2.09Z"/><path class="cls-1" d="M35.28,4.17a.84.84,0,0,0-.83.83V6.26h6.26V4.17Z"/><path class="cls-1" d="M71.2,6.26H69.94V8.35H68.69a.84.84,0,0,0-.83.84v.42a.84.84,0,0,0,.83.83h1.25v2.09H68.69a.84.84,0,0,0-.83.84v.42a.84.84,0,0,0,.83.84H71.2a.84.84,0,0,0,.83-.84V7.1A.84.84,0,0,0,71.2,6.26Z"/><path class="cls-2" d="M37.37,8.35h2.51a.84.84,0,0,1,.84.84v2.5a.84.84,0,0,1-.84.84h-2.5a.84.84,0,0,1-.84-.84V9.19A.83.83,0,0,1,37.37,8.35Z"/><path class="cls-2" d="M64.51,31.32H67a.84.84,0,0,1,.84.84v2.51a.83.83,0,0,1-.83.83H64.51a.83.83,0,0,1-.83-.83V32.15A.83.83,0,0,1,64.51,31.32Z"/><path class="cls-2" d="M35.7,18.79H33.19a.84.84,0,0,0-.83.84v4.59a.84.84,0,0,0,.83.84h.42a.84.84,0,0,0,.83-.84V20.88H35.7a.84.84,0,0,0,.83-.84v-.42A.84.84,0,0,0,35.7,18.79Z"/><path class="cls-2" d="M48.23,16.7H45.72a.84.84,0,0,0-.84.84V18a.84.84,0,0,0,.84.83H47v3.34a.84.84,0,0,0,.84.84h.42a.84.84,0,0,0,.83-.84V17.54A.84.84,0,0,0,48.23,16.7Z"/><rect class="cls-2" x="46.97" y="25.05" width="2.09" height="2.09" rx="0.83" ry="0.83"/><path class="cls-2" d="M56.58,35.49h-.42a.84.84,0,0,0-.83.84v1.25H51.15V36.33a.84.84,0,0,0-.84-.84H49.9a.84.84,0,0,0-.84.84v1.25H47.81a.84.84,0,0,0-.84.83v.42a.84.84,0,0,0,.84.83h8.77a.84.84,0,0,0,.84-.83V36.33A.84.84,0,0,0,56.58,35.49Z"/><path class="cls-2" d="M62.84,20.88H61.59V19.63a.84.84,0,0,0-.83-.84h-.42a.84.84,0,0,0-.83.84v2.51a.84.84,0,0,0,.83.84h1.25v1.25a.84.84,0,0,0,.83.84h.42a.84.84,0,0,0,.83-.84v-2.5A.84.84,0,0,0,62.84,20.88Z"/><rect class="cls-2" x="57.41" y="22.97" width="2.09" height="2.09" rx="0.84" ry="0.84"/><path class="cls-2" d="M56.16,16.7h.42a.83.83,0,0,1,.83.83V18a.83.83,0,0,1-.83.83h-.42a.84.84,0,0,1-.84-.84v-.42A.84.84,0,0,1,56.16,16.7Z"/><path class="cls-2" d="M56.16,27.14h.42a.83.83,0,0,1,.83.83v2.51a.83.83,0,0,1-.83.83h-.42a.83.83,0,0,1-.83-.83V28A.84.84,0,0,1,56.16,27.14Z"/><path class="cls-2" d="M66.6,14.62H67a.84.84,0,0,1,.84.84v.42a.84.84,0,0,1-.84.84H66.6a.84.84,0,0,1-.84-.84v-.42a.83.83,0,0,1,.83-.83Z"/><path class="cls-2" d="M66.6,10.44H67a.84.84,0,0,1,.84.84v.42a.83.83,0,0,1-.83.83H66.6a.83.83,0,0,1-.83-.83v-.42A.84.84,0,0,1,66.6,10.44Z"/><path class="cls-2" d="M70.78,16.7h.42a.84.84,0,0,1,.84.84V20a.83.83,0,0,1-.83.83h-.42a.83.83,0,0,1-.83-.83v-2.5A.84.84,0,0,1,70.78,16.7Z"/><polygon class="cls-2" points="61.59 4.17 61.59 2.09 59.5 2.09 59.5 4.17 57.41 4.17 57.41 6.26 55.33 6.26 55.33 8.35 53.24 8.35 53.24 10.44 55.33 10.44 55.33 12.53 57.41 12.53 57.41 10.44 59.5 10.44 59.5 8.35 61.59 8.35 61.59 6.26 63.68 6.26 63.68 4.17 61.59 4.17"/><polygon class="cls-2" points="49.06 8.35 49.06 6.26 46.98 6.26 46.98 4.17 44.89 4.17 44.89 2.09 42.8 2.09 42.8 4.17 40.71 4.17 40.71 6.26 42.8 6.26 42.8 8.35 44.89 8.35 44.89 10.44 46.98 10.44 46.98 12.53 49.06 12.53 49.06 10.44 51.15 10.44 51.15 8.35 49.06 8.35"/><path class="cls-1" d="M29.6,49.18a5.23,5.23,0,0,0-3.88,1.51,6,6,0,0,0-1.44,4.24V58a6,6,0,0,0,1.44,4.24,5.23,5.23,0,0,0,3.88,1.51,5.23,5.23,0,0,0,3.89-1.51A6,6,0,0,0,34.92,58V54.93a6,6,0,0,0-1.44-4.24A5.22,5.22,0,0,0,29.6,49.18Zm2.9,9.43a2.76,2.76,0,0,1-2.9,3,2.71,2.71,0,0,1-2.9-3V54.36a2.71,2.71,0,0,1,2.9-3,2.76,2.76,0,0,1,2.9,3Z"/><path class="cls-1" d="M75.67,49.18a5.23,5.23,0,0,0-3.89,1.51,6,6,0,0,0-1.44,4.24V58a6,6,0,0,0,1.44,4.24,5.76,5.76,0,0,0,7.77,0A6,6,0,0,0,81,58V54.93a6,6,0,0,0-1.44-4.24A5.23,5.23,0,0,0,75.67,49.18Zm2.9,9.43a2.76,2.76,0,0,1-2.9,3,2.71,2.71,0,0,1-2.9-3V54.36a2.71,2.71,0,0,1,2.9-3,2.76,2.76,0,0,1,2.9,3Z"/><path class="cls-1" d="M42.35,49.18a9.37,9.37,0,0,0-3.83.74,1.69,1.69,0,0,0-1.06,1.57V67.81a.87.87,0,0,0,.87.87H39a.87.87,0,0,0,.87-.87V63a4.63,4.63,0,0,0,2.46.78,5.23,5.23,0,0,0,3.89-1.51A6,6,0,0,0,47.68,58V54.93a6,6,0,0,0-1.44-4.24A5.22,5.22,0,0,0,42.35,49.18Zm2.9,9.43a2.76,2.76,0,0,1-2.9,3,4.08,4.08,0,0,1-2.46-.92V51.76a8.84,8.84,0,0,1,2.46-.35,2.76,2.76,0,0,1,2.9,3Z"/><path class="cls-1" d="M59.37,44.29H58.7a.87.87,0,0,0-.87.87V50a4.66,4.66,0,0,0-2.46-.78,5.23,5.23,0,0,0-3.89,1.51A6,6,0,0,0,50,54.93V58a6,6,0,0,0,1.44,4.24,5.24,5.24,0,0,0,3.89,1.51,9.4,9.4,0,0,0,3.83-.74,1.69,1.69,0,0,0,1.06-1.57V45.16A.87.87,0,0,0,59.37,44.29ZM57.82,61.21a8.74,8.74,0,0,1-2.46.35,2.76,2.76,0,0,1-2.9-3V54.36a2.76,2.76,0,0,1,2.9-3,4.09,4.09,0,0,1,2.46.92Z"/><path class="cls-1" d="M88.42,49.18A4.65,4.65,0,0,0,86,50v-4.8a.87.87,0,0,0-.87-.87h-.67a.87.87,0,0,0-.87.87V61.49a1.69,1.69,0,0,0,1.06,1.57,9.4,9.4,0,0,0,3.83.74,5.23,5.23,0,0,0,3.89-1.51A6,6,0,0,0,93.75,58V54.93a6,6,0,0,0-1.44-4.24A5.23,5.23,0,0,0,88.42,49.18Zm2.9,9.43a2.76,2.76,0,0,1-2.9,3A8.74,8.74,0,0,1,86,61.21V52.33a4.09,4.09,0,0,1,2.46-.92,2.76,2.76,0,0,1,2.9,3Z"/><path class="cls-1" d="M68.54,49.18h-.72a9.36,9.36,0,0,0-3.83.74,1.69,1.69,0,0,0-1.06,1.57h0V62.92a.87.87,0,0,0,.87.88h.67a.87.87,0,0,0,.87-.87V51.76a8.85,8.85,0,0,1,2.46-.35h.72a.8.8,0,0,0,.81-.8V50A.81.81,0,0,0,68.54,49.18Z"/><path class="cls-1" d="M16.54,49.18a4.66,4.66,0,0,0-2.46.78v-4.8a.87.87,0,0,0-.87-.87H9.49c-2.19,0-3.79,1.36-3.79,3.31a3.16,3.16,0,0,0,.4,1.52A11.23,11.23,0,0,0,4.67,49h0A4.24,4.24,0,0,0,.33,53.17a3.74,3.74,0,0,0,2.42,3.76l2.17.86c.89.34,1.9.72,1.9,2,0,.63-.33,1.67-2.18,1.67a5.82,5.82,0,0,1-2.92-.77.93.93,0,0,0-1.2.15l-.37.51a.82.82,0,0,0,.18,1.15,6.9,6.9,0,0,0,4.3,1.32,4.29,4.29,0,0,0,4.53-4.32,3.77,3.77,0,0,0-2.68-3.84l-2.6-.92a1.69,1.69,0,0,1-1.22-1.6,1.77,1.77,0,0,1,2-1.75,7.11,7.11,0,0,1,2.81.57.93.93,0,0,0,1.16-.32l.24-.46A.87.87,0,0,0,8.57,50a2.34,2.34,0,0,1-1-1.94,2,2,0,0,1,2-1.91h2.08V62.92a.87.87,0,0,0,.87.88h.67a.87.87,0,0,0,.87-.87V52.33a4.09,4.09,0,0,1,2.46-.92,2.76,2.76,0,0,1,2.9,3v8.56a.87.87,0,0,0,.87.88H21a.87.87,0,0,0,.87-.87v-8a6,6,0,0,0-1.44-4.24A5.22,5.22,0,0,0,16.54,49.18Z"/><path class="cls-1" d="M106.38,55.91V54.55a5.58,5.58,0,0,0-1.44-3.93,4.74,4.74,0,0,0-3.71-1.44,4.82,4.82,0,0,0-3.71,1.44,5.58,5.58,0,0,0-1.41,3.93v3.63c0,4.78,3.63,5.61,5.12,5.61a6.91,6.91,0,0,0,4.3-1.32.83.83,0,0,0,.18-1.15l-.37-.51a.93.93,0,0,0-1.2-.15,5.81,5.81,0,0,1-2.92.77c-1.4,0-2.77-.66-2.77-3.85H105C105.88,57.58,106.38,56.83,106.38,55.91Zm-7.85-.67c0-2.71.86-3.83,2.7-3.83S104,52.5,104,55.24Z"/></g></g></g></svg>