<svg xmlns="http://www.w3.org/2000/svg" viewBox="0 0 41.03 41.03"><defs><style>.cls-1{fill:none;stroke:#fff;stroke-miterlimit:10;stroke-width:2px;}.cls-2{fill:#fff;}</style></defs><title>Ресурс 52incircle</title><g id="Слой_2" data-name="Слой 2"><g id="Шар_53" data-name="Шар 53"><circle class="cls-1" cx="20.52" cy="20.52" r="19.52"/><path class="cls-2" d="M24.62,18.65c0,2.77-2.14,5.1-4.68,7h4.89v3.3H14.34V26c2.73-2.1,6.15-4.85,6.15-7.1A1.37,1.37,0,0,0,19,17.39a3.28,3.28,0,0,0-2.54,1.37L13.79,17a6.79,6.79,0,0,1,5.58-3C22.57,14,24.62,15.69,24.62,18.65Z"/><path class="cls-2" d="M28.66,29.19a1.91,1.91,0,1,1,1.89-1.91A1.89,1.89,0,0,1,28.66,29.19Z"/></g></g></svg>