<svg xmlns="http://www.w3.org/2000/svg" viewBox="0 0 41.03 41.03"><defs><style>.cls-1{fill:none;stroke:#fff;stroke-miterlimit:10;stroke-width:2px;}.cls-2{fill:#fff;}</style></defs><title>Ресурс 63incircle</title><g id="Слой_2" data-name="Слой 2"><g id="Шар_53" data-name="Шар 53"><circle class="cls-1" cx="20.52" cy="20.52" r="19.52"/><path class="cls-2" d="M23.64,18a3.43,3.43,0,0,1-2.14,3.3,3.6,3.6,0,0,1,2.65,3.53c0,2.46-2.08,4.39-5.69,4.39a7.38,7.38,0,0,1-5.69-2.37l2.56-2.06A3.7,3.7,0,0,0,18,26c1.2,0,2-.54,2-1.47,0-1.16-.88-1.66-2.27-1.66H16.17v-3h1.51c1.2,0,2-.55,2-1.45s-.55-1.28-1.57-1.28a3.29,3.29,0,0,0-2.39,1.13l-2.52-2A7.17,7.17,0,0,1,18.56,14C21.61,14,23.64,15.59,23.64,18Z"/><path class="cls-2" d="M27.66,29.19a1.91,1.91,0,1,1,1.89-1.91A1.89,1.89,0,0,1,27.66,29.19Z"/></g></g></svg>