<svg xmlns="http://www.w3.org/2000/svg" viewBox="0 0 81.67 63.75"><defs><style>.cls-1{fill:#abbbcf;}</style></defs><title>Ресурс 2book</title><g id="Слой_2" data-name="Слой 2"><g id="Шар_52" data-name="Шар 52"><path class="cls-1" d="M75.85,19.26c-.33-2.48-.38-6.76,1.93-8.19a.86.86,0,0,0,.11-.1c1.89-.6,3.19-1.45,2.17-2.59L52.24,0l-45,6.26S2,7,2.51,15c.25,4.36,1.62,6.5,2.81,7.56l-3.7,1.11c-1,1.14.28,2,2.16,2.59a.75.75,0,0,0,.11.1c2.3,1.44,2.26,5.71,1.93,8.2C-2.45,36.91.52,37.68.52,37.68l1.82.44C1.06,39.27-.21,41.46,0,45.61c.46,8,4.7,8.56,4.7,8.56L34.2,63.75,78.68,53s3-.77-5.31-3.12c-.33-2.48-.38-6.75,1.93-8.2a.68.68,0,0,0,.11-.1c1.89-.6,3.19-1.45,2.16-2.59l-1.93-.58c1.29-.78,3.23-2.81,3.53-8.09.21-3.63-.74-5.76-1.83-7l3.82-.92S84.13,21.61,75.85,19.26Zm-37.21-.1,7.48-1.54L71.4,12.43l3.77-.77c-1.2,2.2-1.15,5.22-1,7.15,0,.44.09.84.14,1.14l-4.12,1L38.33,28.91ZM6.51,27l3.77.77,24.28,5,2.12.43h0L43,34.46l.31,9.75L10.56,36.05l-3.23-.8c0-.3.1-.7.14-1.14C7.66,32.17,7.71,29.16,6.51,27ZM5,14.62c0-2.13.33-3.67,1.1-4.46a2,2,0,0,1,1.46-.6,2.48,2.48,0,0,1,.37,0l19.4,6.33,9.68,3.16-.32,9.82L9.59,21.28l-1.43-.4-.18,0C7.86,20.84,5.18,20.6,5,14.62ZM34.27,59.5l-28.59-8-.18,0c-.11,0-2.8-.25-2.93-6.23,0-2.13.34-3.67,1.1-4.46a2,2,0,0,1,1.46-.6,2.58,2.58,0,0,1,.37,0h0l29.08,9.48ZM71.73,49.41c0,.44.1.84.14,1.14l-36,9,.31-9.75,7.7-1.58,1.14.28,4.26-1.39,19.65-4,3.77-.78C71.48,44.46,71.53,47.47,71.73,49.41Zm2-13.25-.19,0-2.72.76L44.93,44.2l-.32-9.82,8.49-2.77,20.55-6.7a2.14,2.14,0,0,1,1.87.56c.77.78,1.15,2.32,1.1,4.46C76.5,35.9,73.81,36.15,73.71,36.15Z"/></g></g></svg>