<svg xmlns="http://www.w3.org/2000/svg" viewBox="0 0 81.88 83.67"><defs><style>.cls-1{fill:#abbbcf;}</style></defs><title>Ресурс 1cart</title><g id="Слой_2" data-name="Слой 2"><g id="Шар_52" data-name="Шар 52"><path class="cls-1" d="M8.86,57.35A11.71,11.71,0,0,0,20.49,69a7.71,7.71,0,1,0,6.79,0H57a7.71,7.71,0,1,0,6.79,0h6.35a2.83,2.83,0,0,0,0-5.67H20.56a6,6,0,0,1-6-6V52.74a11.63,11.63,0,0,0,6,1.68H60.44a15.23,15.23,0,0,0,14-10.58l7.31-25.6A2.83,2.83,0,0,0,79,14.63H14.53V11.7A11.71,11.71,0,0,0,2.83,0a2.83,2.83,0,0,0,0,5.67,6,6,0,0,1,6,6Z"/></g></g></svg>