<svg xmlns="http://www.w3.org/2000/svg" viewBox="0 0 71 71"><defs><style>.cls-1{fill:#abbbcf;}</style></defs><title>Ресурс 4coin</title><g id="Слой_2" data-name="Слой 2"><g id="Шар_52" data-name="Шар 52"><path class="cls-1" d="M35.5,0A35.5,35.5,0,1,0,71,35.5,35.54,35.54,0,0,0,35.5,0Zm0,65.74A30.24,30.24,0,1,1,65.74,35.5,30.27,30.27,0,0,1,35.5,65.74Z"/><path class="cls-1" d="M30.3,27q0,2.5,3.38,4.18v-7.7Q30.3,24.09,30.3,27Z"/><path class="cls-1" d="M35.5,8.28A27.22,27.22,0,1,0,62.72,35.5,27.25,27.25,0,0,0,35.5,8.28Zm9.09,41.16a12.31,12.31,0,0,1-7.36,3v5.28H33.68V52.6a19.86,19.86,0,0,1-9.19-2.24V43.63a14.12,14.12,0,0,0,4.2,2.12,19.4,19.4,0,0,0,5,1.12V38Q28,35.91,25.91,33.44a9,9,0,0,1-2.08-6,8.83,8.83,0,0,1,2.7-6.5,11.34,11.34,0,0,1,7.14-3.12V13.28h3.55v4.42q5.12.24,7.65,1.65v6.56a18.33,18.33,0,0,0-7.65-2.53V32.6q5.32,1.92,7.63,4.39a8.43,8.43,0,0,1,2.31,6A8.6,8.6,0,0,1,44.59,49.45Z"/><path class="cls-1" d="M37.23,39.4v7.36c2.32-.35,3.48-1.51,3.48-3.47Q40.7,40.91,37.23,39.4Z"/></g></g></svg>