<svg xmlns="http://www.w3.org/2000/svg" viewBox="0 0 15.29 23.79"><defs><style>.cls-1{fill:#fff;}</style></defs><title>Ресурс 7lock</title><g id="Слой_2" data-name="Слой 2"><g id="Шар_51" data-name="Шар 51"><path class="cls-1" d="M7.65,23.79a7.64,7.64,0,0,1-2.4-.38.7.7,0,0,1,.44-1.33,6.25,6.25,0,1,0-2.36-1.42.7.7,0,0,1-1,1,7.65,7.65,0,1,1,5.28,2.12Z"/><path class="cls-1" d="M11.42,10.74a.7.7,0,0,1-.7-.7V4.37a3,3,0,0,0-3-3H7.54a3,3,0,0,0-3,3V10a.7.7,0,1,1-1.4,0V4.37A4.37,4.37,0,0,1,7.54,0h.21a4.37,4.37,0,0,1,4.37,4.37V10A.7.7,0,0,1,11.42,10.74Z"/><path class="cls-1" d="M7.65,16.41a.72.72,0,0,1-.5-.21.71.71,0,0,1,0-1,.73.73,0,0,1,1,0,.7.7,0,0,1-.5,1.19Z"/><path class="cls-1" d="M7.65,17.47a.56.56,0,0,1-.56-.56V15.85a.56.56,0,1,1,1.12,0v1.06A.56.56,0,0,1,7.65,17.47Z"/></g></g></svg>