<svg xmlns="http://www.w3.org/2000/svg" viewBox="0 0 202 44.96"><defs><style>.cls-1{fill:#abbbcf;}</style></defs><title>Ресурс 5menu</title><g id="Слой_2" data-name="Слой 2"><g id="Шар_50" data-name="Шар 50"><path class="cls-1" d="M3,3,178.73,4l19,19.52L178.78,42H3V3M0,0V45H180l22-21.4L180,1,0,0Z"/><path class="cls-1" d="M110.79,27.65l-3-5.73v8.65h-4.35V14.47h4.51l4.23,8.28,4.23-8.28h4.51v16.1h-4.35V21.92l-3,5.73Z"/><path class="cls-1" d="M124.17,14.47H135.3V18h-6.67v2.6h5.86v3.5h-5.86v3h6.88v3.47H124.17Z"/><path class="cls-1" d="M138.11,14.47h4.46v5.86h5.08V14.47h4.46v16.1h-4.46V24h-5.08v6.6h-4.46Z"/><path class="cls-1" d="M159.85,14.47V20.7h2c.41-3.79,2.3-6.51,6.37-6.51,4.71,0,6.46,3.56,6.46,8.32s-1.75,8.32-6.46,8.32c-4.07,0-6-2.67-6.37-6.51h-2v6.23h-4.46V14.47Zm8.37,12.72c1.38,0,2-1.26,2-4.67s-.57-4.65-2-4.65-2,1.26-2,4.65S166.84,27.19,168.22,27.19Z"/></g></g></svg>