<svg xmlns="http://www.w3.org/2000/svg" viewBox="0 0 81.59 69.95"><defs><style>.cls-1{fill:#abbbcf;}</style></defs><title>Ресурс 3people</title><g id="Слой_2" data-name="Слой 2"><g id="Шар_52" data-name="Шар 52"><g id="_Группа_" data-name="&lt;Группа&gt;"><path id="_Контур_" data-name="&lt;Контур&gt;" class="cls-1" d="M63,13.64a6.82,6.82,0,1,0-6.82-6.82A6.82,6.82,0,0,0,63,13.64Z"/><path id="_Контур_2" data-name="&lt;Контур&gt;" class="cls-1" d="M81.33,38,71.6,16.7A3.05,3.05,0,0,0,68.68,15H57.42A3.06,3.06,0,0,0,54.5,16.7L44.77,38a2.92,2.92,0,1,0,5.31,2.42l4.7-10.31v11.1s0,0,0,.06V66.45a3.5,3.5,0,1,0,7,0V45.59h2.56V66.45a3.5,3.5,0,1,0,7,0V41.28s0,0,0,0V30.13L76,40.43A2.92,2.92,0,1,0,81.33,38Z"/><path id="_Контур_3" data-name="&lt;Контур&gt;" class="cls-1" d="M25.9,37.11l-6.84-15A2.15,2.15,0,0,0,17,21H9.09A2.15,2.15,0,0,0,7,22.12l-6.84,15a2.05,2.05,0,1,0,3.73,1.7l3.31-7.25v7.81s0,0,0,0v17.7a2.46,2.46,0,1,0,4.92,0V42.44h1.8V57.11a2.46,2.46,0,1,0,4.92,0V39.41s0,0,0,0V31.56l3.31,7.25a2.05,2.05,0,1,0,3.73-1.7Z"/><path id="_Контур_4" data-name="&lt;Контур&gt;" class="cls-1" d="M13.05,20a4.8,4.8,0,1,0-4.8-4.8A4.8,4.8,0,0,0,13.05,20Z"/><path id="_Контур_5" data-name="&lt;Контур&gt;" class="cls-1" d="M36.73,5a2.33,2.33,0,0,0-2.33,2.33V62.82a2.33,2.33,0,0,0,4.67,0V7.34A2.33,2.33,0,0,0,36.73,5Z"/></g></g></g></svg>