<svg xmlns="http://www.w3.org/2000/svg" viewBox="0 0 249.47 137.28"><defs><style>.cls-1{fill:#e8e7f0;}.cls-2{fill:#fff;}.cls-3{fill:#5a5a5a;}.cls-4{fill:#d9d9d9;}.cls-5{fill:#f4f4f4;}.cls-6{fill:#e4e4e4;}.cls-7{fill:#4d4c4d;}.cls-8{fill:#606060;}</style></defs><title>Ресурс 5s1</title><g id="Слой_2" data-name="Слой 2"><g id="Шар_56" data-name="Шар 56"><rect class="cls-1" width="249.47" height="137.28"/><path class="cls-2" d="M141.81,79a4.73,4.73,0,0,1,1.39-6.54l3.53-2.29a4.73,4.73,0,0,1-5.15-7.93l2.64-1.72h0L160.53,50c3.94-2.56,9.47-5.67,8.6-10,10.72-7.89,14.43-.5,21.37-.64L194.07,37l13.45,20.72L203.91,60c1.74,4.29-3,8.86-4.78,10l-27.25,17.7-4.41,2.86-2.64,1.72,0,0a4.73,4.73,0,0,1-5.12-7.88l0,0-3.09,2a4.73,4.73,0,1,1-5.15-7.93l-3.09,2A4.73,4.73,0,0,1,141.81,79Z"/><rect class="cls-2" x="199.54" y="33.21" width="4.73" height="26.8" transform="translate(7.18 117.46) rotate(-32.99)"/><path class="cls-3" d="M195.15,31.87l17.46,26.89,15.45-10a56,56,0,0,0-13-29.81Z"/><path class="cls-4" d="M199.26,62.27l-2.64-1.72h0L180.31,50c-3.94-2.56-9.47-5.67-8.6-10-.44-.32-.86-.61-1.29-.89-.42.28-.85.57-1.29.89.87,4.38-4.66,7.49-8.6,10l-16.3,10.6h0l-2.64,1.72a4.73,4.73,0,0,0-1.44,6.46A11.51,11.51,0,0,0,141.7,70l1.21.79a4.72,4.72,0,0,0,3.82-.59l-2.36,1.53,24.59,16,1.46,1,1.46-1,24.59-16-2.36-1.53a4.72,4.72,0,0,0,3.82.59l1.21-.79a11.45,11.45,0,0,0,1.57-1.28A4.73,4.73,0,0,0,199.26,62.27Z"/><path class="cls-5" d="M196.92,79a4.73,4.73,0,0,0-1.39-6.54L192,70.21a4.73,4.73,0,1,0,5.15-7.93l-2.64-1.72h0L178.2,50c-3.94-2.56-9.47-5.67-8.6-10-10.72-7.89-18.94-3.43-21.37-.64L144.66,37,131.21,57.68,134.82,60c-1.74,4.29,3,8.86,4.78,10l27.25,17.7,4.41,2.86,2.65,1.72,0,0A4.73,4.73,0,0,0,179,84.38l0,0,3.09,2a4.73,4.73,0,1,0,5.15-7.93l3.09,2A4.73,4.73,0,0,0,196.92,79Z"/><path class="cls-6" d="M174.8,91.39l0,0-2.65-1.72-4.41-2.86-27.25-17.7c-1.74-1.13-6.52-5.71-4.78-10l-3.61-2.34L144.88,37.1l-.22-.14L131.21,57.68,134.82,60c-1.74,4.29,3,8.86,4.78,10l27.25,17.7,4.41,2.86,2.65,1.72,0,0a4.72,4.72,0,0,0,5.83-1.32A4.73,4.73,0,0,1,174.8,91.39Z"/><path class="cls-6" d="M183,85.48,164.52,73.6c-.57-.22-1.25.3-.64.9l18.26,11.87a4.72,4.72,0,0,0,6.3-1.09A4.72,4.72,0,0,1,183,85.48Z"/><path class="cls-6" d="M191.29,79.6,167.59,64.1c-.57-.22-1.25.3-.64.9l23.46,15.49a4.71,4.71,0,0,0,6.3-1.09A4.72,4.72,0,0,1,191.29,79.6Z"/><path class="cls-6" d="M192.88,69.41l-18.24-12c-.57-.22-1.25.3-.64.9l18,12a4.71,4.71,0,0,0,6.3-1.09A4.72,4.72,0,0,1,192.88,69.41Z"/><rect class="cls-7" x="123.43" y="44.22" width="26.8" height="4.73" transform="translate(23.26 136) rotate(-57.02)"/><path class="cls-8" d="M116,52.18l10.12,6.57,17.46-26.89L127.33,21.31A56,56,0,0,0,116,52.18Z"/><path class="cls-2" d="M178.3,86l-1.38-.9a.33.33,0,0,0-.46.09L174,89a.33.33,0,0,0,.1.45l1.38.9A2.63,2.63,0,0,0,178.3,86Z"/><path class="cls-2" d="M187.06,80.11l-1.38-.9a.33.33,0,0,0-.46.1l-2.5,3.86a.33.33,0,0,0,.1.46l1.38.9a2.63,2.63,0,0,0,2.86-4.41Z"/><path class="cls-2" d="M195.25,74.55l-1.38-.9a.33.33,0,0,0-.45.09l-2.5,3.86a.33.33,0,0,0,.1.45l1.38.9a2.63,2.63,0,0,0,2.86-4.41Z"/><path class="cls-2" d="M196.78,64.08l-1.38-.9a.33.33,0,0,0-.45.09l-2.51,3.86a.33.33,0,0,0,.1.45l1.38.9a2.63,2.63,0,0,0,2.86-4.41Z"/><path class="cls-2" d="M170,34.42c-3.22-.07-12.22,1.9-14.39,1.71s-7.8,9.22-9.73,11.49l0,0-.15.16c-1.79,2.09-5,5.4-3.46,7.71a5,5,0,0,0,4.39,2.26h.13a5,5,0,0,0,1.59-.38c2.79-1,7.16-4,11.87-12.42,4.47,3.42,17.61,8,30-5.85C184.87,36.33,173.24,34.49,170,34.42Z"/><path d="M24.09,36.84,21.57,35a7.42,7.42,0,0,1,5.61-2.36c3.28,0,5.54,1.54,5.54,4.28a4,4,0,0,1-2.63,3.67,4,4,0,0,1,3,3.94c0,2.79-2.29,4.69-5.93,4.69a7.52,7.52,0,0,1-6-2.68l2.47-1.79a4.36,4.36,0,0,0,3.32,1.56c1.51,0,2.47-.78,2.47-1.92,0-1.58-1.4-2.27-3.34-2.27h-1.4V39.24h1.56c1.6,0,2.86-.78,2.86-2s-.78-1.7-2.06-1.7A3.89,3.89,0,0,0,24.09,36.84Z"/><path d="M35.7,32.92h6c3.85,0,5.7,1.76,5.7,4.37a3.22,3.22,0,0,1-2.27,3.23,3.66,3.66,0,0,1,3.07,3.71C48.18,47,46.37,49,42,49H35.7Zm5.75,2.77H39.29v3.69h2.15c1.63,0,2.47-.67,2.47-1.88S43.07,35.69,41.45,35.69Zm.3,6.37H39.29v4.12h2.45c1.88,0,2.77-.69,2.77-2.06S43.62,42.06,41.74,42.06Z"/><path d="M57.54,49.23c-4.74,0-7.58-3.57-7.58-8.29s2.84-8.29,7.58-8.29,7.58,3.57,7.58,8.29S62.28,49.23,57.54,49.23Zm0-3c2.38,0,3.89-2,3.89-5.25s-1.51-5.24-3.89-5.24-3.89,2-3.89,5.24S55.16,46.18,57.54,46.18Z"/><path d="M67.32,42.7V40h6.73V42.7Z"/><path d="M22.35,58.68H26v6.09h6.16V58.68h3.64v16H32.15V67.78H26v6.94H22.35Z"/><path d="M46,75c-4.74,0-7.58-3.57-7.58-8.29s2.84-8.29,7.58-8.29S53.58,62,53.58,66.7,50.74,75,46,75Zm0-3c2.38,0,3.89-2,3.89-5.25S48.38,61.45,46,61.45s-3.89,2-3.89,5.24S43.62,71.94,46,71.94Z"/><path d="M59.85,65.92,65,58.68h4l-5,6.6,5.75,9.44H65.65l-3.78-6.55-2,2.61v3.94H56.21v-16h3.64Z"/></g></g></svg>