<svg xmlns="http://www.w3.org/2000/svg" viewBox="0 0 283.49 91.35"><defs><style>.cls-1{fill:#e8e7f0;}.cls-2{fill:#eaeaea;}.cls-3{fill:#e6e6e6;}.cls-4{fill:#5a5a5a;}.cls-5{fill:#d9d9d9;}.cls-6{fill:#f4f4f4;}.cls-7{fill:#e4e4e4;}.cls-8{fill:#606060;}.cls-9{fill:#fff;}.cls-10{fill:#1d1d1b;}</style></defs><title>Ресурс 1s1mob</title><g id="Слой_2" data-name="Слой 2"><g id="sxema_rabotu" data-name="sxema rabotu"><g id="zvonok"><rect class="cls-1" width="283.49" height="91.35"/><path class="cls-2" d="M188.59,65.79a3.94,3.94,0,0,1,1.16-5.45l2.94-1.91a3.94,3.94,0,0,1-4.29-6.6l2.2-1.43h0l13.57-8.82c3.28-2.13,7.88-4.72,7.15-8.36,8.92-6.56,12-.42,17.79-.53l3-1.93L243.29,48l-3,2c1.45,3.57-2.52,7.38-4,8.32L213.63,73,210,75.39l-2.2,1.43,0,0a3.94,3.94,0,0,1-4.26-6.56v0l-2.57,1.67a3.94,3.94,0,1,1-4.29-6.6L194,66.95A3.94,3.94,0,0,1,188.59,65.79Z"/><rect class="cls-3" x="236.65" y="27.64" width="3.94" height="22.31" transform="translate(17.35 136.19) rotate(-32.99)"/><path class="cls-4" d="M233,26.53l14.53,22.38,12.86-8.35A46.62,46.62,0,0,0,249.6,15.74Z"/><path class="cls-5" d="M236.41,51.83l-2.2-1.43h0l-13.57-8.82c-3.28-2.13-7.88-4.72-7.16-8.36-.36-.27-.72-.51-1.08-.74-.35.23-.71.47-1.08.74.73,3.65-3.87,6.23-7.15,8.36L190.6,50.41h0l-2.2,1.43a3.93,3.93,0,0,0-1.2,5.38,9.58,9.58,0,0,0,1.3,1.07l1,.65a3.93,3.93,0,0,0,3.18-.49l-2,1.28L211.19,73l1.22.79,1.22-.79,20.47-13.29-2-1.28a3.93,3.93,0,0,0,3.18.49l1-.65a9.53,9.53,0,0,0,1.3-1.07A3.94,3.94,0,0,0,236.41,51.83Z"/><path class="cls-6" d="M234.47,65.79a3.94,3.94,0,0,0-1.16-5.45l-2.94-1.91a3.94,3.94,0,1,0,4.29-6.6l-2.2-1.43h0l-13.57-8.82c-3.28-2.13-7.88-4.72-7.15-8.36-8.92-6.56-15.76-2.86-17.79-.53l-3-1.93L179.77,48l3,2c-1.45,3.57,2.52,7.38,4,8.32L209.44,73l3.67,2.38,2.2,1.43v0a3.94,3.94,0,0,0,4.26-6.56v0l2.57,1.67a3.94,3.94,0,1,0,4.29-6.6L229,66.95A3.94,3.94,0,0,0,234.47,65.79Z"/><path class="cls-7" d="M216.05,76.07v0l-2.2-1.43-3.67-2.38L187.49,57.55c-1.45-.94-5.42-4.75-4-8.32l-3-2,10.65-16.39-.18-.12L179.77,48l3,2c-1.45,3.57,2.52,7.38,4,8.32L209.44,73l3.67,2.38,2.2,1.43v0a3.93,3.93,0,0,0,4.85-1.1A3.94,3.94,0,0,1,216.05,76.07Z"/><path class="cls-7" d="M222.89,71.15l-15.4-9.9c-.48-.19-1,.25-.53.75l15.2,9.88a3.92,3.92,0,0,0,5.24-.91A3.93,3.93,0,0,1,222.89,71.15Z"/><path class="cls-7" d="M229.78,66.26,210.06,53.35c-.48-.18-1,.25-.53.75L229,67a3.92,3.92,0,0,0,5.24-.91A3.93,3.93,0,0,1,229.78,66.26Z"/><path class="cls-7" d="M231.1,57.77l-15.18-10c-.48-.19-1,.25-.53.75l15,10a3.92,3.92,0,0,0,5.24-.91A3.93,3.93,0,0,1,231.1,57.77Z"/><rect class="cls-3" x="173.3" y="36.81" width="22.31" height="3.94" transform="translate(51.51 172.39) rotate(-57.02)"/><path class="cls-8" d="M167.11,43.44l8.42,5.47,14.53-22.38-13.53-8.79A46.57,46.57,0,0,0,167.11,43.44Z"/><path class="cls-9" d="M219,71.57l-1.15-.74a.28.28,0,0,0-.38.08l-2.08,3.21a.28.28,0,0,0,.08.38l1.15.74A2.19,2.19,0,0,0,219,71.57Z"/><path class="cls-9" d="M226.26,66.68l-1.15-.75a.28.28,0,0,0-.38.08l-2.08,3.21a.28.28,0,0,0,.08.38l1.15.74a2.19,2.19,0,0,0,2.38-3.67Z"/><path class="cls-9" d="M233.08,62.05l-1.15-.74a.28.28,0,0,0-.38.08l-2.08,3.21a.27.27,0,0,0,.08.38l1.15.74a2.19,2.19,0,0,0,2.38-3.67Z"/><path class="cls-9" d="M234.35,53.34l-1.15-.74a.27.27,0,0,0-.38.08l-2.09,3.21a.28.28,0,0,0,.08.38L232,57a2.19,2.19,0,0,0,2.38-3.67Z"/><path class="cls-2" d="M212.08,28.65c-2.68-.05-10.17,1.59-12,1.42s-6.49,7.68-8.1,9.56l0,0-.13.13c-1.49,1.74-4.13,4.5-2.88,6.42a4.15,4.15,0,0,0,3.66,1.89h.11a4.17,4.17,0,0,0,1.32-.31c2.32-.81,6-3.37,9.88-10.34,3.72,2.84,14.65,6.67,25-4.87C224.44,30.24,214.76,28.71,212.08,28.65Z"/><path class="cls-10" d="M20,30.7,18,29.18a6.15,6.15,0,0,1,4.65-2c2.72,0,4.6,1.27,4.6,3.55a3.29,3.29,0,0,1-2.19,3,3.32,3.32,0,0,1,2.45,3.27c0,2.32-1.9,3.89-4.92,3.89a6.23,6.23,0,0,1-5-2.22l2.05-1.48a3.62,3.62,0,0,0,2.75,1.29c1.25,0,2.05-.65,2.05-1.6,0-1.31-1.16-1.88-2.77-1.88H20.46V32.69h1.29c1.33,0,2.38-.65,2.38-1.63s-.65-1.41-1.71-1.41A3.23,3.23,0,0,0,20,30.7Z"/><path class="cls-10" d="M29.67,27.45h5c3.19,0,4.73,1.46,4.73,3.63a2.67,2.67,0,0,1-1.88,2.68A3,3,0,0,1,40,36.83c0,2.32-1.5,3.91-5.09,3.91H29.67Zm4.77,2.3H32.66v3.06h1.79c1.35,0,2.05-.55,2.05-1.56S35.79,29.75,34.44,29.75ZM34.69,35h-2v3.42h2c1.56,0,2.3-.57,2.3-1.71S36.25,35,34.69,35Z"/><path class="cls-10" d="M47.8,41c-3.93,0-6.29-3-6.29-6.88s2.36-6.88,6.29-6.88,6.29,3,6.29,6.88S51.73,41,47.8,41Zm0-2.53c2,0,3.23-1.67,3.23-4.35s-1.25-4.35-3.23-4.35-3.23,1.67-3.23,4.35S45.82,38.45,47.8,38.45Z"/><path class="cls-10" d="M55.91,35.56V33.34H61.5v2.22Z"/><path class="cls-10" d="M18.6,48.89h3v5.05h5.11V48.89h3v13.3h-3V56.43H21.62v5.76h-3Z"/><path class="cls-10" d="M38.22,62.42c-3.93,0-6.29-3-6.29-6.88s2.36-6.88,6.29-6.88,6.29,3,6.29,6.88S42.16,62.42,38.22,62.42Zm0-2.53c2,0,3.23-1.67,3.23-4.35s-1.25-4.35-3.23-4.35S35,52.86,35,55.54,36.25,59.89,38.22,59.89Z"/><path class="cls-10" d="M49.72,54.89l4.29-6h3.34l-4.18,5.47,4.77,7.83H54.52l-3.13-5.43-1.67,2.17v3.27h-3V48.89h3Z"/></g></g></g></svg>