<svg xmlns="http://www.w3.org/2000/svg" viewBox="0 0 249.01 137.28"><defs><style>.cls-1{fill:#e8e7f0;}.cls-2{fill:#737373;}.cls-3{fill:#fff;}.cls-4{fill:#e6e6e6;}.cls-5{fill:#606060;}</style></defs><title>Ресурс 6s2</title><g id="Слой_2" data-name="Слой 2"><g id="Шар_56" data-name="Шар 56"><rect class="cls-1" width="249.01" height="137.28"/><path class="cls-2" d="M137.18,78.53h-1.91a5.73,5.73,0,0,1-5.72-5.72V63.26a5.73,5.73,0,0,1,5.72-5.72h82A5.73,5.73,0,0,1,223,63.26V72.8a5.73,5.73,0,0,1-5.72,5.72h-73l-7.18,6v-6Z"/><path class="cls-3" d="M208.23,45.14h-73a5.73,5.73,0,0,1-5.72-5.72V29.87a5.73,5.73,0,0,1,5.72-5.72h82A5.73,5.73,0,0,1,223,29.87v9.54a5.73,5.73,0,0,1-5.72,5.72h-1.91v6Z"/><circle class="cls-4" cx="146.72" cy="68.03" r="1.91"/><circle class="cls-4" cx="154.35" cy="68.03" r="1.91"/><circle class="cls-4" cx="161.98" cy="68.03" r="1.91"/><circle class="cls-4" cx="169.62" cy="68.03" r="1.91"/><circle class="cls-4" cx="177.25" cy="68.03" r="1.91"/><circle class="cls-5" cx="176.3" cy="34.64" r="1.91"/><circle class="cls-5" cx="183.93" cy="34.64" r="1.91"/><circle class="cls-5" cx="191.56" cy="34.64" r="1.91"/><circle class="cls-5" cx="199.19" cy="34.64" r="1.91"/><circle class="cls-5" cx="206.82" cy="34.64" r="1.91"/><path d="M27.07,27.76l5.18-7.24h4l-5,6.6L37,36.55H32.87L29.09,30l-2,2.61v3.94H23.43v-16h3.64Z"/><path d="M44.8,36.83c-4.74,0-7.58-3.57-7.58-8.29s2.84-8.29,7.58-8.29,7.58,3.57,7.58,8.29S49.54,36.83,44.8,36.83Zm0-3c2.38,0,3.89-2,3.89-5.25s-1.51-5.24-3.89-5.24-3.89,2-3.89,5.24S42.42,33.78,44.8,33.78Z"/><path d="M55,20.52h3.64v6.09h6.16V20.52h3.64v16H64.81V29.61H58.65v6.94H55Z"/><path d="M78.89,20.24A7.52,7.52,0,0,1,85.69,24l-3,1.49A4.08,4.08,0,0,0,79,23.29c-2.38,0-4.26,1.81-4.26,5.24s1.88,5.25,4.26,5.25a4.08,4.08,0,0,0,3.64-2.15l3,1.49a7.52,7.52,0,0,1-6.8,3.71c-4.67,0-7.81-3.27-7.81-8.29S74.22,20.24,78.89,20.24Z"/><path d="M93.93,27.85l3.37-7.33H101l-7.26,16H90l2.22-4.9L86.79,20.52h3.73Z"/><path d="M101.92,30.3V27.62h6.73V30.3Z"/><path d="M28.59,58c0,3.07-1.44,4.58-5.11,4.58a12.56,12.56,0,0,1-1.33-.07v-3a7.58,7.58,0,0,0,1,0c1.31,0,1.79-.62,1.79-1.88V46.28H37.4v16H33.76v-13H28.59Z"/><path d="M46.61,52.37c3.57,0,5.75,1.86,5.75,5s-2.18,5-5.75,5H40.79v-16h3.64v6.09Zm-.41,3H44.43v3.94h1.76c1.65,0,2.52-.6,2.52-2S47.84,55.37,46.19,55.37Z"/><path d="M56.63,49.28H52v-3H64.9v3H60.28v13H56.63Z"/><path d="M80.29,62.31H76.4L75.34,59H69.5l-1,3.3H64.58l5.59-16H74.7Zm-9.87-6.18h4l-2-6.41Z"/><path d="M81.5,56.06V53.38h6.73v2.68Z"/><path d="M33.14,85.07V72h3.64v13h1.81v5.75H35V88.07H23.43V72h3.64v13Z"/><path d="M54.14,88.07H50.61V77.81L44.29,88.07H40.74V72h3.53V82.3L50.59,72h3.55Z"/><path d="M63.69,72h5.84v16H65.89V82H63.66l-3.48,6.12H56.24l4.1-6.62A4.47,4.47,0,0,1,57.25,77C57.25,73.66,59.7,72,63.69,72Zm0,7.1h2.22V74.86H63.66c-1.83,0-2.77.69-2.77,2.15S61.83,79.14,63.66,79.14Z"/></g></g></svg>