<svg xmlns="http://www.w3.org/2000/svg" viewBox="0 0 282.96 91.35"><defs><style>.cls-1{fill:#e8e7f0;}.cls-2{fill:#737373;}.cls-3{fill:#e6e6e6;}.cls-4{fill:#606060;}.cls-5{fill:#1d1d1b;}</style></defs><title>Ресурс 2s2mob</title><g id="Слой_2" data-name="Слой 2"><g id="sxema_rabotu" data-name="sxema rabotu"><g id="konsultaciya"><rect class="cls-1" width="282.96" height="91.35"/><path class="cls-2" d="M184.74,65.36h-1.59a4.77,4.77,0,0,1-4.76-4.76V52.66a4.77,4.77,0,0,1,4.76-4.76h68.29a4.77,4.77,0,0,1,4.76,4.76V60.6a4.77,4.77,0,0,1-4.76,4.76H190.71l-6,5v-5Z"/><path class="cls-3" d="M243.88,37.57H183.15a4.77,4.77,0,0,1-4.76-4.76V24.86a4.77,4.77,0,0,1,4.76-4.76h68.29a4.77,4.77,0,0,1,4.76,4.76v7.94a4.77,4.77,0,0,1-4.76,4.76h-1.59v5Z"/><circle class="cls-3" cx="192.68" cy="56.63" r="1.59"/><circle class="cls-3" cx="199.03" cy="56.63" r="1.59"/><circle class="cls-3" cx="205.39" cy="56.63" r="1.59"/><circle class="cls-3" cx="211.74" cy="56.63" r="1.59"/><circle class="cls-3" cx="218.09" cy="56.63" r="1.59"/><circle class="cls-4" cx="217.3" cy="28.83" r="1.59"/><circle class="cls-4" cx="223.65" cy="28.83" r="1.59"/><circle class="cls-4" cx="230" cy="28.83" r="1.59"/><circle class="cls-4" cx="236.36" cy="28.83" r="1.59"/><circle class="cls-4" cx="242.71" cy="28.83" r="1.59"/><path class="cls-5" d="M22.52,23.13l4.29-6h3.34L26,22.6l4.77,7.83H27.33L24.19,25l-1.67,2.17v3.27h-3V17.13h3Z"/><path class="cls-5" d="M37.22,30.65c-3.93,0-6.29-3-6.29-6.88s2.36-6.88,6.29-6.88,6.29,3,6.29,6.88S41.16,30.65,37.22,30.65Zm0-2.53c2,0,3.23-1.67,3.23-4.35s-1.25-4.35-3.23-4.35S34,21.1,34,23.77,35.25,28.12,37.22,28.12Z"/><path class="cls-5" d="M45.7,17.13h3v5.05h5.11V17.13h3v13.3h-3V24.67H48.72v5.76h-3Z"/><path class="cls-5" d="M65.52,16.9A6.24,6.24,0,0,1,71.16,20l-2.51,1.23a3.39,3.39,0,0,0-3-1.79c-2,0-3.53,1.5-3.53,4.35s1.56,4.35,3.53,4.35a3.39,3.39,0,0,0,3-1.79l2.51,1.23a6.24,6.24,0,0,1-5.64,3.08c-3.88,0-6.48-2.72-6.48-6.88S61.64,16.9,65.52,16.9Z"/><path class="cls-5" d="M78,23.2l2.79-6.08h3.1l-6,13.3H74.75l1.84-4.07-4.52-9.23h3.1Z"/><path class="cls-5" d="M84.63,25.24V23h5.58v2.22Z"/><path class="cls-5" d="M23.77,48.29c0,2.55-1.2,3.8-4.24,3.8a10.42,10.42,0,0,1-1.1-.06V49.57a6.29,6.29,0,0,0,.84,0c1.08,0,1.48-.51,1.48-1.56V38.57H31.09v13.3h-3V41.05H23.77Z"/><path class="cls-5" d="M38.73,43.62c3,0,4.77,1.54,4.77,4.12s-1.8,4.12-4.77,4.12H33.9V38.57h3v5.05Zm-.34,2.49H36.92v3.27h1.46c1.37,0,2.09-.49,2.09-1.63S39.75,46.11,38.38,46.11Z"/><path class="cls-5" d="M47,41.05H43.21V38.57h10.7v2.49H50.07V51.86H47Z"/><path class="cls-5" d="M66.67,51.86H63.44l-.87-2.74H57.73l-.85,2.74H53.64l4.64-13.3H62Zm-8.19-5.13h3.34l-1.67-5.32Z"/><path class="cls-5" d="M67.68,46.68V44.46h5.58v2.22Z"/><path class="cls-5" d="M27.55,70.82V60h3V70.82h1.5v4.77h-3V73.3H19.5V60h3V70.82Z"/><path class="cls-5" d="M45,73.3H42.05V64.79L36.81,73.3H33.86V60h2.93v8.51L42,60H45Z"/><path class="cls-5" d="M52.9,60h4.84V73.3h-3V68.23H52.88L50,73.3H46.73l3.4-5.49a3.71,3.71,0,0,1-2.56-3.69C47.56,61.36,49.59,60,52.9,60Zm0,5.89h1.84V62.34H52.88c-1.52,0-2.3.57-2.3,1.79S51.36,65.9,52.88,65.9Z"/></g></g></g></svg>