<svg xmlns="http://www.w3.org/2000/svg" viewBox="0 0 249.01 137.38"><defs><style>.cls-1{fill:#e8e7f0;}.cls-2{fill:#959595;}.cls-3{fill:#d5d5d5;}.cls-4{fill:#3b3b3b;}.cls-5{fill:#434343;}</style></defs><title>Ресурс 7s3</title><g id="Слой_2" data-name="Слой 2"><g id="Шар_56" data-name="Шар 56"><rect class="cls-1" width="249.01" height="137.38"/><path class="cls-2" d="M216.34,28.8h-50c-7.14,0-13.79,5.85-13.79,13V69.19c0,7.19,6.65,13,13.79,13h50c7.14,0,12.56-5.85,12.56-13V41.85C228.89,34.66,223.48,28.8,216.34,28.8Z"/><path class="cls-3" d="M214.43,26.9h-50c-7.14,0-13.79,5.85-13.79,13V67.28c0,7.19,6.65,13,13.79,13h50c7.14,0,12.56-5.85,12.56-13V39.94C227,32.75,221.57,26.9,214.43,26.9Z"/><rect class="cls-4" x="150.66" y="40.25" width="76.32" height="6.68"/><polygon class="cls-5" points="183.32 40.25 151.21 40.25 151.21 46.93 180.62 46.93 183.32 40.25"/><path d="M29.05,39c3.57,0,5.75,1.86,5.75,5s-2.18,5-5.75,5H23.23v-16H33.38v2.89h-6.5V39Zm-.41,3H26.88V46h1.76c1.65,0,2.52-.6,2.52-2S30.29,42,28.64,42Z"/><path d="M41,32.92v6.53h2.13c.37-3.94,2.27-6.8,6.21-6.8,4.44,0,6.25,3.57,6.25,8.29s-1.81,8.29-6.25,8.29c-3.94,0-5.84-2.82-6.21-6.78H41V49H37.34v-16Zm8.34,13.26c1.74,0,2.56-1.65,2.56-5.25s-.82-5.24-2.56-5.24-2.59,1.67-2.59,5.24S47.55,46.18,49.32,46.18Z"/><path d="M57.81,42.7V40h6.73V42.7Z"/><path d="M36.52,77.46H32.88V74.71H25.55v2.75H21.9V71.83h1.44a41.55,41.55,0,0,0,1.17-10.44v-2.7H34.71V71.83h1.81Zm-5.34-5.63V61.57H28A42.53,42.53,0,0,1,27,71.83Z"/><path d="M50.51,65.46,55,58.68h4l-4.58,6.44,5.29,9.6h-4.1l-3.32-6.6-1.81,2.52v4.08H46.87V70.64l-1.81-2.52-3.32,6.6h-4.1l5.29-9.6-4.58-6.44h4l4.51,6.78V58.68h3.64Z"/><path d="M61.63,58.68H72.35v2.91H65.27V65h6.28v2.91H65.27v3.87h7.28v2.91H61.63Z"/><path d="M78.53,61.68H73.9v-3H86.8v3H82.17v13H78.53Z"/></g></g></svg>