<svg xmlns="http://www.w3.org/2000/svg" viewBox="0 0 282.96 91.42"><defs><style>.cls-1{fill:#e8e7f0;}.cls-2{fill:#959595;}.cls-3{fill:#d5d5d5;}.cls-4{fill:#3b3b3b;}.cls-5{fill:#434343;}.cls-6{fill:#1d1d1b;}</style></defs><title>Ресурс 3s3mob</title><g id="Слой_2" data-name="Слой 2"><g id="sxema_rabotu" data-name="sxema rabotu"><g id="budget"><rect class="cls-1" width="282.96" height="91.42"/><path class="cls-2" d="M250.63,24H209c-5.94,0-11.48,4.87-11.48,10.86V57.59c0,6,5.54,10.86,11.48,10.86h41.6a10.56,10.56,0,0,0,10.45-10.86V34.83A10.56,10.56,0,0,0,250.63,24Z"/><path class="cls-3" d="M249,22.39h-41.6c-5.94,0-11.48,4.87-11.48,10.86V56c0,6,5.54,10.86,11.48,10.86H249A10.56,10.56,0,0,0,259.49,56V33.24A10.56,10.56,0,0,0,249,22.39Z"/><rect class="cls-4" x="195.96" y="33.5" width="63.53" height="5.56"/><polygon class="cls-5" points="223.15 33.5 196.42 33.5 196.42 39.06 220.9 39.06 223.15 33.5"/><path class="cls-6" d="M24.16,32.5c3,0,4.77,1.54,4.77,4.12s-1.8,4.12-4.77,4.12H19.33V27.45h8.42v2.39h-5.4V32.5ZM23.82,35H22.35v3.27h1.46c1.37,0,2.09-.49,2.09-1.63S25.19,35,23.82,35Z"/><path class="cls-6" d="M34.06,27.45v5.41h1.77c.3-3.27,1.88-5.64,5.15-5.64,3.69,0,5.19,3,5.19,6.88S44.66,41,41,41c-3.27,0-4.84-2.34-5.15-5.62H34.06v5.4H31V27.45Zm6.92,11c1.44,0,2.13-1.37,2.13-4.35s-.68-4.35-2.13-4.35-2.15,1.39-2.15,4.35S39.51,38.45,41,38.45Z"/><path class="cls-6" d="M48,35.56V33.34h5.58v2.22Z"/><path class="cls-6" d="M30.35,64.47h-3V62.19H21.25v2.28h-3V59.79h1.2a34.44,34.44,0,0,0,1-8.66V48.89h8.45v10.9h1.5Zm-4.43-4.67V51.28h-2.6a35.32,35.32,0,0,1-.89,8.51Z"/><path class="cls-6" d="M42,54.51l3.74-5.62H49l-3.8,5.34,4.39,8h-3.4l-2.75-5.47L42,58.81v3.38h-3V58.81l-1.5-2.09-2.75,5.47h-3.4l4.39-8-3.8-5.34H35.2l3.74,5.62V48.89h3Z"/><path class="cls-6" d="M51.2,48.89h8.89V51.3H54.22v2.85h5.21v2.41H54.22v3.21h6v2.41H51.2Z"/><path class="cls-6" d="M65.22,51.38H61.38V48.89h10.7v2.49H68.24V62.19h-3Z"/></g></g></g></svg>