<svg xmlns="http://www.w3.org/2000/svg" viewBox="0 0 282.96 91.42"><defs><style>.cls-1{fill:#e8e7f0;}.cls-2{fill:#999;}.cls-3{fill:#909090;}.cls-4{fill:#727272;}.cls-5{fill:#898989;}.cls-6{fill:#797979;}.cls-7{fill:#dbdbdb;}.cls-8{fill:#d0d0d0;}.cls-9{fill:#242424;}.cls-10{fill:#1a1a1a;}.cls-11{fill:#f5f5f5;}.cls-12{fill:#6a6a6a;opacity:0.6;isolation:isolate;}.cls-13{fill:#ccc;}.cls-14{fill:#1d1d1b;}</style></defs><title>Ресурс 4s4mob</title><g id="Слой_2" data-name="Слой 2"><g id="sxema_rabotu" data-name="sxema rabotu"><g id="scenariy"><rect class="cls-1" width="282.96" height="91.42"/><path class="cls-2" d="M227.77,23.07l4.85-4.85c2.23-2.23,4.16-1.86,6,0L246.46,26c1.82,1.82,1.86,3.43-.37,5.66l-4.85,4.85Z"/><path class="cls-3" d="M246.46,26l-1.69-1.69c1.82,1.82,1.86,3.43-.37,5.66l-4.85,4.85,1.68,1.69,4.85-4.85C248.33,29.47,248.28,27.86,246.46,26Z"/><rect class="cls-4" x="203.33" y="48.54" width="36.53" height="6.35" transform="translate(28.34 171.83) rotate(-45)"/><rect class="cls-5" x="194.35" y="39.55" width="36.53" height="6.35" transform="translate(32.04 162.83) rotate(-44.99)"/><rect class="cls-6" x="198.83" y="44.05" width="36.53" height="6.35" transform="translate(30.2 167.34) rotate(-45)"/><path class="cls-7" d="M210.72,63.7A2.37,2.37,0,0,0,208.9,63a2.85,2.85,0,0,0-.44-3.23,2.8,2.8,0,0,0-3.95,0,2.74,2.74,0,0,0,0-3.9,2.82,2.82,0,0,0-3.18-.49,2.37,2.37,0,0,0-4.05-1.82L193.14,70c-.21.85.31,1.37,1.16,1.16l16.43-4.11A2.38,2.38,0,0,0,210.72,63.7Z"/><path class="cls-8" d="M210.72,63.7a2.32,2.32,0,0,0-1.07-.6,2.37,2.37,0,0,1-.61,2.28l-15.72,3.93-.18.71c-.21.85.31,1.37,1.16,1.16l16.43-4.11A2.38,2.38,0,0,0,210.72,63.7Z"/><path class="cls-9" d="M198.37,65.95a4,4,0,0,0-4-1l-1.26,5c-.21.85.31,1.37,1.16,1.16l5-1.26A4,4,0,0,0,198.37,65.95Z"/><path class="cls-10" d="M199.57,68l-6.09,1.52-.18.71c-.21.85.31,1.37,1.16,1.16l5-1.26A4,4,0,0,0,199.57,68Z"/><rect class="cls-11" x="229.09" y="22.52" width="6.35" height="19.06" transform="translate(45.36 173.62) rotate(-45)"/><rect class="cls-3" x="234.39" y="20" width="0.79" height="19.06" transform="translate(47.89 174.67) rotate(-45)"/><rect class="cls-12" x="229.34" y="25.05" width="0.79" height="19.06" transform="translate(42.84 172.57) rotate(-45)"/><rect class="cls-13" x="233.27" y="21.12" width="0.79" height="19.06" transform="translate(46.77 174.2) rotate(-45)"/><rect class="cls-13" x="230.46" y="23.93" width="0.79" height="19.06" transform="translate(43.96 173.04) rotate(-45)"/><circle class="cls-13" cx="236.72" cy="36.91" r="0.79"/><circle class="cls-13" cx="234.47" cy="34.66" r="0.79"/><circle class="cls-13" cx="232.22" cy="32.42" r="0.79"/><circle class="cls-13" cx="229.98" cy="30.17" r="0.79"/><circle class="cls-13" cx="227.73" cy="27.93" r="0.79"/><path class="cls-14" d="M23,27.22a6.24,6.24,0,0,1,5.64,3.08l-2.51,1.23a3.39,3.39,0,0,0-3-1.79c-2,0-3.53,1.5-3.53,4.35s1.56,4.35,3.53,4.35a3.39,3.39,0,0,0,3-1.79l2.51,1.23A6.24,6.24,0,0,1,23,41c-3.88,0-6.48-2.72-6.48-6.88S19.08,27.22,23,27.22Z"/><path class="cls-14" d="M38.61,38.26V27.45h3V38.26h1.5V43h-3V40.75H30.55V27.45h3V38.26Z"/><path class="cls-14" d="M44.92,27.45h8.89v2.41H47.94v2.85h5.21v2.41H47.94v3.21h6v2.41H44.92Z"/><path class="cls-14" d="M56.16,27.45h3V32.5H64.3V27.45h3v13.3h-3V35H59.19v5.76h-3Z"/><path class="cls-14" d="M82.1,40.75H78.87L78,38H73.15l-.85,2.74H69.07l4.64-13.3h3.76Zm-8.19-5.13h3.34L75.58,30.3Z"/><path class="cls-14" d="M83.11,35.56V33.34h5.58v2.22Z"/><path class="cls-14" d="M21.79,57.65H20.12v4.54h-3V48.89h4.69c3.34,0,5.34,1.46,5.34,4.39S25.14,57.65,21.79,57.65Zm-.13-6.36H20.12v4h1.54c1.58,0,2.41-.59,2.41-2S23.24,51.29,21.66,51.29Z"/><path class="cls-14" d="M40.26,62.19H37.34V53.68l-5.24,8.51H29.15V48.89h2.93V57.4l5.24-8.51h2.94Z"/><path class="cls-14" d="M54.19,62.19H51.26V53.68L46,62.19H43.07V48.89H46V57.4l5.24-8.51h2.94ZM48.62,47.73a3.07,3.07,0,0,0,3.15-2.66L50,44.71c-.23.93-.72,1.35-1.39,1.35s-1.16-.42-1.39-1.35l-1.77.36A3.07,3.07,0,0,0,48.62,47.73Z"/></g></g></g></svg>