<svg xmlns="http://www.w3.org/2000/svg" viewBox="0 0 249.01 137.38"><defs><style>.cls-1{fill:#e8e7f0;}.cls-2{fill:#fff;}.cls-3{fill:#b4b4b4;}.cls-4{fill:#f4f4f4;}.cls-5{fill:#8d8d8d;}.cls-6{fill:#cdcdcd;}.cls-7{fill:#949494;}.cls-8{fill:#7b7b7b;}.cls-9{fill:#333;}.cls-10{fill:#292929;}.cls-11{fill:#e6e6e6;}.cls-12{fill:#ccc;}.cls-13{fill:#606060;}</style></defs><title>Ресурс 9s5</title><g id="Слой_2" data-name="Слой 2"><g id="Шар_56" data-name="Шар 56"><rect class="cls-1" width="249.01" height="137.38"/><path class="cls-2" d="M182.76,23.68c-9.81,0-5.72,24.69-17.17,21.83-15.76-3.94-22.9.56-22.9,10.49,0,17.85,17.94,32.32,40.07,32.32S222.83,73.85,222.83,56,204.89,23.68,182.76,23.68ZM156,59.82A4.77,4.77,0,1,1,160.82,55,4.77,4.77,0,0,1,156,59.82Z"/><path class="cls-3" d="M161.77,45.51a5.84,5.84,0,0,0,3.48-.07,37.53,37.53,0,0,0-11.41-1.27A46.6,46.6,0,0,1,161.77,45.51Z"/><path class="cls-4" d="M182.76,23.68a5.15,5.15,0,0,0-1,.09C202.6,25,219,38.93,219,56c0,17.33-16.92,31.48-38.16,32.28.63,0,1.27,0,1.91,0,22.13,0,40.07-14.47,40.07-32.32S204.89,23.68,182.76,23.68Z"/><circle class="cls-5" cx="170.36" cy="76.04" r="5.72"/><circle class="cls-6" cx="187.53" cy="77.95" r="5.72"/><circle class="cls-7" cx="203.75" cy="70.31" r="5.72"/><circle class="cls-8" cx="211.38" cy="53.14" r="5.72"/><path class="cls-9" d="M189.95,42.49c4.37-.76,8.65-3.92,12.62-7.89,9.07-9.07,15.82-23.62,15-24.45s-15.1,5.64-24.45,15c-3.94,3.95-7.12,8.34-7.89,12.62Z"/><path class="cls-10" d="M217.55,10.16c-.22-.22-1.41.08-3.2.82A74.89,74.89,0,0,1,200.2,32.24c-4,4-8.25,7.13-12.62,7.89l2.37,2.37c4.37-.76,8.65-3.92,12.62-7.89C211.64,25.54,218.38,11,217.55,10.16Z"/><path class="cls-11" d="M188.72,30.23a19.07,19.07,0,0,0-3.51,7.53l4.73,4.73A18.65,18.65,0,0,0,197.49,39Z"/><path class="cls-12" d="M195.13,36.63a18.66,18.66,0,0,1-7.55,3.49l2.37,2.37A18.65,18.65,0,0,0,197.49,39Z"/><path class="cls-13" d="M189.95,42.49l-4.73-4.73c-10.65.39-5.92,11.44-11.83,15,4.08,0,11,0,13.8-2.76A8.76,8.76,0,0,0,189.95,42.49Z"/><path class="cls-8" d="M189.55,42.1,186,38.55c-7.84.29-3.92,8.82-8.28,11.44,3,0,7.83.06,9.86-2A7.1,7.1,0,0,0,189.55,42.1Z"/><path d="M22.35,31.5H33.23v3H26v13H22.35Z"/><path d="M41,42.06H39v5.47H35.33v-16H41c4,0,6.44,1.76,6.44,5.29S45,42.06,41,42.06Zm-.16-7.67H39v4.79h1.86c1.9,0,2.91-.71,2.91-2.38S42.73,34.39,40.83,34.39Z"/><path d="M63,47.53H59.12l-1.05-3.3H52.23l-1,3.3H47.31l5.59-16h4.54Zm-9.87-6.18h4l-2-6.41Z"/><path d="M64.23,41.28V38.6H71v2.68Z"/><path d="M31.37,57.26v2.24c3.78.28,6.25,2.36,6.25,5.77S35.15,70.8,31.37,71v2.24H27.73V71c-3.78-.25-6.25-2.36-6.25-5.77s2.47-5.5,6.25-5.77V57.26Zm-3.64,5.25a2.79,2.79,0,0,0,0,5.57Zm3.64,5.57a2.79,2.79,0,0,0,0-5.57Z"/><path d="M53.54,73.29H50V63L43.69,73.29H40.14v-16h3.53V67.52L50,57.26h3.55Z"/><path d="M60.56,64.5l5.18-7.24h4l-5,6.6,5.75,9.44H66.36l-3.78-6.55-2,2.61v3.94H56.92v-16h3.64Z"/><path d="M86.81,73.29H82.91L81.86,70H76l-1,3.3H71.1l5.59-16h4.54Zm-9.87-6.18h4L79,60.7Z"/></g></g></svg>