<svg xmlns="http://www.w3.org/2000/svg" viewBox="0 0 282.96 91.42"><defs><style>.cls-1{fill:#e8e7f0;}.cls-2{fill:#bfbfbf;}.cls-3{fill:#b4b4b4;}.cls-4{fill:#8d8d8d;}.cls-5{fill:#cdcdcd;}.cls-6{fill:#949494;}.cls-7{fill:#7b7b7b;}.cls-8{fill:#333;}.cls-9{fill:#292929;}.cls-10{fill:#e6e6e6;}.cls-11{fill:#ccc;}.cls-12{fill:#606060;}.cls-13{fill:#1d1d1b;}</style></defs><title>Ресурс 5s5mob</title><g id="Слой_2" data-name="Слой 2"><g id="sxema_rabotu" data-name="sxema rabotu"><g id="graphica"><rect class="cls-1" width="282.96" height="91.42"/><path class="cls-2" d="M222.68,19.71c-8.16,0-4.76,20.55-14.29,18.17-13.12-3.28-19.06.46-19.06,8.74,0,14.86,14.93,26.9,33.35,26.9S256,61.47,256,46.62,241.1,19.71,222.68,19.71ZM200.44,49.79a4,4,0,1,1,4-4A4,4,0,0,1,200.44,49.79Z"/><path class="cls-3" d="M205.21,37.88a4.86,4.86,0,0,0,2.9-.06,31.24,31.24,0,0,0-9.5-1.05A38.79,38.79,0,0,1,205.21,37.88Z"/><path class="cls-3" d="M222.68,19.71a4.29,4.29,0,0,0-.8.08c17.31,1,31,12.61,31,26.83,0,14.43-14.08,26.2-31.76,26.87.53,0,1.06,0,1.59,0,18.42,0,33.35-12,33.35-26.9S241.1,19.71,222.68,19.71Z"/><circle class="cls-4" cx="212.36" cy="63.29" r="4.76"/><circle class="cls-5" cx="226.65" cy="64.88" r="4.76"/><circle class="cls-6" cx="240.15" cy="58.53" r="4.76"/><circle class="cls-7" cx="246.5" cy="44.23" r="4.76"/><path class="cls-8" d="M228.66,35.37c3.64-.63,7.2-3.26,10.5-6.56,7.55-7.55,13.16-19.66,12.47-20.35s-12.57,4.69-20.35,12.47c-3.28,3.28-5.93,6.95-6.56,10.51Z"/><path class="cls-9" d="M251.64,8.45c-.18-.18-1.17.07-2.66.68a62.34,62.34,0,0,1-11.78,17.7c-3.3,3.3-6.87,5.93-10.5,6.56l2,2c3.64-.63,7.2-3.26,10.5-6.56C246.72,21.26,252.33,9.15,251.64,8.45Z"/><path class="cls-10" d="M227.64,25.16a15.87,15.87,0,0,0-2.92,6.27l3.94,3.94a15.52,15.52,0,0,0,6.28-2.91Z"/><path class="cls-11" d="M233,30.49a15.53,15.53,0,0,1-6.28,2.91l2,2a15.52,15.52,0,0,0,6.28-2.91Z"/><path class="cls-12" d="M228.66,35.37l-3.94-3.94c-8.86.33-4.92,9.52-9.85,12.47,3.4,0,9.19,0,11.49-2.3A7.29,7.29,0,0,0,228.66,35.37Z"/><path class="cls-7" d="M228.33,35l-3-3c-6.52.24-3.27,7.34-6.89,9.52,2.5,0,6.51.05,8.21-1.64A5.91,5.91,0,0,0,228.33,35Z"/><path class="cls-13" d="M18.6,26.27h9v2.49h-6V39.57h-3Z"/><path class="cls-13" d="M34.06,35H32.39v4.54h-3V26.27h4.69c3.34,0,5.34,1.46,5.34,4.39S37.41,35,34.06,35Zm-.13-6.36H32.39v4h1.54c1.58,0,2.41-.59,2.41-2S35.51,28.66,33.93,28.66Z"/><path class="cls-13" d="M52.34,39.57H49.11l-.87-2.74H43.39l-.85,2.74H39.31l4.64-13.3H47.7Zm-8.19-5.13h3.34l-1.67-5.32Z"/><path class="cls-13" d="M53.35,34.38V32.16h5.58v2.22Z"/><path class="cls-13" d="M26.08,47.71v1.86c3.13.23,5.19,2,5.19,4.79s-2.05,4.58-5.19,4.79V61h-3V59.15c-3.13-.21-5.19-2-5.19-4.79s2.05-4.56,5.19-4.79V47.71Zm-3,4.35a2.31,2.31,0,0,0,0,4.62Zm3,4.62a2.31,2.31,0,0,0,0-4.62Z"/><path class="cls-13" d="M44.47,61H41.55V52.5L36.3,61H33.36V47.71h2.93v8.51l5.24-8.51h2.94Z"/><path class="cls-13" d="M50.31,53.71l4.29-6h3.34l-4.18,5.47L58.53,61H55.11L52,55.57l-1.67,2.17V61h-3V47.71h3Z"/><path class="cls-13" d="M72.08,61H68.85L68,58.27H63.13L62.28,61H59l4.64-13.3h3.76Zm-8.19-5.13h3.34l-1.67-5.32Z"/></g></g></g></svg>