<svg xmlns="http://www.w3.org/2000/svg" viewBox="0 0 249.01 137.38"><defs><style>.cls-1{fill:#e8e7f0;}.cls-2{fill:#232323;}.cls-3{fill:#2c2c2c;}.cls-4{fill:#717171;}.cls-5{fill:#fff;}</style></defs><title>Ресурс 10s6</title><g id="Слой_2" data-name="Слой 2"><g id="Шар_56" data-name="Шар 56"><rect class="cls-1" width="249.01" height="137.38"/><path d="M25.25,45l-2.52-1.83a7.42,7.42,0,0,1,5.61-2.36c3.28,0,5.54,1.54,5.54,4.28a4,4,0,0,1-2.63,3.67,4,4,0,0,1,3,3.94c0,2.79-2.29,4.69-5.93,4.69a7.51,7.51,0,0,1-6-2.68l2.47-1.79A4.36,4.36,0,0,0,28,54.44c1.51,0,2.47-.78,2.47-1.92,0-1.58-1.4-2.27-3.34-2.27h-1.4V47.37h1.56c1.6,0,2.86-.78,2.86-2s-.78-1.7-2.06-1.7A3.89,3.89,0,0,0,25.25,45Z"/><path d="M36.86,41h6c3.85,0,5.7,1.76,5.7,4.37a3.22,3.22,0,0,1-2.27,3.23,3.66,3.66,0,0,1,3.07,3.71c0,2.79-1.81,4.72-6.14,4.72H36.86Zm5.75,2.77H40.46V47.5h2.15c1.63,0,2.47-.67,2.47-1.88S44.24,43.82,42.61,43.82Zm.3,6.37H40.46V54.3h2.45c1.88,0,2.77-.69,2.77-2.06S44.79,50.18,42.91,50.18Z"/><path d="M57,48.37,60.34,41h3.73l-7.26,16H53.05l2.22-4.9L49.82,41h3.73Z"/><path d="M69.72,48.28,74.9,41h4l-5,6.6,5.75,9.44H75.52l-3.78-6.55-2,2.61v3.94H66.08V41h3.64Z"/><path class="cls-2" d="M216,61.38h-6.89V50.33c0-2.42-.83-23.69-29.39-23.69-29.91,0-30.25,22.73-30.25,23.69V61.38H142.6V50.33c0-10.58,7.76-30.59,37.15-30.59C208.39,19.74,216,39,216,50.33Z"/><path class="cls-3" d="M157.1,34a4.52,4.52,0,0,1-2.65-8.19c6.54-4.72,15.06-7.12,25.3-7.12,9.46,0,17.4,2.05,23.59,6.11a4.52,4.52,0,0,1-5,7.57c-4.69-3.07-11-4.63-18.63-4.63-8.3,0-15,1.82-20,5.41A4.51,4.51,0,0,1,157.1,34Z"/><path class="cls-4" d="M142.44,71.25c0,4-2.08,7.19-4.65,7.19h0c-2.57,0-4.65-7.19-4.65-7.19V69.33s2.08-7.18,4.65-7.18h0c2.57,0,4.65,3.22,4.65,7.18Z"/><path class="cls-3" d="M157.47,72.2c0,7-3.11,12.72-10.13,12.72h0A12.72,12.72,0,0,1,134.62,72.2V68.8a12.72,12.72,0,0,1,12.72-12.72h0c7,0,10.13,5.69,10.13,12.72Z"/><path class="cls-5" d="M146.86,57.59c0-3.93,2.78-7.12,6.21-7.12h0c3.43,0,6.21,3.19,6.21,7.12V83.71c0,3.93-2.78,7.12-6.21,7.12h0c-3.43,0-6.21-3.19-6.21-7.12V57.59"/><path class="cls-4" d="M216.19,71.25c0,4,2.08,7.19,4.65,7.19h0c2.57,0,4.65-7.19,4.65-7.19V69.33s-2.08-7.18-4.65-7.18h0c-2.57,0-4.65,3.22-4.65,7.18Z"/><path class="cls-3" d="M201.16,72.2c0,7,3.11,12.72,10.13,12.72h0A12.72,12.72,0,0,0,224,72.2V68.8a12.72,12.72,0,0,0-12.72-12.72h0c-7,0-10.13,5.69-10.13,12.72Z"/><path class="cls-5" d="M199.35,83.71c0,3.93,2.78,7.12,6.21,7.12h0c3.43,0,6.21-3.19,6.21-7.12V57.59c0-3.93-2.78-7.12-6.21-7.12h0c-3.43,0-6.21,3.19-6.21,7.12Z"/></g></g></svg>