<svg xmlns="http://www.w3.org/2000/svg" viewBox="0 0 282.96 91.42"><defs><style>.cls-1{isolation:isolate;}.cls-2{fill:#e8e7f0;}.cls-3{fill:#1d1d1b;}.cls-4{fill:#232323;}.cls-5{fill:#2c2c2c;}.cls-6{fill:#717171;}.cls-7{fill:#bbb;}.cls-8{fill:#f0f0f0;mix-blend-mode:multiply;}</style></defs><title>Ресурс 6s6mob</title><g class="cls-1"><g id="Слой_2" data-name="Слой 2"><g id="sxema_rabotu" data-name="sxema rabotu"><g id="zvuk"><rect class="cls-2" width="282.96" height="91.42"/><path class="cls-3" d="M21,37.46l-2.09-1.52a6.15,6.15,0,0,1,4.65-2c2.72,0,4.6,1.27,4.6,3.55a3.29,3.29,0,0,1-2.19,3,3.32,3.32,0,0,1,2.45,3.27c0,2.32-1.9,3.89-4.92,3.89a6.23,6.23,0,0,1-5-2.22L20.56,44a3.62,3.62,0,0,0,2.75,1.29c1.25,0,2.05-.65,2.05-1.6,0-1.31-1.16-1.88-2.77-1.88H21.43V39.45h1.29c1.33,0,2.38-.65,2.38-1.63s-.65-1.41-1.71-1.41A3.23,3.23,0,0,0,21,37.46Z"/><path class="cls-3" d="M30.64,34.21h5c3.19,0,4.73,1.46,4.73,3.63a2.67,2.67,0,0,1-1.88,2.68A3,3,0,0,1,41,43.59c0,2.32-1.5,3.91-5.09,3.91H30.64Zm4.77,2.3H33.63v3.06h1.79c1.35,0,2.05-.55,2.05-1.56S36.76,36.51,35.41,36.51Zm.25,5.28h-2v3.42h2c1.56,0,2.3-.57,2.3-1.71S37.22,41.79,35.66,41.79Z"/><path class="cls-3" d="M47.33,40.29l2.79-6.08h3.1l-6,13.3H44.08l1.84-4.07L41.4,34.21h3.1Z"/><path class="cls-3" d="M57.91,40.21l4.29-6h3.34l-4.18,5.47,4.77,7.83H62.72l-3.13-5.43-1.67,2.17v3.27h-3V34.21h3Z"/><path class="cls-4" d="M250.37,51.09h-5.74v-9.2c0-2-.69-19.72-24.47-19.72-24.9,0-25.18,18.92-25.18,19.72v9.2h-5.74v-9.2c0-8.81,6.46-25.46,30.92-25.46,23.84,0,30.2,16,30.2,25.46Z"/><path class="cls-5" d="M201.32,28.28a3.77,3.77,0,0,1-2.21-6.82c5.45-3.93,12.53-5.92,21.06-5.92,7.88,0,14.48,1.71,19.63,5.08a3.77,3.77,0,0,1-4.13,6.3c-3.9-2.56-9.12-3.85-15.51-3.85-6.91,0-12.51,1.51-16.65,4.5A3.76,3.76,0,0,1,201.32,28.28Z"/><path class="cls-6" d="M189.12,59.31c0,3.3-1.73,6-3.87,6h0c-2.14,0-3.87-6-3.87-6v-1.6s1.73-6,3.87-6h0c2.14,0,3.87,2.68,3.87,6Z"/><path class="cls-5" d="M201.63,60.1c0,5.85-2.59,10.59-8.44,10.59h0A10.59,10.59,0,0,1,182.61,60.1V57.26A10.59,10.59,0,0,1,193.2,46.68h0c5.85,0,8.44,4.74,8.44,10.59Z"/><path class="cls-7" d="M192.8,47.94c0-3.27,2.31-5.93,5.17-5.93h0c2.86,0,5.17,2.65,5.17,5.93V69.68c0,3.27-2.32,5.93-5.17,5.93h0c-2.85,0-5.17-2.65-5.17-5.93V47.94"/><path class="cls-6" d="M250.5,59.31c0,3.3,1.73,6,3.87,6h0c2.14,0,3.87-6,3.87-6v-1.6s-1.73-6-3.87-6h0c-2.14,0-3.87,2.68-3.87,6Z"/><path class="cls-5" d="M238,60.1c0,5.85,2.59,10.59,8.44,10.59h0A10.59,10.59,0,0,0,257,60.1V57.26a10.59,10.59,0,0,0-10.59-10.59h0c-5.85,0-8.44,4.74-8.44,10.59Z"/><path class="cls-7" d="M236.49,69.68c0,3.27,2.31,5.93,5.17,5.93h0c2.85,0,5.17-2.65,5.17-5.93V47.94c0-3.27-2.31-5.93-5.17-5.93h0c-2.85,0-5.17,2.65-5.17,5.93Z"/><path class="cls-8" d="M199.11,21.46a3.75,3.75,0,0,0-1.48,2.31,25,25,0,0,0-8.38,18.12v5.55a10.62,10.62,0,0,0-5.71,5.47,18.66,18.66,0,0,0-2.17,4.79v1.6a20.47,20.47,0,0,0,1.83,4.29,10.59,10.59,0,0,0,9.67,7.08A5.43,5.43,0,0,0,198,75.61c2.86,0,5.17-2.65,5.17-5.93V47.94c0-3.27-2.32-5.93-5.17-5.93a4.7,4.7,0,0,0-3,1.09V41.89a19.81,19.81,0,0,1,6.2-13.62h.14a3.76,3.76,0,0,0,2.2-.71c4.11-3,9.66-4.48,16.51-4.5V15.54C211.57,15.56,204.53,17.55,199.11,21.46Z"/></g></g></g></g></svg>