<svg xmlns="http://www.w3.org/2000/svg" viewBox="0 0 249.47 137.38"><defs><style>.cls-1{fill:#e8e7f0;}.cls-2{fill:#fff;}.cls-3{fill:#ccc;}.cls-4{fill:#606060;}.cls-5{fill:#565656;}.cls-6{fill:#797979;}.cls-7{fill:#f5f5f5;}</style></defs><title>Ресурс 11s7</title><g id="Слой_2" data-name="Слой 2"><g id="Шар_56" data-name="Шар 56"><rect class="cls-1" width="249.47" height="137.38"/><path class="cls-2" d="M159.74,53.88l66.1-11.67c1.28-.23,1.94.42,1.48,1.43l-2.8,4.86a4.69,4.69,0,0,1-3.16,2.25L161.07,61.4Z"/><path class="cls-3" d="M165.64,56.68a13.33,13.33,0,0,0-1.19-3.62l-4.7.83,1.33,7.52,4.67-.83A13.18,13.18,0,0,0,165.64,56.68Z"/><path class="cls-2" d="M192.59,48.85l34.83-6.06c-.16-.47-.73-.72-1.58-.57l-33.89,6Z"/><polygon class="cls-3" points="183.19 57.49 191.27 56.07 193.02 48.01 184.93 49.44 183.19 57.49"/><path class="cls-4" d="M163.76,57a11.45,11.45,0,1,0-9.28,13.26A11.45,11.45,0,0,0,163.76,57Zm-18,3.18a6.85,6.85,0,1,1,7.94,5.56A6.86,6.86,0,0,1,145.74,60.19Z"/><path class="cls-5" d="M156.7,53.61a6.84,6.84,0,1,0-9.64,9.57,6.84,6.84,0,0,1,9.64-9.57Z"/><path class="cls-5" d="M163.76,57a11.41,11.41,0,0,0-3.86-6.73,11.44,11.44,0,0,1-16,16.24,11.44,11.44,0,0,0,19.9-9.5Z"/><path class="cls-2" d="M186.08,72.47l12.68-58.58c.25-1.13-.39-1.77-1.4-1.41l-4.88,2.23a4,4,0,0,0-2.29,2.7L178.27,72.72Z"/><path class="cls-3" d="M178.27,72.72l7.81-.25.79-3.67-.4-.11a11.4,11.4,0,0,0-7.54,1Z"/><circle class="cls-6" cx="186.38" cy="53.06" r="2.86"/><path class="cls-7" d="M191.44,47.7l7.32-33.81c.25-1.13-.39-1.77-1.4-1.41l-.11.05a3.32,3.32,0,0,0-.31.83l-7.12,32.7Z"/><path class="cls-4" d="M194.29,79.9A11.45,11.45,0,1,0,185,93.17,11.45,11.45,0,0,0,194.29,79.9Zm-18,3.18a6.85,6.85,0,1,1,7.94,5.56A6.86,6.86,0,0,1,176.27,83.09Z"/><path class="cls-5" d="M187.23,76.51a6.84,6.84,0,1,0-9.64,9.57,6.84,6.84,0,0,1,9.64-9.57Z"/><path class="cls-5" d="M194.29,79.9a11.41,11.41,0,0,0-3.86-6.73,11.44,11.44,0,0,1-16,16.24,11.44,11.44,0,0,0,19.9-9.5Z"/><path d="M35.68,47.53H32v-13H25.92v13H22.28v-16h13.4Z"/><path d="M44.72,42.06h-2v5.47H39.06v-16h5.66c4,0,6.44,1.76,6.44,5.29S48.75,42.06,44.72,42.06Zm-.16-7.67H42.7v4.79h1.85c1.9,0,2.91-.71,2.91-2.38S46.46,34.39,44.56,34.39Z"/><path d="M66.75,47.53H62.86l-1.05-3.3H56l-1,3.3H51l5.59-16h4.53Zm-9.87-6.18h4l-2-6.41Z"/><path d="M68,41.28V38.6h6.73v2.68Z"/><path d="M22.28,57.26h6c3.85,0,5.7,1.76,5.7,4.37a3.23,3.23,0,0,1-2.27,3.23,3.66,3.66,0,0,1,3.07,3.71c0,2.79-1.81,4.72-6.14,4.72H22.28ZM28,60H25.87v3.69H28c1.63,0,2.47-.67,2.47-1.88S29.65,60,28,60Zm.3,6.37H25.87v4.12h2.45c1.88,0,2.77-.69,2.77-2.06S30.2,66.4,28.32,66.4Z"/><path d="M40.94,64.5l5.18-7.24h4l-5,6.6,5.75,9.44H46.74L43,66.74l-2,2.61v3.94H37.3v-16h3.64Z"/><path d="M66.15,73.29H62.63V63L56.3,73.29H52.75v-16h3.53V67.52L62.6,57.26h3.55Z"/></g></g></svg>