<svg xmlns="http://www.w3.org/2000/svg" viewBox="0 0 283.49 91.42"><defs><style>.cls-1{fill:#e8e7f0;}.cls-2{fill:#e6e6e6;}.cls-3{fill:#ccc;}.cls-4{fill:#fff;}.cls-5{fill:#606060;}.cls-6{fill:#565656;}.cls-7{fill:#797979;}.cls-8{fill:#f5f5f5;}.cls-9{fill:#1d1d1b;}</style></defs><title>Ресурс 7s7mob</title><g id="Слой_2" data-name="Слой 2"><g id="sxema_rabotu" data-name="sxema rabotu"><g id="pravki"><rect class="cls-1" width="283.49" height="91.42"/><path class="cls-2" d="M203.52,44.85l55-9.71c1.06-.19,1.62.35,1.23,1.19l-2.33,4a3.91,3.91,0,0,1-2.63,1.87l-50.19,8.86Z"/><path class="cls-3" d="M208.43,47.17a11.09,11.09,0,0,0-1-3l-3.91.69,1.1,6.26,3.89-.69A11,11,0,0,0,208.43,47.17Z"/><path class="cls-4" d="M230.86,40.66l29-5c-.13-.39-.61-.6-1.31-.47l-28.21,5Z"/><polygon class="cls-3" points="223.04 47.86 229.76 46.67 231.22 39.96 224.48 41.15 223.04 47.86"/><path class="cls-5" d="M206.86,47.45a9.53,9.53,0,1,0-7.73,11A9.53,9.53,0,0,0,206.86,47.45Zm-15,2.65a5.7,5.7,0,1,1,6.61,4.62A5.71,5.71,0,0,1,191.86,50.1Z"/><path class="cls-6" d="M201,44.62a5.7,5.7,0,1,0-8,8,5.69,5.69,0,0,1,8-8Z"/><path class="cls-6" d="M206.86,47.45a9.5,9.5,0,0,0-3.21-5.6A9.52,9.52,0,0,1,190.3,55.36a9.52,9.52,0,0,0,16.56-7.91Z"/><path class="cls-2" d="M225.44,60.32,236,11.56c.2-.94-.32-1.47-1.17-1.17l-4.06,1.86a3.36,3.36,0,0,0-1.91,2.25l-9.92,46Z"/><path class="cls-3" d="M218.94,60.53l6.5-.21.66-3.05-.33-.09a9.49,9.49,0,0,0-6.28.8Z"/><circle class="cls-7" cx="225.69" cy="44.16" r="2.38"/><path class="cls-8" d="M229.9,39.7,236,11.56c.2-.94-.32-1.47-1.17-1.17l-.09,0a2.76,2.76,0,0,0-.26.69l-5.93,27.22Z"/><path class="cls-5" d="M232.28,66.51a9.53,9.53,0,1,0-7.73,11A9.53,9.53,0,0,0,232.28,66.51Zm-15,2.65a5.7,5.7,0,1,1,6.61,4.62A5.71,5.71,0,0,1,217.27,69.16Z"/><path class="cls-6" d="M226.4,63.68a5.7,5.7,0,1,0-8,8,5.69,5.69,0,0,1,8-8Z"/><path class="cls-6" d="M232.28,66.51a9.5,9.5,0,0,0-3.21-5.6,9.52,9.52,0,0,1-13.35,13.52,9.52,9.52,0,0,0,16.56-7.91Z"/><path class="cls-9" d="M29.65,39.56h-3V28.75H21.56V39.56h-3V26.27H29.65Z"/><path class="cls-9" d="M37.16,35H35.49v4.54h-3V26.27h4.69c3.34,0,5.34,1.46,5.34,4.39S40.5,35,37.16,35ZM37,28.66H35.49v4H37c1.58,0,2.41-.59,2.41-2S38.6,28.66,37,28.66Z"/><path class="cls-9" d="M55.43,39.56H52.2l-.87-2.74H46.49l-.85,2.74H42.4L47,26.27H50.8Zm-8.19-5.13h3.34l-1.67-5.32Z"/><path class="cls-9" d="M56.44,34.38V32.15H62v2.22Z"/><path class="cls-9" d="M18.54,47.71h5c3.19,0,4.73,1.46,4.73,3.63A2.67,2.67,0,0,1,26.35,54a3,3,0,0,1,2.55,3.08c0,2.32-1.5,3.91-5.09,3.91H18.54ZM23.31,50H21.52v3.06h1.79c1.35,0,2.05-.55,2.05-1.56S24.65,50,23.31,50Zm.25,5.28h-2v3.42h2c1.56,0,2.3-.57,2.3-1.71S25.11,55.29,23.55,55.29Z"/><path class="cls-9" d="M34,53.71l4.29-6h3.34l-4.18,5.47L42.25,61H38.83l-3.13-5.43L34,57.74V61H31V47.71h3Z"/><path class="cls-9" d="M54.94,61H52V52.49L46.77,61H43.83V47.71h2.93v8.51L52,47.71h2.94Z"/></g></g></g></svg>