<svg xmlns="http://www.w3.org/2000/svg" xmlns:xlink="http://www.w3.org/1999/xlink" viewBox="0 0 249.01 137.38"><defs><style>.cls-1{fill:#e8e7f0;}.cls-2,.cls-3,.cls-4,.cls-5{fill-rule:evenodd;}.cls-2{fill:url(#New_Gradient_5);}.cls-3{fill:url(#New_Gradient_4);}.cls-4{fill:url(#New_Gradient_3);}.cls-5{fill:url(#New_Gradient_2);}</style><linearGradient id="New_Gradient_5" x1="-408.03" y1="2893.21" x2="-406.76" y2="2820.53" gradientTransform="translate(417.03 -1446.82) scale(0.53)" gradientUnits="userSpaceOnUse"><stop offset="0" stop-color="#323232"/><stop offset="1" stop-color="#595959"/></linearGradient><linearGradient id="New_Gradient_4" x1="-197.62" y1="5645.59" x2="-196.35" y2="5573.06" gradientTransform="translate(271.67 -1900.25) scale(0.35)" gradientUnits="userSpaceOnUse"><stop offset="0" stop-color="#2b2b2b"/><stop offset="1" stop-color="#444"/></linearGradient><linearGradient id="New_Gradient_3" x1="-196.84" y1="5643.45" x2="-196.84" y2="5572.98" gradientTransform="translate(271.67 -1900.25) scale(0.35)" gradientUnits="userSpaceOnUse"><stop offset="0" stop-color="#ddd"/><stop offset="1" stop-color="#fff"/></linearGradient><linearGradient id="New_Gradient_2" x1="-333.09" y1="5643.45" x2="-333.09" y2="5572.24" gradientTransform="translate(271.67 -1900.25) scale(0.35)" gradientUnits="userSpaceOnUse"><stop offset="0" stop-color="#424242"/><stop offset="1" stop-color="#262626"/></linearGradient></defs><title>Ресурс 12s8</title><g id="Слой_2" data-name="Слой 2"><g id="Шар_56" data-name="Шар 56"><rect class="cls-1" width="249.01" height="137.38"/><path d="M33.7,31.5l-5.43,9.73v6.3H24.61v-6.3L19.18,31.5h3.92l3.34,6.57,3.34-6.57Z"/><path d="M41.62,47.81c-4.74,0-7.58-3.57-7.58-8.29s2.84-8.29,7.58-8.29,7.58,3.57,7.58,8.29S46.36,47.81,41.62,47.81Zm0-3c2.38,0,3.89-2,3.89-5.25S44,34.27,41.62,34.27s-3.89,2-3.89,5.24S39.24,44.76,41.62,44.76Z"/><path d="M51.83,41.05V31.5h3.64v9.64c0,2.36,1.05,3.62,3.23,3.62s3.23-1.26,3.23-3.62V31.5h3.64v9.55c0,4.44-2.7,6.76-6.87,6.76S51.83,45.5,51.83,41.05Z"/><path d="M68.52,41.28V38.6h6.73v2.68Z"/><path d="M23.9,60.26H19.27v-3H32.16v3H27.54v13H23.9Z"/><path d="M34.27,66.81V57.26h3.64v9.64c0,2.36,1.05,3.62,3.23,3.62s3.23-1.26,3.23-3.62V57.26H48v9.55c0,4.44-2.7,6.76-6.87,6.76S34.27,71.26,34.27,66.81Z"/><path d="M51.39,57.26h6c3.85,0,5.7,1.76,5.7,4.37a3.23,3.23,0,0,1-2.27,3.23,3.66,3.66,0,0,1,3.07,3.71c0,2.79-1.81,4.72-6.14,4.72H51.39ZM57.14,60H55v3.69h2.15c1.63,0,2.47-.67,2.47-1.88S58.77,60,57.14,60Zm.3,6.37H55v4.12h2.45c1.88,0,2.77-.69,2.77-2.06S59.32,66.4,57.44,66.4Z"/><path d="M66.42,57.26H77.13v2.91H70.06v3.44h6.28v2.91H70.06v3.87h7.28v2.91H66.42Z"/><path class="cls-2" d="M230.36,53.32a58.31,58.31,0,0,1-1,12.88,6.88,6.88,0,0,1-5.89,5.35,182.88,182.88,0,0,1-20.41.75,182.89,182.89,0,0,1-20.41-.75,6.88,6.88,0,0,1-5.89-5.35,58.37,58.37,0,0,1-.95-12.88,58.33,58.33,0,0,1,1-12.88,6.88,6.88,0,0,1,5.89-5.35,183.1,183.1,0,0,1,20.41-.76,183.1,183.1,0,0,1,20.41.76,6.88,6.88,0,0,1,5.89,5.35c.95,4.13.94,8.63.94,12.88Z"/><path class="cls-3" d="M221.4,65.75a4.7,4.7,0,0,1-4-1.85,7,7,0,0,1-1.05-4.26V53.29a7.05,7.05,0,0,1,1-4.27,4.66,4.66,0,0,1,3.93-1.86A4.55,4.55,0,0,1,225.19,49a7.12,7.12,0,0,1,1,4.27V57h-6.56v3.21c0,1.68.55,2.51,1.67,2.51a1.41,1.41,0,0,0,1.47-1.32,21.17,21.17,0,0,0,.07-2.22h3.35v.48c0,1.05,0,1.79-.07,2.11a4.63,4.63,0,0,1-.77,2,4.54,4.54,0,0,1-4,2Zm-.11-15.62q-1.64,0-1.64,2.51v1.68h3.28V52.63c0-1.68-.55-2.51-1.64-2.51ZM210.87,65.75a4.47,4.47,0,0,1-3.39-2V65.5H204.2V41.2h3.28v7.94a4.44,4.44,0,0,1,3.39-2,2.6,2.6,0,0,1,2.62,2,14.08,14.08,0,0,1,.33,3.64v7.21a14.59,14.59,0,0,1-.33,3.65,2.6,2.6,0,0,1-2.62,2Zm-1.75-15.62a2.36,2.36,0,0,0-1.64.8V62a2.35,2.35,0,0,0,1.64.81c.95,0,1.43-.81,1.43-2.44V52.6c0-1.64-.48-2.47-1.43-2.47ZM194.33,65.75a2,2,0,0,1-2.11-1.35,9.24,9.24,0,0,1-.29-2.69V47.39h3.28V60.72a9.9,9.9,0,0,0,0,1.28c.08.51.33.77.77.77.66,0,1.35-.51,2.07-1.53V47.39h3.28V65.5h-3.28v-2c-1.3,1.5-2.54,2.22-3.75,2.22Zm-6.81-.25h-3.65V44.62H180V41.2h11.44v3.42h-3.93V65.5Z"/><path class="cls-4" d="M226.2,59.32v-.48h-3.35a20.74,20.74,0,0,1-.07,2.22,1.41,1.41,0,0,1-1.47,1.32c-1.13,0-1.67-.84-1.67-2.51V56.66h6.56V52.91a7.13,7.13,0,0,0-1-4.27,4.56,4.56,0,0,0-3.87-1.86,4.66,4.66,0,0,0-3.93,1.86,7,7,0,0,0-1,4.27v6.34a7,7,0,0,0,1.05,4.26,4.69,4.69,0,0,0,4,1.85,4.54,4.54,0,0,0,4-2,4.67,4.67,0,0,0,.77-2c0-.33.07-1.06.07-2.11Zm-3.28-5.39h-3.28V52.25q0-2.51,1.64-2.51c1.09,0,1.64.84,1.64,2.51v1.68Zm-9.1,5.75V52.47a14,14,0,0,0-.33-3.64,2.6,2.6,0,0,0-2.62-2,4.44,4.44,0,0,0-3.39,2V40.81H204.2v24.3h3.28V63.35a4.47,4.47,0,0,0,3.39,2,2.6,2.6,0,0,0,2.62-2,14.49,14.49,0,0,0,.33-3.65Zm-3.28.26c0,1.64-.48,2.44-1.43,2.44a2.35,2.35,0,0,1-1.64-.81v-11a2.36,2.36,0,0,1,1.64-.8c.95,0,1.43.84,1.43,2.47v7.73Zm-12.47,5.17v-2c-1.3,1.5-2.54,2.22-3.75,2.22A2,2,0,0,1,192.21,64a9.24,9.24,0,0,1-.29-2.69V47h3.28V60.33a9.89,9.89,0,0,0,0,1.28c.08.51.33.77.77.77.66,0,1.35-.51,2.07-1.54V47h3.28v18.1Zm-6.63-20.88V40.81H180v3.42h3.86V65.11h3.65V44.23Z"/><path class="cls-5" d="M173,65.11V46.81h-3.32v14c-.73,1-1.43,1.55-2.09,1.55-.45,0-.71-.26-.78-.78a7.75,7.75,0,0,1,0-1.29V46.81h-3.3V61.28a9.23,9.23,0,0,0,.29,2.72,2,2,0,0,0,2.13,1.36c1.21,0,2.47-.74,3.79-2.25v2Zm-15.57-5.3c0,1.69-.51,2.54-1.58,2.54s-1.58-.85-1.58-2.54v-7.7c0-1.69.51-2.54,1.58-2.54s1.58.84,1.58,2.54v7.7Zm3.32-.62V52.78a7.17,7.17,0,0,0-1-4.31,4.92,4.92,0,0,0-7.73,0,7.11,7.11,0,0,0-1,4.31v6.41a7.09,7.09,0,0,0,1,4.3,4.92,4.92,0,0,0,7.73,0,7.15,7.15,0,0,0,1-4.3ZM151,40.56h-3.72l-2.51,9.64-2.61-9.64h-3.87c.77,2.28,1.58,4.56,2.36,6.84a60.69,60.69,0,0,1,2.25,7.77v9.94h3.68V55.16L151,40.56Z"/></g></g></svg>