<svg xmlns="http://www.w3.org/2000/svg" xmlns:xlink="http://www.w3.org/1999/xlink" viewBox="0 0 282.96 91.42"><defs><style>.cls-1{fill:#e8e7f0;}.cls-2{fill:#1d1d1b;}.cls-3,.cls-4,.cls-5,.cls-6{fill-rule:evenodd;}.cls-3{fill:url(#New_Gradient_5);}.cls-4{fill:url(#New_Gradient_4);}.cls-5{fill:url(#New_Gradient_3);}.cls-6{fill:url(#New_Gradient_2);}</style><linearGradient id="New_Gradient_5" x1="-729.13" y1="-1289.83" x2="-728.07" y2="-1350.33" gradientTransform="translate(622.2 737.56) scale(0.53)" gradientUnits="userSpaceOnUse"><stop offset="0" stop-color="#323232"/><stop offset="1" stop-color="#595959"/></linearGradient><linearGradient id="New_Gradient_4" x1="-901.05" y1="-2992.59" x2="-899.99" y2="-3052.96" gradientTransform="translate(553.22 1097.34) scale(0.35)" gradientUnits="userSpaceOnUse"><stop offset="0" stop-color="#2b2b2b"/><stop offset="1" stop-color="#444"/></linearGradient><linearGradient id="New_Gradient_3" x1="-900.4" y1="-2994.37" x2="-900.4" y2="-3053.03" gradientTransform="translate(553.22 1097.34) scale(0.35)" gradientUnits="userSpaceOnUse"><stop offset="0" stop-color="#ddd"/><stop offset="1" stop-color="#fff"/></linearGradient><linearGradient id="New_Gradient_2" x1="-1013.8" y1="-2994.37" x2="-1013.8" y2="-3053.64" gradientTransform="translate(553.22 1097.34) scale(0.35)" gradientUnits="userSpaceOnUse"><stop offset="0" stop-color="#424242"/><stop offset="1" stop-color="#262626"/></linearGradient></defs><title>Ресурс 8s8mob</title><g id="Слой_2" data-name="Слой 2"><g id="sxema_rabotu" data-name="sxema rabotu"><g id="youtube"><rect class="cls-1" width="282.96" height="91.42"/><path class="cls-2" d="M28,26.27l-4.5,8.07v5.22h-3V34.34L16,26.27h3.25L22,31.72l2.77-5.45Z"/><path class="cls-2" d="M34.58,39.79c-3.93,0-6.29-3-6.29-6.88S30.65,26,34.58,26s6.29,3,6.29,6.88S38.51,39.79,34.58,39.79Zm0-2.53c2,0,3.23-1.67,3.23-4.35s-1.25-4.35-3.23-4.35-3.23,1.67-3.23,4.35S32.6,37.27,34.58,37.27Z"/><path class="cls-2" d="M43.05,34.19V26.27h3v8c0,2,.87,3,2.68,3s2.68-1,2.68-3v-8h3v7.92c0,3.69-2.24,5.6-5.7,5.6S43.05,37.87,43.05,34.19Z"/><path class="cls-2" d="M56.91,34.38V32.16h5.58v2.22Z"/><path class="cls-2" d="M19.87,50.2H16V47.71h10.7V50.2H22.9V61h-3Z"/><path class="cls-2" d="M28.48,55.63V47.71h3v8c0,2,.87,3,2.68,3s2.68-1,2.68-3v-8h3v7.92c0,3.69-2.24,5.6-5.7,5.6S28.48,59.32,28.48,55.63Z"/><path class="cls-2" d="M42.69,47.71h5c3.19,0,4.73,1.46,4.73,3.63A2.67,2.67,0,0,1,50.5,54,3,3,0,0,1,53,57.09C53,59.41,51.55,61,48,61H42.69ZM47.46,50H45.68v3.06h1.79c1.35,0,2.05-.55,2.05-1.56S48.81,50,47.46,50Zm.25,5.28h-2v3.42h2c1.56,0,2.3-.57,2.3-1.71S49.27,55.29,47.71,55.29Z"/><path class="cls-2" d="M55.16,47.71H64v2.41H58.18V53h5.21v2.41H58.18v3.21h6V61H55.16Z"/><path class="cls-3" d="M262.3,44.38a48.54,48.54,0,0,1-.8,10.72,5.73,5.73,0,0,1-4.9,4.46,152.22,152.22,0,0,1-17,.63,152.23,152.23,0,0,1-17-.63,5.73,5.73,0,0,1-4.9-4.46,48.58,48.58,0,0,1-.79-10.72,48.55,48.55,0,0,1,.8-10.72,5.73,5.73,0,0,1,4.9-4.46,152.41,152.41,0,0,1,17-.63,152.41,152.41,0,0,1,17,.63,5.73,5.73,0,0,1,4.9,4.46,48.59,48.59,0,0,1,.79,10.72Z"/><path class="cls-4" d="M254.84,54.72a3.91,3.91,0,0,1-3.31-1.54,5.83,5.83,0,0,1-.88-3.54V44.36a5.87,5.87,0,0,1,.84-3.55,3.88,3.88,0,0,1,3.27-1.54A3.79,3.79,0,0,1,258,40.81a5.93,5.93,0,0,1,.84,3.55v3.12h-5.46v2.67c0,1.4.46,2.09,1.39,2.09a1.17,1.17,0,0,0,1.22-1.1,17.62,17.62,0,0,0,.06-1.85h2.79v.4c0,.88,0,1.49-.06,1.76a3.85,3.85,0,0,1-.64,1.64,3.77,3.77,0,0,1-3.3,1.63Zm-.09-13q-1.37,0-1.37,2.09v1.4h2.73v-1.4c0-1.39-.46-2.09-1.36-2.09Zm-8.67,13a3.72,3.72,0,0,1-2.82-1.67v1.46h-2.73V34.29h2.73v6.6a3.7,3.7,0,0,1,2.82-1.63,2.16,2.16,0,0,1,2.18,1.7,11.72,11.72,0,0,1,.27,3v6a12.15,12.15,0,0,1-.27,3,2.16,2.16,0,0,1-2.18,1.69Zm-1.46-13a2,2,0,0,0-1.36.66v9.18a2,2,0,0,0,1.36.67c.79,0,1.19-.67,1.19-2V43.78c0-1.36-.4-2.06-1.19-2.06Zm-12.31,13a1.68,1.68,0,0,1-1.76-1.12,7.69,7.69,0,0,1-.24-2.24V39.45H233v11.1a8.24,8.24,0,0,0,0,1.06c.07.42.27.64.64.64.55,0,1.12-.42,1.73-1.28V39.45h2.73V54.52h-2.73V52.87a4.37,4.37,0,0,1-3.12,1.85Zm-5.67-.21h-3V37.14h-3.21V34.29h9.52v2.85h-3.27V54.52Z"/><path class="cls-5" d="M258.84,49.37V49h-2.79a17.27,17.27,0,0,1-.06,1.85,1.17,1.17,0,0,1-1.22,1.1c-.94,0-1.39-.7-1.39-2.09V47.16h5.46V44a5.93,5.93,0,0,0-.84-3.55,3.79,3.79,0,0,0-3.22-1.54,3.88,3.88,0,0,0-3.27,1.54,5.87,5.87,0,0,0-.84,3.55v5.28a5.83,5.83,0,0,0,.88,3.54,3.91,3.91,0,0,0,3.3,1.54,3.78,3.78,0,0,0,3.3-1.63,3.89,3.89,0,0,0,.64-1.64c0-.27.06-.88.06-1.76Zm-2.73-4.49h-2.73V43.49q0-2.09,1.37-2.09c.91,0,1.36.7,1.36,2.09v1.39Zm-7.58,4.79v-6a11.65,11.65,0,0,0-.27-3,2.16,2.16,0,0,0-2.18-1.7,3.7,3.7,0,0,0-2.82,1.63V34h-2.73V54.19h2.73V52.73a3.72,3.72,0,0,0,2.82,1.67,2.16,2.16,0,0,0,2.18-1.69,12.06,12.06,0,0,0,.27-3Zm-2.73.21c0,1.36-.4,2-1.19,2a2,2,0,0,1-1.36-.67V42.06a2,2,0,0,1,1.36-.66c.79,0,1.19.7,1.19,2.06v6.43Zm-10.38,4.31V52.55a4.37,4.37,0,0,1-3.12,1.85,1.68,1.68,0,0,1-1.76-1.12,7.69,7.69,0,0,1-.24-2.24V39.13H233V50.22a8.23,8.23,0,0,0,0,1.06c.07.42.27.64.64.64.55,0,1.12-.42,1.73-1.28V39.13h2.73V54.19Zm-5.52-17.38V34h-9.52v2.85h3.21V54.19h3V36.82Z"/><path class="cls-6" d="M214.59,54.19V39h-2.76V50.6c-.61.86-1.19,1.29-1.74,1.29-.37,0-.59-.22-.65-.65a6.45,6.45,0,0,1,0-1.07V39h-2.75V51a7.68,7.68,0,0,0,.25,2.26,1.69,1.69,0,0,0,1.78,1.13,4.43,4.43,0,0,0,3.15-1.87v1.66Zm-13-4.41c0,1.41-.43,2.11-1.32,2.11s-1.32-.7-1.32-2.11V43.38c0-1.41.43-2.11,1.32-2.11s1.32.7,1.32,2.11v6.41Zm2.76-.52V43.93a6,6,0,0,0-.86-3.59,4.09,4.09,0,0,0-6.43,0,5.92,5.92,0,0,0-.86,3.59v5.33a5.9,5.9,0,0,0,.86,3.58,4.1,4.1,0,0,0,6.43,0,6,6,0,0,0,.86-3.58Zm-8.18-15.5h-3.09l-2.09,8-2.17-8h-3.22c.64,1.9,1.32,3.8,2,5.69a50.52,50.52,0,0,1,1.87,6.46v8.28h3.06V45.92l3.68-12.16Z"/></g></g></g></svg>