<svg xmlns="http://www.w3.org/2000/svg" viewBox="0 0 181.21 29.23"><defs><style>.cls-1{fill:#201500;}</style></defs><title>Ресурс 26sixhats</title><g id="Слой_2" data-name="Слой 2"><g id="Шар_49" data-name="Шар 49"><path class="cls-1" d="M5.79,2.39A17.23,17.23,0,0,1,13.53.15a35.52,35.52,0,0,1,8.52.26,28.26,28.26,0,0,1,6.34,2.06,23.6,23.6,0,0,1,5.38,3.44,18.11,18.11,0,0,1,3.89,4.82,16.93,16.93,0,0,1,1.78,5.74,13.48,13.48,0,0,1-.25,4.66,12.28,12.28,0,0,1-1.45,3.82,8.67,8.67,0,0,1-3,3,8.71,8.71,0,0,1-3.21,1.27,4.42,4.42,0,0,0,1.39-2.53,2.91,2.91,0,0,0-1-2.64,4.91,4.91,0,0,0-3.27-1.13,31.77,31.77,0,0,0-5,.77,25.23,25.23,0,0,1-5.53.54,32.21,32.21,0,0,1-9.05-1.31A14,14,0,0,1,3,19.28,10.27,10.27,0,0,1,.39,14.91,12.12,12.12,0,0,1,.2,9.64C.87,6,3.51,3.75,5.79,2.39Z"/><path class="cls-1" d="M118.94,26.36V17h-5.39v9.33h-6.44V2.85h6.44v8.63h5.39V2.85h6.38V26.36Z"/><path class="cls-1" d="M157.74,8.31V26.36H151.1V8.31h-5.58V2.85h17.37V8.31Z"/><path class="cls-1" d="M82.36,2.86V26.29h-6.7V2.86Z"/><path class="cls-1" d="M98.07,14.29l7.57,12.07H99.5l-4.81-7.93-4.86,7.93H83.74l7.48-12.07-7-11.44h6.14l4.37,7.25L99,2.85h6.14Z"/><path class="cls-1" d="M66.39,2.81h6.1V8.15H65.63c-1.12,0-1.84.56-1.84,1.68,0,.91.56,1.28,1.52,1.57l3.86,1.18c2.76.85,5.23,2.78,5.23,6.47,0,5.24-3,7.28-9.09,7.28H58.38V21H66c1.06,0,1.74-.41,1.74-1.57,0-.81-.62-1.09-1.58-1.4l-3.85-1.25c-2.9-.91-5.21-2.78-5.21-6.47C57.13,5.37,61.21,2.81,66.39,2.81Z"/><path class="cls-1" d="M173.21,2.84h6.64V8.19h-7.4c-1.12,0-1.84.56-1.84,1.68,0,.91.56,1.28,1.52,1.57L176,12.62c2.76.85,5.23,2.78,5.23,6.47,0,5.24-3,7.28-9.09,7.28h-7l0-5.35h7.65c1.06,0,1.74-.41,1.74-1.57,0-.81-.62-1.09-1.58-1.4l-3.85-1.25c-2.9-.91-5.21-2.78-5.21-6.47C163.95,5.4,168,2.84,173.21,2.84Z"/><path class="cls-1" d="M132.09,26.41h-5.9l7.75-21.78c.4-1.21,1.83-1.78,3.61-1.78s3.21.57,3.61,1.78L149,26.41h-5.92l-1.77-4.93h-7.55Zm6.23-14.26c-.44-1.34-.77-2.4-.77-2.4s-.34,1.06-.77,2.4L135.17,17h4.76Z"/></g></g></svg>