<svg xmlns="http://www.w3.org/2000/svg" viewBox="0 0 48.92 36.16"><defs><style>.cls-1{fill:#201500;}</style></defs><title>Ресурс 1small-logo</title><g id="Слой_2" data-name="Слой 2"><g id="heder"><g id="menu"><path class="cls-1" d="M7.16,3A21.32,21.32,0,0,1,16.74.18,44,44,0,0,1,27.28.5a35,35,0,0,1,7.85,2.55,29.2,29.2,0,0,1,6.66,4.25,22.41,22.41,0,0,1,4.81,6,20.94,20.94,0,0,1,2.2,7.1,16.67,16.67,0,0,1-.31,5.76,15.19,15.19,0,0,1-1.8,4.72,10.72,10.72,0,0,1-3.75,3.73,10.78,10.78,0,0,1-4,1.57A5.46,5.46,0,0,0,40.7,33a3.59,3.59,0,0,0-1.24-3.27,6.08,6.08,0,0,0-4-1.4,39.3,39.3,0,0,0-6.18,1A31.22,31.22,0,0,1,22.4,30a39.85,39.85,0,0,1-11.2-1.62C7.6,27,5.63,25.92,3.68,23.86A12.71,12.71,0,0,1,.49,18.45a15,15,0,0,1-.24-6.52C1.08,7.46,4.34,4.64,7.16,3Z"/></g></g></g></svg>