<svg xmlns="http://www.w3.org/2000/svg" viewBox="0 0 207.01 54.54"><defs><style>.cls-1{fill:#3c3c3b;}.cls-2{fill:none;stroke:#e30613;stroke-miterlimit:10;stroke-width:2px;}.cls-3{fill:#262b35;}</style></defs><title>Ресурс 4videoButton</title><g id="Слой_2" data-name="Слой 2"><g id="Шар_51" data-name="Шар 51"><polygon class="cls-1" points="33.24 20.49 44.9 27.88 33.12 35.24 33.24 20.49"/><circle class="cls-2" cx="37.27" cy="27.27" r="17.69"/><path class="cls-2" d="M206,27.27a26.27,26.27,0,0,1-25.08,26.24c-.39,0-153.27,0-153.67,0A26.27,26.27,0,0,1,27.27,1C27.8,1,180.8,1,181.33,1A26.27,26.27,0,0,1,206,27.27Z"/><path class="cls-3" d="M69.69,17.94l3.09-4.34h3.47l-3.54,4.73,4,6.73H73.21l-2.34-4.21-1.18,1.54v2.67H66.52V13.6h3.18Z"/><path class="cls-3" d="M76.9,19.33c0-3.52,2.11-5.93,5.57-5.93S88,15.81,88,19.33s-2.11,5.93-5.57,5.93S76.9,22.85,76.9,19.33Zm7.92,0c0-2-.92-3.31-2.36-3.31s-2.36,1.26-2.36,3.31.92,3.31,2.36,3.31S84.82,21.37,84.82,19.33Z"/><path class="cls-3" d="M94.13,21.36H93v3.7H89.84V13.6h4.29c2.85,0,4.76,1.26,4.76,3.88S97,21.36,94.13,21.36Zm-.1-5.3H93V18.9h1c1.06,0,1.65-.41,1.65-1.42S95.09,16.05,94,16.05Z"/><path class="cls-3" d="M100,19.33c0-3.52,2.11-5.93,5.57-5.93s5.57,2.41,5.57,5.93-2.11,5.93-5.57,5.93S100,22.85,100,19.33Zm7.92,0c0-2-.92-3.31-2.36-3.31s-2.36,1.26-2.36,3.31.92,3.31,2.36,3.31S108,21.37,108,19.33Z"/><path class="cls-3" d="M115.1,16.18h-3.18V13.6h9.53v2.59h-3.18v8.87H115.1Z"/><path class="cls-3" d="M126.08,17.94l3.09-4.34h3.47l-3.54,4.73,4,6.73H129.6l-2.34-4.21-1.18,1.54v2.67H122.9V13.6h3.18Z"/><path class="cls-3" d="M134.46,13.6h3.09v6.24l3.67-6.24h3.11V25.06h-3.09V18.8l-3.67,6.25h-3.11Z"/><path class="cls-3" d="M146.66,13.6h3.09v6.24l3.67-6.24h3.11V25.06h-3.09V18.8l-3.67,6.25h-3.11Zm2.16-3.29,1.78-.34c.13.72.49,1,1,1s.85-.33,1-1l1.78.34a2.81,2.81,0,0,1-5.53,0Z"/><path class="cls-3" d="M66.52,30.54H71c2.88,0,4.22,1.13,4.22,3.09A2.38,2.38,0,0,1,73.69,36a2.66,2.66,0,0,1,2.08,2.62c0,2-1.23,3.39-4.54,3.39H66.52ZM70.82,33H69.69V35h1.13c.93,0,1.34-.26,1.34-1S71.76,33,70.82,33Zm.23,4.32H69.69v2.21h1.36c1,0,1.51-.29,1.51-1.11S72.08,37.33,71.05,37.33Z"/><path class="cls-3" d="M77.51,30.54H80.6v6.24l3.67-6.24h3.11V42H84.28V35.74L80.62,42H77.51Z"/><path class="cls-3" d="M99.59,44H96.42V42H91.95v2H88.77V39.41h1a29.2,29.2,0,0,0,.75-6.94V30.54h7.74v8.89h1.28Zm-4.37-4.55V33.13H93.63a29.1,29.1,0,0,1-.7,6.29Z"/><path class="cls-3" d="M101.09,30.54H109V33h-4.75v1.85h4.17v2.49h-4.17v2.16h4.9V42h-8.07Z"/><path class="cls-3" d="M110.49,36.27c0-3.52,2.11-5.93,5.57-5.93s5.57,2.41,5.57,5.93-2.11,5.93-5.57,5.93S110.49,39.79,110.49,36.27Zm7.92,0c0-2-.92-3.31-2.36-3.31s-2.36,1.26-2.36,3.31.92,3.31,2.36,3.31S118.41,38.32,118.41,36.27Z"/><path class="cls-3" d="M127.81,36.27c0-3.52,2.11-5.93,5.57-5.93s5.57,2.41,5.57,5.93-2.11,5.93-5.57,5.93S127.81,39.79,127.81,36.27Zm7.92,0c0-2-.92-3.31-2.36-3.31S131,34.22,131,36.27s.92,3.31,2.36,3.31S135.74,38.32,135.74,36.27Z"/><path class="cls-3" d="M145.17,34.7c2.64,0,4.22,1.36,4.22,3.65S147.81,42,145.17,42h-4.42V30.54h7.56v2.52h-4.39V34.7Zm-.38,2.52h-.87v2.26h.87c.9,0,1.39-.33,1.39-1.13S145.69,37.22,144.79,37.22Z"/><path class="cls-3" d="M152.75,33.55,150.58,32a5.64,5.64,0,0,1,4.17-1.65c2.5,0,4.14,1.11,4.14,3.14A2.85,2.85,0,0,1,157.11,36a2.84,2.84,0,0,1,1.95,2.77c0,2-1.7,3.39-4.37,3.39a5.51,5.51,0,0,1-4.47-1.92l2.18-1.52a2.6,2.6,0,0,0,2,1c.83,0,1.42-.49,1.42-1.06,0-.9-.8-1.31-2.1-1.31h-1V34.89h1.16c1.11,0,1.77-.51,1.77-1.11s-.44-.95-1.2-.95A2.33,2.33,0,0,0,152.75,33.55Z"/><path class="cls-3" d="M160.35,36.27c0-3.52,2.11-5.93,5.57-5.93s5.57,2.41,5.57,5.93-2.11,5.93-5.57,5.93S160.35,39.79,160.35,36.27Zm7.92,0c0-2-.92-3.31-2.36-3.31s-2.36,1.26-2.36,3.31.92,3.31,2.36,3.31S168.28,38.32,168.28,36.27Z"/><path class="cls-3" d="M177.58,38.3h-1.11V42h-3.18V30.54h4.29c2.85,0,4.76,1.26,4.76,3.88S180.43,38.3,177.58,38.3Zm-.1-5.3h-1v2.85h1c1.06,0,1.65-.41,1.65-1.42S178.54,33,177.48,33Z"/></g></g></svg>