<svg xmlns="http://www.w3.org/2000/svg" viewBox="0 0 46.95 108"><defs><style>.cls-1{fill:#bedb89;}.cls-2{fill:#201500;}</style></defs><title>Ресурс 15why-3</title><g id="Слой_2" data-name="Слой 2"><g id="Шар_52" data-name="Шар 52"><rect class="cls-1" x="17.37" width="25" height="108"/><path class="cls-2" d="M44.55,34.73H2.4A2.4,2.4,0,0,1,0,32.33V9.67a2.4,2.4,0,0,1,2.4-2.4H44.55a2.4,2.4,0,0,1,2.4,2.4V32.33A2.4,2.4,0,0,1,44.55,34.73ZM2.4,9.21a.46.46,0,0,0-.46.46V32.33a.46.46,0,0,0,.46.46H44.55a.46.46,0,0,0,.46-.46V9.67a.46.46,0,0,0-.46-.46Z"/><path class="cls-2" d="M18.46,28.36a1,1,0,0,1-.52-.86v-13a1,1,0,0,1,1.53-.79l9.14,6.5a1,1,0,0,1,0,1.58l-9.14,6.5A.89.89,0,0,1,18.46,28.36Zm1.41-12v9.24L26.37,21Z"/><path class="cls-2" d="M46,40.23H27.47a3.83,3.83,0,0,0-7.42,0H1a1,1,0,0,0,0,1.94H20.06a3.83,3.83,0,0,0,7.42,0H46a1,1,0,0,0,0-1.94ZM23.77,43.09a1.9,1.9,0,1,1,1.9-1.9A1.9,1.9,0,0,1,23.77,43.09Z"/></g></g></svg>