<svg xmlns="http://www.w3.org/2000/svg" viewBox="0 0 50.83 108"><defs><style>.cls-1{fill:#bedb89;}.cls-2{fill:#201500;}</style></defs><title>Ресурс 16why-4</title><g id="Слой_2" data-name="Слой 2"><g id="Шар_52" data-name="Шар 52"><rect class="cls-1" x="25.42" width="25" height="108"/><path class="cls-2" d="M49.47,28a4.81,4.81,0,0,0-.55-2.25A4.87,4.87,0,0,0,46,17H32.78A28.15,28.15,0,0,0,34.54,6.91a4.19,4.19,0,1,0-8.38,0c0,8.26-5.76,14.43-14.33,15.37l-.17,0a3.16,3.16,0,0,0-2.13-.82H3.18A3.18,3.18,0,0,0,0,24.68V39.77a3.18,3.18,0,0,0,3.18,3.18H9.53A3.17,3.17,0,0,0,12,41.82a14.16,14.16,0,0,1,4.62,1.58A12.63,12.63,0,0,0,22.88,45h19a4.87,4.87,0,0,0,4.87-4.87,4.81,4.81,0,0,0-.55-2.25,4.86,4.86,0,0,0,1.36-6.11A4.84,4.84,0,0,0,49.47,28ZM46.22,30.8H44.87a.79.79,0,0,0,0,1.59h1.19a3.23,3.23,0,0,1,.47,1.67,3.27,3.27,0,0,1-1.7,2.87H43.38a.79.79,0,0,0,0,1.59h1.34a3.23,3.23,0,0,1,.45,1.65,3.28,3.28,0,0,1-3.28,3.28h-19A11,11,0,0,1,17.28,42a16.05,16.05,0,0,0-4.62-1.65,3.18,3.18,0,0,0,.05-.56v-12a.79.79,0,1,0-1.59,0v12a1.59,1.59,0,0,1-1.59,1.59H3.18a1.59,1.59,0,0,1-1.59-1.59V24.68a1.59,1.59,0,0,1,1.59-1.59H9.53a1.59,1.59,0,0,1,1.59,1.59.79.79,0,1,0,1.59,0,3.17,3.17,0,0,0-.13-.89,17.64,17.64,0,0,0,10.95-5.54A16.85,16.85,0,0,0,27.75,6.91a2.6,2.6,0,1,1,5.2,0,25.52,25.52,0,0,1-2.09,10.53.79.79,0,0,0,.78,1.13H46a3.28,3.28,0,0,1,1.66,6.11H46.13a.79.79,0,1,0,0,1.59H47.4a3.26,3.26,0,0,1-1.19,4.54Z"/><path class="cls-2" d="M41.93,30.8h-.85a.79.79,0,0,0,0,1.59h.85a.79.79,0,0,0,0-1.59Z"/><path class="cls-2" d="M43.38,24.67h-.85a.79.79,0,1,0,0,1.59h.85a.79.79,0,1,0,0-1.59Z"/><path class="cls-2" d="M40.49,36.94h-.85a.79.79,0,1,0,0,1.59h.85a.79.79,0,0,0,0-1.59Z"/><path class="cls-2" d="M7.94,24.68a1.59,1.59,0,1,0,1.59,1.59A1.59,1.59,0,0,0,7.94,24.68Z"/></g></g></svg>