<svg xmlns="http://www.w3.org/2000/svg" viewBox="0 0 53.97 108"><defs><style>.cls-1{fill:#bedb89;}.cls-2{fill:#201500;}</style></defs><title>Ресурс 18why-6</title><g id="Слой_2" data-name="Слой 2"><g id="Шар_52" data-name="Шар 52"><rect class="cls-1" x="25.98" width="25" height="108"/><path class="cls-2" d="M51.44,11.6a2.53,2.53,0,0,0-2.51,2.84l-9.35,4.68a4.21,4.21,0,0,0-6.73,5.07L28,29.43l-.07.09a2.53,2.53,0,0,0-2.31.16l-5.58-4.57a2.53,2.53,0,1,0-4.15.95L12,34.38H11.8a2.53,2.53,0,0,0-2.5,2.93L4.22,40.08A2.53,2.53,0,1,0,5,41.56l5.09-2.78a2.53,2.53,0,0,0,3.46-3.68l3.89-8.33h.24A2.51,2.51,0,0,0,19,26.41L24.6,31a2.53,2.53,0,1,0,4.61-.34l.08-.07,4.8-5.23a4.21,4.21,0,0,0,6.24-4.71L49.68,16a2.53,2.53,0,1,0,1.75-4.35ZM2.53,42.8A.84.84,0,1,1,3.37,42,.84.84,0,0,1,2.53,42.8Zm9.28-5.06a.84.84,0,1,1,.84-.84A.84.84,0,0,1,11.8,37.74Zm5.9-12.65a.84.84,0,1,1,.84-.84A.84.84,0,0,1,17.71,25.09ZM27,32.68a.84.84,0,1,1,.84-.84A.84.84,0,0,1,27,32.68Zm9.28-8.43a2.53,2.53,0,1,1,2.53-2.53A2.53,2.53,0,0,1,36.26,24.25ZM51.44,15a.84.84,0,1,1,.84-.84A.84.84,0,0,1,51.44,15Z"/><path class="cls-2" d="M36.26,20.88a.84.84,0,1,0,.6.25A.85.85,0,0,0,36.26,20.88Z"/><path class="cls-2" d="M36.26,15.82a.84.84,0,1,0-.6-.25A.85.85,0,0,0,36.26,15.82Z"/><path class="cls-2" d="M36.26,12.44a.84.84,0,1,0-.6-.25A.85.85,0,0,0,36.26,12.44Z"/><path class="cls-2" d="M36.26,9.07a.84.84,0,1,0-.6-.25A.85.85,0,0,0,36.26,9.07Z"/><path class="cls-2" d="M36.26,5.7a.84.84,0,1,0-.6-.25A.85.85,0,0,0,36.26,5.7Z"/><path class="cls-2" d="M36.26,37.74a.84.84,0,1,0,.6.25A.85.85,0,0,0,36.26,37.74Z"/><path class="cls-2" d="M36.26,34.37a.84.84,0,1,0,.6.25A.85.85,0,0,0,36.26,34.37Z"/><path class="cls-2" d="M36.26,31a.84.84,0,1,0,.6.25A.85.85,0,0,0,36.26,31Z"/><path class="cls-2" d="M36.26,27.62a.84.84,0,1,0,.6.25A.85.85,0,0,0,36.26,27.62Z"/><path class="cls-2" d="M36.26,51.23a.84.84,0,1,0,.6.25A.85.85,0,0,0,36.26,51.23Z"/><path class="cls-2" d="M36.26,47.86a.84.84,0,1,0,.6.25A.85.85,0,0,0,36.26,47.86Z"/><path class="cls-2" d="M36.26,44.49a.84.84,0,1,0,.6.25A.85.85,0,0,0,36.26,44.49Z"/><path class="cls-2" d="M36.26,41.11a.84.84,0,1,0,.6.25A.85.85,0,0,0,36.26,41.11Z"/></g></g></svg>