<svg xmlns="http://www.w3.org/2000/svg" viewBox="0 0 44.59 108"><defs><style>.cls-1{fill:#bedb89;}.cls-2{fill:#201500;}</style></defs><title>Ресурс 17why-5</title><g id="Слой_2" data-name="Слой 2"><g id="Шар_52" data-name="Шар 52"><rect class="cls-1" x="19.59" width="25" height="108"/><path class="cls-2" d="M40.18,8.54h-28a2.91,2.91,0,0,0-2.91,2.91V18a12.72,12.72,0,0,0,0,24.46V53.63a2.91,2.91,0,0,0,2.91,2.91H35.05a1,1,0,0,0,.72-.3l7-7a1,1,0,0,0,.3-.72V11.45A2.91,2.91,0,0,0,40.18,8.54Zm-28,2.05h28a.86.86,0,0,1,.86.86v3.09H11.27V11.45A.86.86,0,0,1,12.13,10.59ZM2.05,30.2A10.67,10.67,0,1,1,12.72,40.87,10.68,10.68,0,0,1,2.05,30.2Zm9.22,23.44V42.83a12.7,12.7,0,0,0,11-4.29h6.28a1,1,0,1,0,0-2.05H23.77a12.63,12.63,0,0,0,1.62-5.2h3.2a1,1,0,1,0,0-2.05H25.4a12.63,12.63,0,0,0-1.55-5.2h4.73a1,1,0,0,0,0-2.05H22.44a12.7,12.7,0,0,0-11.16-4.44v-1H41V47.48h-4.1A2.91,2.91,0,0,0,34,50.39v4.1H12.13A.86.86,0,0,1,11.27,53.63ZM36.08,53V50.39a.86.86,0,0,1,.86-.86h2.65Z"/><path class="cls-2" d="M32.61,24.05H36A1,1,0,1,0,36,22h-3.4a1,1,0,0,0,0,2.05Z"/><path class="cls-2" d="M32.61,31.3H36a1,1,0,1,0,0-2.05h-3.4a1,1,0,0,0,0,2.05Z"/><path class="cls-2" d="M32.61,38.55H36a1,1,0,1,0,0-2.05h-3.4a1,1,0,0,0,0,2.05Z"/><path class="cls-2" d="M36,45.79a1,1,0,1,0,0-2.05H26.43a1,1,0,1,0,0,2.05Z"/><path class="cls-2" d="M20.68,25l-1.25-1.25a1.78,1.78,0,0,0-2.52,0l-6.56,6.56L8.53,28.52a1.78,1.78,0,0,0-2.52,0L4.76,29.77a1.79,1.79,0,0,0,0,2.52l4.32,4.32a1.77,1.77,0,0,0,1.26.52h0a1.77,1.77,0,0,0,1.26-.52l9.07-9.07A1.79,1.79,0,0,0,20.68,25ZM10.35,35,6.4,31l.87-.87,2.35,2.35a1,1,0,0,0,1.45,0l7.1-7.1.87.87Z"/></g></g></svg>