<svg xmlns="http://www.w3.org/2000/svg" viewBox="0 0 50 108"><defs><style>.cls-1{fill:#bedb89;}.cls-2{fill:#201500;}</style></defs><title>Ресурс 13why-1</title><g id="Слой_2" data-name="Слой 2"><g id="Шар_52" data-name="Шар 52"><rect class="cls-1" x="25" width="25" height="108"/><circle class="cls-2" cx="14.79" cy="25.46" r="0.99"/><circle class="cls-2" cx="20.71" cy="25.46" r="0.99"/><circle class="cls-2" cx="26.62" cy="25.46" r="0.99"/><circle class="cls-2" cx="8.87" cy="31.37" r="0.99"/><circle class="cls-2" cx="14.79" cy="31.37" r="0.99"/><circle class="cls-2" cx="20.71" cy="31.37" r="0.99"/><circle class="cls-2" cx="26.62" cy="31.37" r="0.99"/><circle class="cls-2" cx="38.46" cy="31.37" r="0.99"/><circle class="cls-2" cx="32.54" cy="25.46" r="0.99"/><circle class="cls-2" cx="38.46" cy="25.46" r="0.99"/><circle class="cls-2" cx="8.87" cy="37.29" r="0.99"/><circle class="cls-2" cx="14.79" cy="37.29" r="0.99"/><circle class="cls-2" cx="20.71" cy="37.29" r="0.99"/><circle class="cls-2" cx="26.62" cy="37.29" r="0.99"/><circle class="cls-2" cx="32.54" cy="37.29" r="0.99"/><circle class="cls-2" cx="38.46" cy="37.29" r="0.99"/><circle class="cls-2" cx="8.87" cy="43.21" r="0.99"/><circle class="cls-2" cx="14.79" cy="43.21" r="0.99"/><circle class="cls-2" cx="20.71" cy="43.21" r="0.99"/><circle class="cls-2" cx="26.62" cy="43.21" r="0.99"/><path class="cls-2" d="M32.54,34.33a3,3,0,1,0-3-3A3,3,0,0,0,32.54,34.33Zm0-3.94a1,1,0,1,1-1,1A1,1,0,0,1,32.54,30.39Z"/><path class="cls-2" d="M43.39,8.71h-2v-1a3,3,0,1,0-5.92,0v1H11.83v-1a3,3,0,0,0-5.92,0v1h-2A3.94,3.94,0,0,0,0,12.66V48.14a3.94,3.94,0,0,0,3.94,3.94H43.39a3.94,3.94,0,0,0,3.94-3.94V12.66A3.94,3.94,0,0,0,43.39,8.71Zm-5.92,2v-3a1,1,0,1,1,2,0v3.94a1,1,0,1,1-2,0Zm-29.58,0v-3a1,1,0,0,1,2,0v3.94a1,1,0,1,1-2,0ZM45.36,48.14a2,2,0,0,1-2,2H3.94a2,2,0,0,1-2-2V18.55H45.36Zm0-31.55H2V12.66a2,2,0,0,1,2-2h2v1a3,3,0,1,0,5.92,0v-1H35.5v1a3,3,0,1,0,5.92,0v-1h2a2,2,0,0,1,2,2v3.92Z"/></g></g></svg>