<?xml version="1.0" encoding="utf-8"?>
<!-- Generator: Adobe Illustrator 21.0.2, SVG Export Plug-In . SVG Version: 6.00 Build 0)  -->
<svg version="1.1" id="Layer_1" xmlns="http://www.w3.org/2000/svg" xmlns:xlink="http://www.w3.org/1999/xlink" x="0px" y="0px"
	 viewBox="0 0 512 352" style="enable-background:new 0 0 512 352;" xml:space="preserve">
<style type="text/css">
	.st0{fill:#FFFFFF;}
</style>
<g id="XMLID_510_">
	<path id="XMLID_511_" class="st0" d="M499.8,142.5h-32.2v-32.2c0-6.7-5.5-12.2-12.2-12.2H412c-6.7,0-12.2,5.5-12.2,12.2v32.2h-32.2
		c-6.7,0-12.2,5.5-12.2,12.2v43.4c0,6.7,5.5,12.2,12.2,12.2h32.2v32.2c0,6.7,5.5,12.2,12.2,12.2h43.4c6.7,0,12.2-5.5,12.2-12.2
		v-32.2h32.2c6.7,0,12.2-5.5,12.2-12.2v-43.4C512,148,506.5,142.5,499.8,142.5z"/>
	<path id="XMLID_512_" class="st0" d="M165.6,89.3c14.8,0,29,4,41.1,11.5l13.8,9.5c4.8,3.3,11.3,2.7,15.5-1.4l40.4-40
		c2.6-2.6,3.9-6.1,3.6-9.8c-0.3-3.6-2.2-6.9-5.2-9l-23.5-16.1c-0.5-0.3-1-0.6-1.5-0.9L227,22c-0.3-0.1-0.6-0.3-0.9-0.4
		C206.5,13.9,185.9,10,164.8,10c-43.5,0-84.5,16.7-115.5,47C17.8,87.7,0.3,129.6,0,174.8c-0.3,45.2,16.6,87.3,47.7,118.5
		c30.8,31,74.6,48.7,120,48.7c45,0,87.1-17.5,115.7-47.9c22.6-24.1,36.5-56.3,40.2-93.1c0-0.3,0.1-0.7,0.1-1l0.4-33.1
		c0-0.7,0-1.4-0.1-2l-1.8-11.3c-0.9-5.9-6-10.3-12-10.3H169.3c-6.7,0-12.2,5.5-12.2,12.2v48.7c0,6.7,5.5,12.2,12.2,12.2h71.8
		c-3.3,7.2-8.5,14.8-15,21.9c-14.3,15.5-35.6,24.3-58.5,24.3c-23.4,0-45.8-9.2-61.4-25.1c-32.6-33.2-32.2-91.1,0.8-123.9
		C122.4,98.2,143.9,89.3,165.6,89.3z"/>
</g>
</svg>
