<svg xmlns="http://www.w3.org/2000/svg" viewBox="0 0 60.03 24.69"><defs><style>.cls-1{fill:#fff;}</style></defs><title>Ресурс 9s9</title><g id="Слой_2" data-name="Слой 2"><g id="Шар_63" data-name="Шар 63"><path class="cls-1" d="M55.59,24.2a118.32,118.32,0,0,1-13.27.49A118.15,118.15,0,0,1,29,24.2a4.47,4.47,0,0,1-3.82-3.47,37.76,37.76,0,0,1-.62-8.38A38.05,38.05,0,0,1,25.23,4,4.47,4.47,0,0,1,29.06.49,119,119,0,0,1,42.32,0,119.07,119.07,0,0,1,55.59.49,4.48,4.48,0,0,1,59.41,4,38,38,0,0,1,60,12.35a37.45,37.45,0,0,1-.64,8.38A4.42,4.42,0,0,1,55.59,24.2ZM47.38,8a2.9,2.9,0,0,0-2.21,1.29V4.16H43V20h2.13V18.86a2.93,2.93,0,0,0,2.21,1.31,1.7,1.7,0,0,0,1.72-1.34,9.37,9.37,0,0,0,.22-2.37V11.75a9.16,9.16,0,0,0-.22-2.37A1.7,1.7,0,0,0,47.38,8Zm-.21,8.59c0,1.06-.31,1.59-.93,1.59a1.54,1.54,0,0,1-1.07-.53v-7.2A1.55,1.55,0,0,1,46.24,10c.62,0,.93.55.93,1.61ZM11.51,9.87c-.69,0-1,.56-1,1.66v5c0,1.1.34,1.66,1,1.66s1-.55,1-1.66v-5C12.54,10.43,12.21,9.87,11.51,9.87ZM39,17.23c-.47.66-.92,1-1.35,1s-.45-.17-.5-.5a5.55,5.55,0,0,1,0-.83V8.19H35v9.33a6.22,6.22,0,0,0,.19,1.77,1.33,1.33,0,0,0,1.38.88A3.41,3.41,0,0,0,39,18.72V20h2.14V8.19H39ZM27.24,6.38h2.53V20h2.37V6.38H34.7V4.16H27.24ZM54.2,8a3.06,3.06,0,0,0-2.56,1.21A4.51,4.51,0,0,0,51,12v4.14a4.65,4.65,0,0,0,.7,2.78,3.08,3.08,0,0,0,2.59,1.21,3,3,0,0,0,2.59-1.28,3.13,3.13,0,0,0,.49-1.29,12.84,12.84,0,0,0,0-1.37v-.32H55.21c0,.86,0,1.34,0,1.45a.93.93,0,0,1-1,.86c-.73,0-1.09-.54-1.09-1.64v-2.1h4.27V12a4.68,4.68,0,0,0-.66-2.78A3,3,0,0,0,54.2,8Zm1,4.66H53.11v-1.1c0-1.09.36-1.63,1.06-1.63s1.07.55,1.07,1.63ZM5.4,13.52V20H3V13.52A40.88,40.88,0,0,0,1.55,8.45C1,7,.51,5.48,0,4H2.54l1.7,6.28L5.87,4H8.3Zm9.3,2.62a4.72,4.72,0,0,1-.67,2.8,2.93,2.93,0,0,1-2.53,1.23A2.92,2.92,0,0,1,9,18.94a4.55,4.55,0,0,1-.67-2.8V12A4.57,4.57,0,0,1,9,9.15a2.92,2.92,0,0,1,2.51-1.22A2.93,2.93,0,0,1,14,9.15,4.74,4.74,0,0,1,14.7,12Zm8,3.87H20.53V18.7a3.44,3.44,0,0,1-2.47,1.47,1.33,1.33,0,0,1-1.39-.89,6,6,0,0,1-.19-1.77V8.07h2.14v8.79a3.73,3.73,0,0,0,0,.84c0,.34.21.51.5.51s.88-.34,1.36-1V8.07H22.7Z"/></g></g></svg>